<svg id="Layer_1" xmlns="http://www.w3.org/2000/svg" viewBox="0 0 213 67"><style>.st0{fill:#6c6c6c}.st1,.st2{fill-rule:evenodd;clip-rule:evenodd;fill:#66c1ff}.st2{fill:#406db7}</style><switch><g><path class="st0" d="M2.9 65.1L1 59.5v5.6H0v-6.7h1.5l1.8 5.3 1.9-5.3h1.5v6.7h-1v-3.3-1.3-1l-2 5.6h-.8zM13.1 65.1l-.7-1.8H9.9l-.7 1.8H8.1l2.5-6.7h1.2l2.5 6.7h-1.2zm-1-2.7l-.6-1.8c0-.1-.1-.3-.2-.6s-.1-.5-.2-.6c-.1.4-.2.8-.4 1.2l-.6 1.7h2zM19.4 58.5v.9h-2.9v5.7h-1.1v-6.7h4zM24.3 65.1l-.7-1.8h-2.5l-.7 1.8h-1.1l2.5-6.7H23l2.5 6.7h-1.2zm-.9-2.7l-.6-1.8c0-.1-.1-.3-.2-.6s-.1-.5-.2-.6c-.1.4-.2.8-.4 1.2l-.6 1.7h2zM31.1 60c0 .4-.1.8-.4 1.1-.3.3-.7.5-1.2.5.6.1 1 .2 1.3.5.3.3.5.6.5 1.1 0 .6-.2 1.1-.7 1.5-.5.4-1.2.5-2 .5-.9 0-1.6-.1-2.1-.4v-1c.3.1.6.2 1 .3.4.1.7.1 1 .1 1.2 0 1.8-.4 1.8-1.1 0-.4-.2-.6-.5-.8-.4-.2-.9-.3-1.6-.3h-.8v-.9h.8c1.3 0 2-.4 2-1.1 0-.3-.1-.5-.3-.7-.2-.2-.5-.2-.9-.2-.3 0-.6 0-.9.1-.3.1-.6.2-.9.4l-.5-.7c.7-.5 1.5-.7 2.4-.7.7 0 1.3.2 1.7.5.1.4.3.8.3 1.3zM32.9 58.5h1V63.9l3.4-5.3h1.3v6.7h-1v-3.4c0-.5 0-1.2.1-1.9l-3.4 5.3H33v-6.8zM45.7 65.1h-1.1v-3h-3.1v3h-1.1v-6.7h1.1v2.7h3.1v-2.7h1.1v6.7zM57 60.5c0 .7-.2 1.2-.7 1.6-.5.4-1.1.6-1.9.6h-.7v2.5h-1.1v-6.7h1.9c.8 0 1.5.2 1.9.5.4.3.6.8.6 1.5zm-3.3 1.2h.6c.6 0 1-.1 1.2-.3.3-.2.4-.5.4-.9s-.1-.7-.4-.9-.6-.3-1.1-.3h-.8v2.4zM62.3 65.1l-.7-1.8h-2.5l-.7 1.8h-1.1l2.5-6.7H61l2.5 6.7h-1.2zm-.9-2.7l-.6-1.8c0-.1-.1-.3-.2-.6s-.1-.5-.2-.6c-.1.4-.2.8-.4 1.2l-.6 1.7h2zM64.3 64.2h.5c.4-.8.8-1.7 1.1-2.7.3-1 .5-2 .6-3h3.4v5.7h.9V67h-1v-1.8h-4.4V67h-1v-2.8zm3.1-4.8c-.1.7-.2 1.5-.5 2.4-.3.9-.6 1.7-.9 2.4h2.9v-4.8h-1.5zM72.1 58.5h1V63.9l3.4-5.3h1.3v6.7h-1v-3.4c0-.5 0-1.2.1-1.9l-3.4 5.3h-1.3v-6.8zM85.6 61.8c0 1.1-.3 1.9-.8 2.5-.5.6-1.3.9-2.3.9-1 0-1.8-.3-2.3-.9-.5-.6-.8-1.4-.8-2.5s.3-1.9.8-2.5c.5-.6 1.3-.9 2.3-.9 1 0 1.8.3 2.3.9s.8 1.4.8 2.5zm-5.1 0c0 .8.2 1.4.5 1.9.3.4.8.6 1.5.6.6 0 1.1-.2 1.5-.6.3-.4.5-1 .5-1.9 0-.8-.2-1.4-.5-1.9-.3-.4-.8-.6-1.5-.6s-1.1.2-1.5.6c-.3.5-.5 1.1-.5 1.9zM92.1 58.5L90 63.2c-.3.6-.5 1-.7 1.3-.2.3-.5.5-.7.6-.3.1-.6.2-1 .2s-.7 0-1-.1v-1c.3.1.6.2.9.2.3 0 .5-.1.7-.2.2-.1.4-.4.5-.7l-2.5-4.9h1.2l1.6 3.3c.1.3.2.5.3.6 0-.1.1-.2.1-.4l1.5-3.6h1.2zM98.5 65.1h-1.1v-5.7h-2.9v5.7h-1.1v-6.7h5.1v6.7zM104.8 60.5c0 .7-.2 1.2-.7 1.6-.5.4-1.1.6-1.9.6h-.7v2.5h-1.1v-6.7h1.9c.8 0 1.5.2 1.9.5.4.3.6.8.6 1.5zm-3.3 1.2h.6c.6 0 1-.1 1.2-.3.3-.2.4-.5.4-.9s-.1-.7-.4-.9c-.2-.2-.6-.3-1.1-.3h-.8v2.4zM110.1 65.1l-.7-1.8h-2.5l-.7 1.8h-1.1l2.5-6.7h1.2l2.5 6.7h-1.2zm-.9-2.7l-.6-1.8c0-.1-.1-.3-.2-.6s-.1-.5-.2-.6c-.1.4-.2.8-.4 1.2l-.6 1.7h2zM112.5 58.5h2c.9 0 1.6.1 2 .4.4.3.6.7.6 1.3 0 .4-.1.7-.3 1-.2.3-.5.4-.9.5.5.1.8.3 1 .5.2.3.3.6.3 1.1 0 .6-.2 1.1-.6 1.4-.4.3-1 .5-1.7.5h-2.4v-6.7zm1.1 2.7h1c.5 0 .8-.1 1-.2.2-.1.3-.4.3-.7 0-.3-.1-.5-.3-.7-.2-.1-.6-.2-1.1-.2h-.9v1.8zm0 .9v2.1h1.2c.5 0 .8-.1 1-.3.2-.2.3-.5.3-.8 0-.3-.1-.6-.4-.8-.2-.2-.6-.3-1.1-.3h-1zM124.1 65.1H123v-5.7h-1.9c-.2 1.9-.4 3.3-.6 4-.1.7-.3 1.2-.6 1.5-.3.3-.6.4-1 .4-.2 0-.4 0-.6-.1v-.9c.2.1.3.1.5.1s.4-.1.5-.4c.1-.3.3-.8.4-1.7.1-.9.3-2.1.5-3.7h3.9v6.5zM128.2 62.5l-1.7 2.7h-1.2l1.9-2.9c-.9-.3-1.3-.9-1.3-1.9 0-.6.2-1.1.6-1.4.4-.3 1-.5 1.9-.5h2v6.7h-1.1v-2.7h-1.1zm1.1-3.1h-.9c-.5 0-.8.1-1.1.2-.2.2-.4.4-.4.8s.1.6.4.8c.2.2.6.3 1.1.3h.8v-2.1zM136.1 65.1h-3.8v-6.7h3.8v.9h-2.7v1.8h2.5v.9h-2.5v2.1h2.7v1zM140.6 65.1l-1.9-5.6c.1.8.1 1.6.1 2.3V65h-1v-6.7h1.5l1.8 5.3 1.9-5.3h1.5V65h-1v-3.3-1.3-1l-2 5.6h-.9zM150.9 63.1c0 .7-.2 1.2-.6 1.5-.4.3-1.1.5-1.9.5h-1.9v-6.7h1.1v2.7h.8c.8 0 1.5.2 1.9.5.4.4.6.9.6 1.5zm-3.3 1.1h.7c.5 0 .9-.1 1.1-.3.2-.2.4-.5.4-.8 0-.4-.1-.6-.4-.8-.2-.2-.6-.2-1.2-.2h-.7v2.1zm5.3.9h-1.1v-6.7h1.1v6.7zM159.9 65.1h-1.3l-1.7-2.7-1.7 2.7H154l2.2-3.5-2.1-3.2h1.2l1.5 2.5 1.5-2.5h1.2l-2.1 3.2 2.5 3.5zM168.9 65.1l-1.9-5.6c.1.8.1 1.6.1 2.3V65h-1v-6.7h1.5l1.8 5.3 1.9-5.3h1.5V65h-1v-3.3-1.3-1l-2 5.6h-.9zM180.7 61.8c0 1.1-.3 1.9-.8 2.5-.5.6-1.3.9-2.3.9-1 0-1.8-.3-2.3-.9-.5-.6-.8-1.4-.8-2.5s.3-1.9.8-2.5c.5-.6 1.3-.9 2.3-.9 1 0 1.8.3 2.3.9.5.6.8 1.4.8 2.5zm-5.1 0c0 .8.2 1.4.5 1.9.3.4.8.6 1.5.6.6 0 1.1-.2 1.5-.6.3-.4.5-1 .5-1.9 0-.8-.2-1.4-.5-1.9-.3-.4-.8-.6-1.5-.6s-1.1.2-1.5.6c-.3.5-.5 1.1-.5 1.9zM181.5 64.2h.5c.4-.8.8-1.7 1.1-2.7s.5-2 .6-3h3.4v5.7h.9V67h-1v-1.8h-4.4V67h-1v-2.8zm3.1-4.8c-.1.7-.2 1.5-.5 2.4-.3.9-.6 1.7-.9 2.4h2.9v-4.8h-1.5zM193.1 65.1h-3.8v-6.7h3.8v.9h-2.7v1.8h2.5v.9h-2.5v2.1h2.7v1zM200 65.1h-1.1v-5.7H197c-.2 1.9-.4 3.3-.6 4-.1.7-.3 1.2-.6 1.5-.3.3-.6.4-1 .4-.2 0-.4 0-.6-.1v-.9c.2.1.3.1.5.1s.4-.1.5-.4c.1-.3.3-.8.4-1.7.1-.9.3-2.1.5-3.7h3.9v6.5zM205.7 65.1h-3.8v-6.7h3.8v.9H203v1.8h2.5v.9H203v2.1h2.7v1zM207.3 58.5h1V63.9l3.4-5.3h1.3v6.7h-1v-3.4c0-.5 0-1.2.1-1.9l-3.4 5.3h-1.3v-6.8zm2.9-.5c-.6 0-1.1-.1-1.4-.3-.3-.2-.5-.6-.5-1.2h1c0 .2.1.4.1.5l.3.3c.1.1.3.1.6.1s.5-.1.7-.2c.2-.1.2-.3.3-.7h1c0 .5-.2.9-.6 1.1-.4.2-.9.4-1.5.4z"/><path class="st1" d="M107.3 13V0H106c-1.5 0-2.7 1.1-2.8 2.6-1.4.1-3.1.7-4.2.7-.3-.9-1.3-1.5-2.5-1.5-.7 0-3.1 1.1-3.9 1.4-2.8 1.2-2.4 2.4-2.2 3.9-.9.2-2.8 1.8-3.6 2.3-2.5-1.7-3.5-.2-5.2 1.5-1.7 1.7-3.1 2.7-1.5 5.2-.5.7-2.1 2.9-2.3 3.6-1.5-.1-2.7-.6-3.8 2.3-.3.7-.5 1.2-.7 1.9-.4 1-.6 1.1-.6 2.3 0 1.1.7 2.1 1.6 2.3-.2 1-.7 2.8-.7 3.9-1.1.3-2.6 1-2.6 2.3v2.4h13C83.9 24 94.3 13.4 107.3 13zm-2.6 1.8l2.7-.3v16.9c-2.8.3-5.1 2.7-5.1 5.7H85.6c0-11 7.9-20.6 19.1-22.3zm-2.6 2.6c.5 2.9.9 5.8 1.4 8.7.2 1.3.6 5.2 0 6.1-.6.9-4.5.5-5.8.3-3.1-.4-6.2-.9-9.3-1.3 2-6.5 7-11.8 13.7-13.8z"/><path class="st2" d="M108.8 30.1V0c2.2 0 1.9-.2 2.2 1.9l.1.6c18.3 1.4 32.9 16.2 34 34.5-1.5-17.5-19-31.7-33.5-31.4v.2l.5 2.8.2 1.3.2 1.3c12.3 2.1 21.6 12.8 21.6 25.7 0-11.3-10-21.4-21.1-23.2l.5 2.5.4 2.4.1.8.3 1.7c6.3 2.5 10.7 8.6 10.7 15.8 0-5.9-4.7-11.4-10.3-13.7.3 1.5.5 2.4.6 3.1.1.5 0 1.1-.5 1.5-.4.4-.9.9-1.8 1.7l-1.2 1.1-.1.1c2.1 1.3 3.6 3.6 3.6 6.3h-1.7c0-2.5-1.6-4.6-3.9-5.4-.4-.1-.7-.2-1.1-.3l.2-1.2zM18.6 53.5V42.1c0-.3.1-.5.3-.6.2-.2.4-.3.6-.3h3.8c.2 0 .5.1.7.3.2.2.4.4.4.6l2.7 7.8 2.7-7.8c.1-.2.2-.4.4-.6.2-.2.4-.3.7-.3h3.8c.2 0 .4.1.6.3.2.2.2.4.2.6v11.4c0 .3-.1.5-.3.6-.2.2-.4.3-.6.3h-1.7c-.2 0-.5-.1-.6-.3-.2-.1-.3-.3-.3-.6v-9l-3.2 9c-.1.2-.2.4-.4.6-.2.2-.4.2-.7.2h-1.3c-.2 0-.5-.1-.7-.2-.2-.2-.4-.4-.5-.6l-3.2-9v9c0 .3-.1.5-.3.6-.2.2-.4.3-.6.3h-1.7c-.2 0-.5-.1-.6-.3-.1-.1-.2-.3-.2-.6zm81.1 0V42.1c0-.3.1-.5.3-.6.2-.2.4-.3.6-.3h3.8c.2 0 .5.1.7.3.2.2.4.4.4.6l2.7 7.8v4.5h-.7c-.2 0-.5-.1-.7-.2-.2-.2-.4-.4-.5-.6l-3.2-9v9c0 .3-.1.5-.3.6-.2.2-.4.3-.6.3h-1.7c-.2 0-.5-.1-.6-.3-.1-.2-.2-.4-.2-.7zm-61.7 0V42.1c0-.3.1-.5.3-.6.2-.2.4-.2.6-.2h1.7c.2 0 .5.1.6.2.2.2.3.4.3.6v9.2l5.3-9.2c.1-.2.3-.4.6-.6.2-.2.5-.3.7-.3h2.7c.2 0 .4.1.6.3.2.2.3.4.3.6v11.4c0 .2-.1.4-.3.6-.2.2-.4.3-.6.3H49c-.2 0-.5-.1-.6-.3-.2-.2-.3-.4-.3-.6V45l-4.8 8.5c-.1.2-.3.4-.6.6-.3.2-.5.3-.8.3h-3.1c-.2 0-.4-.1-.6-.3-.1-.1-.2-.3-.2-.6zm16 0V42.1c0-.2.1-.4.3-.6.2-.2.4-.3.6-.3h1.7c.2 0 .4.1.6.3.2.2.3.4.3.6v4.4h2c.5 0 1-.1 1.4-.4.4-.3.8-.8 1.2-1.4l1.4-2.5c.3-.6.8-.9 1.3-.9h2.1c.2 0 .4.1.4.3v.1c0 .1-.1.3-.2.5l-2 3.6c-.3.5-.6 1-1 1.3-.4.3-.8.6-1.4.7.4.1.8.3 1.2.8.4.4.8.9 1.1 1.4l2.3 3.6c.1.2.2.3.2.5v.2c-.1.2-.2.2-.4.2H65c-.2 0-.5-.1-.8-.3-.3-.2-.5-.4-.6-.6L62 51c-.4-.6-.8-1.1-1.2-1.4-.4-.3-.9-.5-1.4-.5h-2v4.5c0 .2-.1.4-.3.6-.2.2-.4.2-.6.2h-1.7c-.2 0-.4-.1-.6-.3-.1-.2-.2-.4-.2-.6zm14.9 0V42.1c0-.2.1-.4.2-.6.2-.2.4-.3.6-.3h7c3.7 0 5.5 1.7 5.5 5.1 0 3.4-1.8 5.1-5.5 5.1h-4.4v2.1c0 .2-.1.4-.3.6-.2.2-.4.3-.6.3h-1.7c-.2 0-.4-.1-.6-.3-.1-.1-.2-.3-.2-.6zm3.5-4.6h3.3c1 0 1.8-.2 2.3-.5.5-.3.8-1 .8-2s-.3-1.7-.8-2c-.5-.3-1.3-.5-2.3-.5h-3.3v5zM85.1 53c-1.3-1.1-1.9-2.8-1.9-5.2 0-2.4.6-4.1 1.9-5.2 1.3-1.1 3.1-1.6 5.5-1.6s4.3.5 5.5 1.6c1.2 1.1 1.9 2.8 1.9 5.2 0 2.4-.6 4.1-1.9 5.2-1.2 1.1-3.1 1.6-5.5 1.6-2.4.1-4.2-.5-5.5-1.6zm2.5-8.5c-.6.7-.9 1.8-.9 3.3 0 1.5.3 2.5.9 3.3.6.7 1.6 1.1 3 1.1s2.4-.4 3-1.1c.6-.7.9-1.8.9-3.3 0-1.5-.3-2.5-.9-3.3-.6-.7-1.6-1.1-3-1.1s-2.4.4-3 1.1z"/><path class="st1" d="M108.1 49.9l2.7-7.8c.1-.2.2-.4.4-.6.2-.2.4-.3.7-.3h3.8c.2 0 .4.1.6.3.2.2.2.4.2.6v11.4c0 .3-.1.5-.3.6-.2.2-.4.3-.6.3H114c-.2 0-.5-.1-.6-.3-.2-.2-.3-.4-.3-.6v-9l-3.2 9c-.1.2-.2.4-.4.6-.2.2-.4.2-.7.2h-.7v-4.4m12.1 3.1c-1.3-1.1-1.9-2.8-1.9-5.2 0-2.4.6-4.1 1.9-5.2 1.3-1.1 3.1-1.6 5.5-1.6s4.3.5 5.5 1.6c1.2 1.1 1.9 2.8 1.9 5.2 0 2.4-.6 4.1-1.9 5.2-1.2 1.1-3.1 1.6-5.5 1.6-2.4.1-4.2-.5-5.5-1.6zm2.5-8.5c-.6.7-.9 1.8-.9 3.3 0 1.5.3 2.5.9 3.3.6.7 1.6 1.1 3 1.1s2.4-.4 3-1.1c.6-.7.9-1.8.9-3.3 0-1.5-.3-2.5-.9-3.3-.6-.7-1.6-1.1-3-1.1s-2.4.4-3 1.1zm10.4 9v-.9c0-.2.1-.4.3-.6.2-.2.4-.2.6-.2h.7l1.7-6.9c.6-2.4 2.6-3.6 6-3.6h5c.2 0 .4.1.6.2.2.2.3.4.3.6v11.5c0 .2-.1.4-.3.6-.2.2-.4.2-.6.2H134c-.2 0-.4-.1-.6-.3-.2-.1-.3-.3-.3-.6zm5.1-1.7h6.5v-8H142c-.6 0-1 .2-1.4.5-.4.3-.6.8-.8 1.3l-1.6 6.2zm12.6 1.7V42.1c0-.2.1-.4.3-.6.2-.2.4-.2.6-.2h10.6c.2 0 .4.1.6.3.2.2.3.4.3.6v.8c0 .2-.1.4-.3.6-.2.2-.4.3-.6.3h-8v2.7h6.9c.2 0 .4.1.6.3.2.2.3.4.3.6v.9c0 .2-.1.4-.3.6-.2.2-.4.3-.6.3h-6.9V52h8c.2 0 .4.1.6.2.2.2.2.4.2.6v.9c0 .2-.1.4-.3.6-.2.2-.4.3-.6.3h-10.5c-.2 0-.4-.1-.6-.3-.2-.3-.3-.5-.3-.8zm12.9.1l2.3-8.8c.6-2.4 2.7-3.6 6.1-3.6h4.6c.2 0 .4.1.5.3.2.2.2.4.2.6v11.4c0 .2-.1.4-.2.6-.2.2-.4.3-.6.3h-1.8c-.2 0-.4-.1-.6-.3-.2-.2-.3-.4-.3-.6v-9.7h-2.2c-.6 0-1.1.2-1.5.5-.4.3-.7.8-.9 1.3l-2.1 7.8c-.1.3-.2.5-.4.6-.2.2-.4.2-.7.2h-1.9c-.2 0-.4-.1-.5-.2-.1-.1-.1-.2-.1-.4.1.1.1.1.1 0zm16.4-.1V42.1c0-.3.1-.5.3-.6.2-.2.4-.2.6-.2h1.7c.2 0 .5.1.6.2.2.2.3.4.3.6v9.2l5.3-9.2c.1-.2.3-.4.6-.6.2-.2.5-.3.7-.3h2.7c.2 0 .4.1.6.3.2.2.3.4.3.6v11.4c0 .2-.1.4-.3.6-.2.2-.4.3-.6.3h-1.7c-.2 0-.5-.1-.6-.3-.2-.2-.3-.4-.3-.6V45l-4.8 8.5c-.1.2-.3.4-.6.6-.3.2-.5.3-.8.3H181c-.2 0-.4-.1-.6-.3-.2-.1-.3-.3-.3-.6z"/></g></switch></svg>