<?xml version="1.0" encoding="utf-8"?>
<!-- Generator: Adobe Illustrator 16.0.0, SVG Export Plug-In . SVG Version: 6.00 Build 0)  -->
<!DOCTYPE svg PUBLIC "-//W3C//DTD SVG 1.1//EN" "http://www.w3.org/Graphics/SVG/1.1/DTD/svg11.dtd">
<svg version="1.1" id="Big_1_" xmlns="http://www.w3.org/2000/svg" xmlns:xlink="http://www.w3.org/1999/xlink" x="0px" y="0px"
	 width="125px" height="57px" viewBox="0 0 125 57" enable-background="new 0 0 125 57" xml:space="preserve">
<g id="Big">
	<g>
		<path fill-rule="evenodd" clip-rule="evenodd" fill="#346CAB" d="M124.785,34.113c0,0-0.459-0.665-0.663-2.29
			c-0.252-2.038-1.852-3.779-2.845-4.5c-0.439-1.512-2.797-5.397-15.164-7.8c-8.723-1.694-11.58-2.724-12.485-3.154l-0.507-0.463
			C92.41,15.242,75.12-0.424,53.122,0.009C38.018,0.327,27.94,2.375,22.531,3.471c-2.096,0.424-3.618,0.731-4.376,0.731
			c-0.361-0.029-0.526-0.039-0.684-0.039c-1.042,0-1.657,0.462-1.979,0.856c-0.691,0.837-0.721,2.038-0.574,3.03
			c-0.389,0.385-1.315,1.126-2.085,1.741c-3.139,2.499-5.584,4.547-6.16,6.191c-0.087,0.241-0.155,0.298-0.155,0.298
			c-0.195,0-0.322-0.017-0.449-0.026c-0.194-0.021-0.389-0.04-0.594-0.04c-1.979,0-2.565,1.896-2.837,3.319
			c-0.379,2.038-0.574,4.404-0.751,6.489c-0.195,2.356-0.419,5.021-0.858,5.705c-0.808,1.261-1.968,7.194,0.305,11.579
			c1.325,2.567,3.615,4.153,6.664,4.646c-0.047-0.348-0.087-0.694-0.107-1.039c-0.007-0.251-0.037-0.49-0.037-0.741
			c0-0.096,0.02-0.191,0.02-0.288c0.165-6.926,5.906-12.512,12.961-12.512c7.153,0,12.972,5.741,12.972,12.8
			c0,0.241-0.028,0.461-0.038,0.692c-0.02,0.337-0.04,0.664-0.09,0.982c-0.037,0.334-0.087,0.662-0.155,0.979
			c15.963,0.403,36.577,0.856,52.784,1.191c-0.106-0.315-0.194-0.652-0.262-0.989c-0.08-0.318-0.138-0.652-0.187-0.98
			c-0.098-0.615-0.155-1.23-0.155-1.876c0-7.059,5.818-12.8,12.972-12.8c7.152,0,12.971,5.741,12.971,12.8
			c0,0.827-0.087,1.625-0.231,2.405c-0.07,0.335-0.147,0.652-0.235,0.98c-0.097,0.327-0.204,0.654-0.321,0.972
			c1.15,0.027,1.821,0.037,1.892,0.037c-0.051,0,1.247,0.173,2.961,0.173c5.392,0,8.598-1.605,9.269-4.663L125,45.874V34.382
			L124.785,34.113z M98.676,35.344c-6.061,0-10.973,4.846-10.973,10.828c0,0.655,0.066,1.288,0.174,1.913
			c0.067,0.337,0.137,0.665,0.234,0.992c0.098,0.335,0.205,0.662,0.332,0.99C90.03,54.124,94.008,57,98.676,57
			c4.513,0,8.383-2.681,10.066-6.51c0.147-0.317,0.265-0.645,0.372-0.982c0.107-0.314,0.194-0.643,0.272-0.97
			c0.167-0.761,0.264-1.559,0.264-2.366C109.65,40.189,104.738,35.344,98.676,35.344z M20.834,35.344
			c-6.053,0-10.965,4.836-10.973,10.809c0,0-0.01,0.01-0.01,0.02c0,0.327,0.027,0.646,0.058,0.963c0.03,0.335,0.077,0.672,0.137,1
			C10.982,53.174,15.456,57,20.834,57c5.145,0,9.463-3.499,10.644-8.221c0.078-0.317,0.145-0.645,0.195-0.982
			c0.047-0.317,0.087-0.645,0.107-0.979c0.01-0.212,0.027-0.424,0.027-0.646C31.808,40.189,26.897,35.344,20.834,35.344z"/>
	</g>
</g>
</svg>
