<?xml version="1.0" encoding="UTF-8" standalone="no"?>
<svg
   xmlns:dc="http://purl.org/dc/elements/1.1/"
   xmlns:cc="http://creativecommons.org/ns#"
   xmlns:rdf="http://www.w3.org/1999/02/22-rdf-syntax-ns#"
   xmlns:svg="http://www.w3.org/2000/svg"
   xmlns="http://www.w3.org/2000/svg"
   version="1.1"
   x="0px"
   y="0px"
   width="136px"
   height="92px"
   viewBox="0 0 134 90"
   enable-background="new 0 0 134 90"
   xml:space="preserve"
   id="svg3762"><metadata
     id="metadata3768"><rdf:RDF><cc:Work
         rdf:about=""><dc:format>image/svg+xml</dc:format><dc:type
           rdf:resource="http://purl.org/dc/dcmitype/StillImage" /><dc:title></dc:title></cc:Work></rdf:RDF></metadata><defs
     id="defs3766" /><g
     id="lev-beginner-1_1_"
     enable-background="new    "
     transform="translate(0.6513561,-0.10855935)"><g
       id="lev-beginner-1"><g
         id="g3746"><path
           d="M 36,45 H 2 c -1.104,0 -2,0.896 -2,2 v 41 c 0,1.104 0.896,2 2,2 h 34 c 1.104,0 2,-0.896 2,-2 V 47 c 0,-1.104 -0.896,-2 -2,-2 z"
           id="path3744"
           style="clip-rule:evenodd;fill:#346cab;fill-rule:evenodd;stroke:#346cab" /></g></g></g><g
     style="fill:none"
     id="lev-beginner-2_1_"
     enable-background="new    "
     transform="translate(0,-0.6513561)"><g
       style="fill:none;stroke:#346cab;stroke-width:1.97058821;stroke-miterlimit:4;stroke-dasharray:none;stroke-opacity:1"
       id="lev-beginner-2"><g
         style="fill:none;stroke:#346cab;stroke-width:1.97058821;stroke-miterlimit:4;stroke-dasharray:none;stroke-opacity:1"
         id="g3752"><path
           d="M 84,25 H 50 c -1.104,0 -2,0.896 -2,2 v 61 c 0,1.104 0.896,2 2,2 h 34 c 1.104,0 2,-0.896 2,-2 V 27 c 0,-1.104 -0.896,-2 -2,-2 z"
           id="path3750"
           style="clip-rule:evenodd;fill:none;fill-rule:evenodd;stroke:#346cab;stroke-width:1.97058821;stroke-miterlimit:4;stroke-dasharray:none;stroke-opacity:1" /></g></g></g><g
     style="fill:none;stroke-width:1.97608876;stroke-miterlimit:4;stroke-dasharray:none"
     id="lev-beginner-3_1_"
     enable-background="new    "
     transform="matrix(0.98635401,0,0,0.98635401,0.8636544,0.5889084)"><g
       style="fill:none;stroke-width:1.97608876;stroke-miterlimit:4;stroke-dasharray:none"
       id="lev-beginner-3"><g
         style="fill:none;stroke-width:1.97608876;stroke-miterlimit:4;stroke-dasharray:none"
         id="g3758"><path
           d="M 132,0 H 98 c -1.104,0 -2,0.896 -2,2 v 86 c 0,1.104 0.896,2 2,2 h 34 c 1.104,0 2,-0.896 2,-2 V 2 c 0,-1.104 -0.896,-2 -2,-2 z"
           id="path3756"
           style="clip-rule:evenodd;fill:none;fill-rule:evenodd;stroke:#346cab;stroke-width:1.97608876;stroke-miterlimit:4;stroke-dasharray:none" /></g></g></g></svg>