<?xml version="1.0" encoding="utf-8"?>
<!-- Generator: Adobe Illustrator 16.0.0, SVG Export Plug-In . SVG Version: 6.00 Build 0)  -->
<!DOCTYPE svg PUBLIC "-//W3C//DTD SVG 1.1//EN" "http://www.w3.org/Graphics/SVG/1.1/DTD/svg11.dtd">
<svg version="1.1" id="Big_1_" xmlns="http://www.w3.org/2000/svg" xmlns:xlink="http://www.w3.org/1999/xlink" x="0px" y="0px"
	 width="125px" height="49px" viewBox="0 0 125 49" enable-background="new 0 0 125 49" xml:space="preserve">
<g id="Big">
	<g>
		<path fill-rule="evenodd" clip-rule="evenodd" fill="#346CAB" d="M120.319,26.355L7.28,39.383
			c-0.648,0.074-1.071,0.734-0.879,1.372l2.254,7.493C8.791,48.695,9.193,49,9.651,49h67.434c19.909,0,37.014-8.688,44.238-21.015
			C121.773,27.219,121.188,26.256,120.319,26.355z M124.311,13.325c-0.439-0.403-1.022-0.597-1.614-0.533l-28.64,3.137
			c-0.375,0.042-0.741-0.126-0.96-0.441C91.271,12.854,82.947,0.889,82.947,0.889c-0.41-0.588-1.092-0.897-1.794-0.891L37.405,2.129
			c-0.75,0.036-1.423,0.483-1.763,1.169c-0.337,0.685-0.29,1.503,0.127,2.142l3.642,5.587c0.115,0.175,0.175,0.379,0.175,0.59v9.326
			c0,0.543-0.402,1.001-0.931,1.057l-8.333,0.914c-0.614,0.067-1.152-0.427-1.152-1.06V18.56c0-0.532,0.387-0.984,0.904-1.055
			l3.538-0.481c1.14-0.155,1.944-1.229,1.79-2.395s-1.214-1.981-2.342-1.83L1.81,17.06c-0.606,0.083-1.146,0.435-1.477,0.964
			c-0.329,0.525-0.417,1.176-0.237,1.774L4.53,34.537c0.148,0.49,0.615,0.804,1.113,0.746L123.342,21.72
			c0.432-0.051,0.798-0.364,0.906-0.795C124.74,18.974,125,16.962,125,14.91C125,14.305,124.748,13.729,124.311,13.325z
			 M12.503,23.91c0,0.543-0.402,1.001-0.929,1.059l-4.531,0.496c-0.496,0.054-0.96-0.26-1.106-0.745l-0.773-2.565
			c-0.189-0.631,0.221-1.282,0.858-1.37l5.302-0.723c0.625-0.085,1.179,0.414,1.179,1.058V23.91z M25.003,22.493
			c0,0.539-0.394,0.995-0.919,1.057c-1.938,0.234-6.262,0.733-6.262,0.733c-0.615,0.067-1.152-0.427-1.152-1.06v-2.959
			c0-0.533,0.388-0.984,0.904-1.057l6.25-0.853c0.625-0.085,1.179,0.413,1.179,1.057V22.493z M61.438,19.506l-16.533,1.812
			c-0.614,0.067-1.152-0.427-1.152-1.06v-9.931c0-0.211-0.061-0.418-0.175-0.592l-1.281-1.961c-0.45-0.69,0.008-1.617,0.817-1.655
			l16.479-0.803c0.538-0.026,1.006,0.37,1.082,0.913l1.685,12.066C62.441,18.893,62.022,19.442,61.438,19.506z M86.966,16.706
			c0,0-15.271,1.643-19.335,2.063c-0.557,0.058-1.046-0.345-1.125-0.909L64.881,6.222C64.793,5.6,65.25,5.037,65.862,5.007
			l13.787-0.671c0.354-0.018,0.691,0.151,0.897,0.445l7.156,10.246C88.166,15.692,87.758,16.619,86.966,16.706z"/>
	</g>
</g>
</svg>
