<?xml version="1.0" encoding="utf-8"?>
<!-- Generator: Adobe Illustrator 16.0.0, SVG Export Plug-In . SVG Version: 6.00 Build 0)  -->
<!DOCTYPE svg PUBLIC "-//W3C//DTD SVG 1.1//EN" "http://www.w3.org/Graphics/SVG/1.1/DTD/svg11.dtd">
<svg version="1.1" id="ДВС_1_" xmlns="http://www.w3.org/2000/svg" xmlns:xlink="http://www.w3.org/1999/xlink" x="0px" y="0px"
	 width="74px" height="95px" viewBox="0 0 74 95" enable-background="new 0 0 74 95" xml:space="preserve">
<g id="ДВС">
	<g>
		<path fill-rule="evenodd" clip-rule="evenodd" fill="#346CAB" d="M72.973,16.502L62.726,6.248
			c-0.663-0.663-1.563-1.035-2.501-1.035c-0.937,0-1.836,0.372-2.499,1.035l-2.712,2.714c-1.381,1.381-1.381,3.62,0,5.001
			l10.249,10.252c0.663,0.663,1.563,1.035,2.499,1.035c0.936,0,1.836-0.372,2.498-1.035l2.713-2.714
			C74.353,20.12,74.353,17.881,72.973,16.502z M48.129,12.748c-0.666-0.663-1.563-1.036-2.5-1.036h-5.737V9.661
			c0-5.328-4.332-9.662-9.66-9.662H15.313c-5.326,0-9.658,4.334-9.658,9.662v2.051H5.192C2.331,11.712,0,14.044,0,16.907v72.898
			c0,2.866,2.328,5.195,5.192,5.195h57.933c2.865,0,5.193-2.329,5.193-5.195V34.413c0-0.937-0.373-1.836-1.035-2.499L48.129,12.748z
			 M32.824,11.712H12.722V9.661c0-1.429,1.162-2.592,2.591-2.592h14.922c1.429,0,2.59,1.163,2.59,2.592V11.712z"/>
	</g>
</g>
</svg>
