<?xml version="1.0" encoding="utf-8"?>
<!-- Generator: Adobe Illustrator 16.0.0, SVG Export Plug-In . SVG Version: 6.00 Build 0)  -->
<!DOCTYPE svg PUBLIC "-//W3C//DTD SVG 1.1//EN" "http://www.w3.org/Graphics/SVG/1.1/DTD/svg11.dtd">
<svg version="1.1" id="electro_1_" xmlns="http://www.w3.org/2000/svg" xmlns:xlink="http://www.w3.org/1999/xlink" x="0px" y="0px"
	 width="88px" height="86px" viewBox="0 0 88 86" enable-background="new 0 0 88 86" xml:space="preserve">
<g id="electro">
	<g>
		<path fill-rule="evenodd" clip-rule="evenodd" fill="#346CAB" d="M36.215,17.174h-1.193c-1.399,0-2.524,1.042-2.524,2.316v9.82
			h6.25v-9.82C38.739,18.216,37.614,17.174,36.215,17.174z M52.97,17.174h-1.19c-1.401,0-2.535,1.042-2.535,2.316v9.82h6.25v-9.82
			C55.494,18.216,54.369,17.174,52.97,17.174z M43.997,0.01c-24.265,0-44.008,19.729-44.008,43.975
			c0,11.707,4.552,22.726,12.815,31.022c4.891,4.913,10.944,8.645,17.509,10.788C30.752,85.935,31.199,86,31.629,86
			c1.787,0,3.444-1.133,4.031-2.921c0.729-2.224-0.487-4.614-2.715-5.334c-5.29-1.73-10.183-4.748-14.131-8.71
			C12.141,62.332,8.466,53.439,8.466,43.984c0-19.581,15.943-35.504,35.531-35.504c19.595,0,35.528,15.923,35.528,35.504
			c0,9.489-3.691,18.398-10.396,25.1c-2.574,2.316-8.965,6.956-12.798,6.956c-1.971,0-3.444-0.62-4.637-1.952
			c-3.037-3.374-3.7-10.216-3.675-14.973c7.359-0.373,13.211-6.436,13.211-13.873V32.057H26.762v13.186
			c0,7.296,5.62,13.27,12.772,13.848c-0.041,5.676,0.754,14.98,5.836,20.64c2.798,3.128,6.589,4.781,10.961,4.781
			c8.204,0,17.532-8.28,18.568-9.223l0.14-0.125c8.361-8.313,12.964-19.39,12.964-31.179C88.003,19.738,68.26,0.01,43.997,0.01z"/>
	</g>
</g>
</svg>
