<?xml version="1.0" encoding="utf-8"?>
<!-- Generator: Adobe Illustrator 16.0.0, SVG Export Plug-In . SVG Version: 6.00 Build 0)  -->
<!DOCTYPE svg PUBLIC "-//W3C//DTD SVG 1.1//EN" "http://www.w3.org/Graphics/SVG/1.1/DTD/svg11.dtd">
<svg version="1.1" id="Big_1_" xmlns="http://www.w3.org/2000/svg" xmlns:xlink="http://www.w3.org/1999/xlink" x="0px" y="0px"
	 width="115px" height="65px" viewBox="0 0 115 65" enable-background="new 0 0 115 65" xml:space="preserve">
<g id="Big">
	<g>
		<path fill-rule="evenodd" clip-rule="evenodd" fill="#346CAB" d="M112.043,55.074v0.327c-1.356,0-2.456,1.113-2.456,2.487
			c0,1.179-0.949,2.137-2.113,2.137H96.525v-6.687h5.196c4.637,0,8.938-2.448,11.347-6.459c2.409-4.009,2.578-9,0.445-13.167
			C109.877,26.61,99.227,14.59,82.367,14.59h-6.826V5.446c0,0,27.083-0.244,27.896-0.142c0.101,0.011,0.2,0.018,0.301,0.018
			c2.341,0,4.246,0.036,4.246-2.334c0-2.369-1.905-2.988-4.246-2.988H42.365c-2.341,0-4.247,0.619-4.247,2.988
			c0,2.37,1.906,2.334,4.247,2.334c0.1,0,0.201-0.007,0.299-0.018c0.817-0.103,27.962,0.133,27.962,0.133v9.152H57.776
			c-2.81,0-8.378,5.15-10.571,6.718H11.2l-4.434-7.249c-1.839-2.368-2.486-2.368-4.54-2.311c-2.975,0.084-2.113,3.667-2.113,6.68
			l0.647,5.693c0,3.903,3.126,7.067,6.983,7.067H44.87c0.653,2.729,2.144,5.249,4.371,7.14l13.966,11.863
			c2.392,2.032,5.415,3.147,8.538,3.147h4.523v6.687H65.881c-1.357,0-2.457,1.113-2.457,2.486c0,1.374,1.1,2.487,2.457,2.487h41.593
			c3.874,0,7.026-3.19,7.026-7.111C114.5,56.515,113.4,55.074,112.043,55.074z M91.612,60.025H81.182v-6.687h10.431V60.025z"/>
	</g>
</g>
</svg>
