<?xml version="1.0" encoding="utf-8"?>
<!-- Generator: Adobe Illustrator 16.0.0, SVG Export Plug-In . SVG Version: 6.00 Build 0)  -->
<!DOCTYPE svg PUBLIC "-//W3C//DTD SVG 1.1//EN" "http://www.w3.org/Graphics/SVG/1.1/DTD/svg11.dtd">
<svg version="1.1" id="_x32__1_" xmlns="http://www.w3.org/2000/svg" xmlns:xlink="http://www.w3.org/1999/xlink" x="0px" y="0px"
	 width="115px" height="71px" viewBox="0 0 115 71" enable-background="new 0 0 115 71" xml:space="preserve">
<g id="_x32_">
	<g>
		<path fill-rule="evenodd" clip-rule="evenodd" fill="#346CAB" d="M113.168,46.698c1.735,0.824,2.276-0.729,1.201-2.169
			c0,0-5.156-9.361-19.494-7.426l4.361-4.031c0.316-0.293,0.529-0.685,0.604-1.112c0.188-1.097,0.32-2.158,0.404-3.187h-3.529
			c-3.008-5.069,2.321-8.568,2.321-8.568c0.413,0.469,0.742,0.974,1.006,1.491c-0.993-6.685-4.16-11.462-7.145-14.6
			c-4.661-4.902-9.799-6.889-10.015-6.971C82.657,0.04,82.425,0,82.193,0c-0.564,0-1.115,0.245-1.494,0.698
			c-0.533,0.636-0.609,1.542-0.19,2.26c2.009,3.444,3.02,5.97,3.464,7.817l-2.908-0.531c-1.007-0.184-1.973,0.489-2.156,1.503
			c-0.183,1.014,0.486,1.985,1.493,2.169l3.61,0.661c-0.054,0.136-0.11,0.255-0.17,0.359c-0.818,1.438-2.92,1.594-3.785,1.594
			c-0.146,0-0.264-0.004-0.348-0.01c-7.545-2.129-12.994-2.981-13.225-3.017c-0.005-0.002-0.012-0.003-0.016-0.003
			c-0.99-0.146-1.971-0.218-2.916-0.218c-4.668,0-8.795,1.791-11.936,5.18c-1.293,1.396-2.17,2.8-2.705,3.798
			c-8.165-1.07-12.591-5.682-12.631-5.725c-0.371-0.399-0.887-0.626-1.429-0.626h-0.018l-21.667,0.197
			c-0.753,0.008-1.436,0.45-1.753,1.139l-1.176,2.553c-0.452,0.979-0.034,2.141,0.934,2.603l2.044,0.975h-2.346
			c-0.863,0-1.562,0.703-1.562,1.57c0,0.869,0.699,1.572,1.562,1.572h1.003L5.562,34.06c-0.555,0.663-0.47,1.655,0.189,2.214
			c0.293,0.248,0.649,0.37,1.005,0.37c0.445,0,0.887-0.191,1.195-0.56l8.005-9.565h1.596l3.474,8.059l13.532,5.648v2.724
			l-4.32,1.861c-2.999-4.35-7.994-7.206-13.643-7.206C7.445,37.604,0,45.096,0,54.303C0,63.509,7.445,71,16.595,71
			c9.151,0,16.595-7.49,16.595-16.697c0-0.73-0.052-1.449-0.143-2.154l4.315-1.859L44.6,57.57c0.377,0.38,0.877,0.575,1.381,0.575
			c0.378,0,0.759-0.109,1.09-0.335L65.033,45.63c0.074-0.051,0.146-0.106,0.215-0.168c5.235-4.74,12.886-5.736,18.381-5.736
			c0.823,0,1.598,0.023,2.306,0.06c-6.776,7.42-16.276,6.497-16.276,6.497l-8.004,6.003h20.277
			c-0.079,0.661-0.125,1.334-0.125,2.018C81.807,63.509,89.252,71,98.402,71s16.595-7.49,16.595-16.697
			C114.997,51.564,114.335,48.98,113.168,46.698z M16.595,63.143c-4.845,0-8.785-3.967-8.785-8.84c0-4.875,3.94-8.84,8.785-8.84
			c2.408,0,4.592,0.98,6.181,2.563l-7.198,3.102l3.075,7.223l6.646-2.864C24.722,59.803,21.041,63.143,16.595,63.143z
			 M34.558,35.972l-10.577-4.415l-1.653-3.834l12.229,5.834V35.972z M98.402,63.143c-4.845,0-8.785-3.967-8.785-8.84
			c0-1.776,0.523-3.432,1.425-4.818l3.36,6.971l7.026-3.43l-3.635-7.539c0.2-0.015,0.403-0.023,0.608-0.023
			c4.844,0,8.785,3.965,8.785,8.84C107.188,59.176,103.246,63.143,98.402,63.143z"/>
	</g>
</g>
</svg>
