<?xml version="1.0" encoding="utf-8"?>
<!-- Generator: Adobe Illustrator 16.0.0, SVG Export Plug-In . SVG Version: 6.00 Build 0)  -->
<!DOCTYPE svg PUBLIC "-//W3C//DTD SVG 1.1//EN" "http://www.w3.org/Graphics/SVG/1.1/DTD/svg11.dtd">
<svg version="1.1" id="_x31__1_" xmlns="http://www.w3.org/2000/svg" xmlns:xlink="http://www.w3.org/1999/xlink" x="0px" y="0px"
	 width="103px" height="65px" viewBox="0 0 103 65" enable-background="new 0 0 103 65" xml:space="preserve">
<g id="_x31_">
	<g>
		<path fill-rule="evenodd" clip-rule="evenodd" fill="#346CAB" d="M94.439,31.261c1.884-0.778,2.27-4.035-0.224-4.676
			c-1.9-0.496-3.839-0.648-5.756-0.505c4.146-3.825,6.093-6.826,3.056-7.493c-2.647-0.577-4.811-1.596-6.751-2.661
			c0.521-6.547,1.05-16.085-8.032-15.923c-3.166,0.056-3.172,4.988,0,4.933c4.01-0.072,3.826,4.708,3.409,8.423
			c-3.279-1.622-6.509-2.224-11.335,0.817c-9.578,6.025-27.365,5.471-41.591-1.099c-14.228-6.568-14.501-1.645-14.501-1.645
			s-15.34,21.763-4.921,13.42c3.798-3.04,9.427-2.655,15.583-0.522c-7.071-1.41-15.158,0.61-21.226,6.379
			c-1.539,1.46-0.497,3.488,1.048,4.035c-2.019,2.942-3.205,6.497-3.205,10.339c0,10.091,8.175,18.271,18.258,18.271
			c10.028,0,18.156-8.076,18.26-18.087c1.346,0.177,2.781-0.602,2.678-2.343c-0.361-5.791-2.581-10.309-5.86-13.491
			c0.072-0.138,0.136-0.273,0.209-0.411c6.484,3.618,12.784,8.143,17.489,11.777c-0.08,0.104-0.16,0.207-0.224,0.328
			c-0.546,1.099-1.092,2.189-1.635,3.29c-0.602,1.201-0.337,2.661,0.882,3.367c1.098,0.651,2.764,0.32,3.365-0.883l1.499-3.006
			c2.517,2.053,4.039,3.408,4.039,3.408s1.547-0.971,3.984-2.559c-0.217,1.065-0.344,2.173-0.361,3.313
			c-0.041,2.415,2.789,2.983,4.176,1.733C68.213,58.422,75.701,65,84.742,65C94.825,65,103,56.818,103,46.72
			C103,40.206,99.578,34.493,94.439,31.261z M18.252,58.431c-7.35,0-13.337-5.992-13.337-13.348c0-7.363,5.987-13.348,13.337-13.348
			c2.462,0,4.754,0.682,6.734,1.844c-2.501,3.657-5.284,7.148-8.265,10.478c-2.116,2.357,1.354,5.854,3.48,3.488
			c3.053-3.408,5.922-6.972,8.52-10.717c1.795,2.279,2.869,5.134,2.869,8.255C31.59,52.438,25.611,58.431,18.252,58.431z
			 M81.728,33.731c0.089,2.022,0.177,4.052,0.304,6.072c-1.338-1.54-2.756-3.015-4.189-4.483
			C79.027,34.598,80.332,34.054,81.728,33.731z M84.742,60.075c-7.358,0-13.338-5.992-13.338-13.348c0-3.074,1.049-5.897,2.797-8.15
			c3.431,3.506,6.773,7.066,9.024,11.543c1.37,2.719,4.876,0.649,4.506-1.894c-0.706-4.877-0.946-9.786-1.139-14.702
			c6.476,0.905,11.487,6.472,11.487,13.203C98.08,54.083,92.092,60.075,84.742,60.075z"/>
	</g>
</g>
</svg>
