<?xml version="1.0" encoding="utf-8"?>
<!-- Generator: Adobe Illustrator 16.0.0, SVG Export Plug-In . SVG Version: 6.00 Build 0)  -->
<!DOCTYPE svg PUBLIC "-//W3C//DTD SVG 1.1//EN" "http://www.w3.org/Graphics/SVG/1.1/DTD/svg11.dtd">
<svg version="1.1" id="_x31__1_" xmlns="http://www.w3.org/2000/svg" xmlns:xlink="http://www.w3.org/1999/xlink" x="0px" y="0px"
	 width="125px" height="67px" viewBox="0 0 125 67" enable-background="new 0 0 125 67" xml:space="preserve">
<g id="_x31_">
	<g>
		<path fill-rule="evenodd" clip-rule="evenodd" fill="#346CAB" d="M91.486,41.402c-7.065,0-12.815,5.742-12.815,12.799
			S84.42,67,91.486,67c7.065,0,12.814-5.742,12.814-12.799S98.552,41.402,91.486,41.402z M91.486,60.92
			c-3.709,0-6.728-3.014-6.728-6.72c0-3.704,3.019-6.719,6.728-6.719s6.728,3.015,6.728,6.719
			C98.214,57.906,95.195,60.92,91.486,60.92z M28.327,41.228c-7.067,0-12.815,5.74-12.815,12.798
			c0,7.059,5.748,12.799,12.815,12.799s12.816-5.74,12.816-12.799C41.143,46.968,35.394,41.228,28.327,41.228z M28.327,60.744
			c-3.709,0-6.728-3.014-6.728-6.719c0-3.704,3.018-6.72,6.728-6.72s6.729,3.016,6.729,6.72
			C35.055,57.73,32.036,60.744,28.327,60.744z M124.905,43.177l-0.05-4.021c-0.053-3.578,0.148-7.265-2.831-9.252
			c-4.58-3.056-12.292-5.605-26.419-5.47c-2.8,0.026-9.369-9.373-12.598-15.132C78.428,1.127,72.965,0,67.744,0H15.512
			c-5.14,0-7.262,5.091-7.667,7.783L7.829,7.904L7.747,8.711H6.279c-2.908,0-5.265,2.354-5.265,5.258v14.196
			c0,1.392,0.545,2.652,1.428,3.59c-3.98,9.415-4.685,20.836,10.361,21.789c0.256-8.332,7.118-15.034,15.523-15.034
			c8.419,0,15.291,6.726,15.524,15.08h32.204c0.322-8.226,7.119-14.816,15.432-14.816c8.303,0,15.095,6.578,15.431,14.79
			c0.974-0.018,5.177-0.069,10.941-0.342c2.287-0.108,5.658-2.671,6.78-5.664C125.154,46.184,124.927,44.646,124.905,43.177z
			 M29.63,24.196c-7.653-0.03-14.073-0.055-18.172-0.069l2.127-17.176c0.067-0.348,0.163-1.693,1.927-1.693H29.63V24.196z
			 M55.989,24.295c-7.768-0.03-15.45-0.058-22.359-0.085V5.258h22.359V24.295z M69.104,32.707h-5.561
			c-0.723,0-1.309-0.584-1.309-1.306c0-0.723,0.586-1.307,1.309-1.307h5.561c0.722,0,1.309,0.584,1.309,1.307
			C70.413,32.123,69.826,32.707,69.104,32.707z M59.989,24.31V5.258h7.755c3.812,0,7.244,0.497,10.67,6.611
			c2.423,4.324,7.123,9.305,8.886,12.542C79.113,24.382,69.578,24.346,59.989,24.31z"/>
	</g>
</g>
</svg>
