<?xml version="1.0" encoding="utf-8"?>
<!-- Generator: Adobe Illustrator 16.0.0, SVG Export Plug-In . SVG Version: 6.00 Build 0)  -->
<!DOCTYPE svg PUBLIC "-//W3C//DTD SVG 1.1//EN" "http://www.w3.org/Graphics/SVG/1.1/DTD/svg11.dtd">
<svg version="1.1" id="_x32__1_" xmlns="http://www.w3.org/2000/svg" xmlns:xlink="http://www.w3.org/1999/xlink" x="0px" y="0px"
	 width="125px" height="36px" viewBox="0 0 125 36" enable-background="new 0 0 125 36" xml:space="preserve">
<g id="_x32_">
	<g>
		<path fill-rule="evenodd" clip-rule="evenodd" fill="#346CAB" d="M122.613,31.426c1.289-4.259,0.948-7.854-1.018-10.687
			c-3.756-5.377-12.087-6.072-13.675-6.15l-3.116-1.664l-0.2-0.081c-3.464-0.979-16.489-1.376-18.448-1.435
			c-3.076-1.506-5.633-2.911-7.891-4.161C70.337,2.883,65.103,0,50.122,0C31.962,0,17.15,7.804,15.164,8.894
			c-1.079,0.079-2.038,0.157-2.948,0.229L9.73,5.772l2.825,0.3c1.13,0.116,1.649-0.477,1.169-1.318
			c-0.479-0.853-1.767-1.636-2.897-1.752L1.589,2.041C0.461,1.922-0.058,2.515,0.42,3.356c0.481,0.852,1.777,1.636,2.897,1.755
			l1.427,0.146l3.148,4.229c-5.334,0.497-5.334,0.813-5.334,1.663c0,7.013-0.908,8.639-1.089,8.945l-1.467-1.159v7.27l0.869,1.107
			c-0.041,1.061,0.32,2.031,1.028,2.845c2.309,2.604,7.612,2.673,8.2,2.673c1.787,0,5.484-0.9,8.021-1.585
			c-0.179-0.297-0.36-0.593-0.499-0.92c-0.141-0.307-0.24-0.634-0.35-0.961c-0.31-0.951-0.52-1.95-0.52-3.002
			c0-5.378,4.414-9.754,9.837-9.754c5.433,0,9.849,4.376,9.849,9.754c0,2.327-0.859,4.437-2.227,6.112
			c-0.289,0.355-0.591,0.702-0.928,1.01c-0.391,0.367-0.8,0.712-1.25,1.009c11.317,0.04,43.269,0.2,65.082,0.675
			c-0.32-0.317-0.588-0.675-0.867-1.03c-0.25-0.326-0.471-0.674-0.68-1.029c-0.828-1.427-1.348-3.07-1.348-4.835
			c0-5.388,4.413-9.764,9.847-9.764c5.423,0,9.839,4.376,9.839,9.764c0,1.953-0.601,3.775-1.598,5.299
			c-0.23,0.358-0.509,0.675-0.791,1.002c-0.299,0.345-0.618,0.672-0.969,0.979c2.01,0.062,3.736,0.092,5.224,0.092
			c7.543,0,9.021-0.645,9.2-1.912C125.04,33.346,125.181,32.385,122.613,31.426z M26.588,18.64c-4.293,0-7.799,3.467-7.799,7.724
			c0,0.872,0.179,1.693,0.447,2.467c0.11,0.327,0.241,0.644,0.391,0.951c0.159,0.307,0.31,0.623,0.499,0.91
			c1.409,2.051,3.776,3.407,6.461,3.407c0.092,0,0.171-0.021,0.261-0.028c0.989-0.03,1.948-0.228,2.807-0.596
			c0.609-0.266,1.159-0.613,1.678-1.009c1.838-1.417,3.055-3.615,3.055-6.103C34.389,22.106,30.894,18.64,26.588,18.64z
			 M104.065,20.542c-4.293,0-7.791,3.466-7.791,7.732c0,1.864,0.69,3.558,1.808,4.894c0.31,0.375,0.66,0.723,1.051,1.04
			c0.498,0.415,1.049,0.772,1.646,1.049c1,0.467,2.107,0.743,3.286,0.743c1.03,0,1.997-0.208,2.896-0.563
			c0.609-0.249,1.179-0.576,1.708-0.951c0.399-0.299,0.76-0.626,1.1-0.981c1.289-1.376,2.097-3.209,2.097-5.23
			C111.866,24.008,108.371,20.542,104.065,20.542z"/>
	</g>
</g>
</svg>
