<?xml version="1.0" encoding="utf-8"?>
<!-- Generator: Adobe Illustrator 16.0.0, SVG Export Plug-In . SVG Version: 6.00 Build 0)  -->
<!DOCTYPE svg PUBLIC "-//W3C//DTD SVG 1.1//EN" "http://www.w3.org/Graphics/SVG/1.1/DTD/svg11.dtd">
<svg version="1.1" id="Big_1_" xmlns="http://www.w3.org/2000/svg" xmlns:xlink="http://www.w3.org/1999/xlink" x="0px" y="0px"
	 width="100px" height="100px" viewBox="0 0 100 100" enable-background="new 0 0 100 100" xml:space="preserve">
<g id="Big">
	<g>
		<path fill-rule="evenodd" clip-rule="evenodd" fill="#346CAB" d="M98.772,80.057L68.719,45.814
			c4.063-5.457,7.429-11.461,9.885-17.952c1.514-4.06-2.383-7.954-6.445-6.44c-6.492,2.448-12.524,5.813-17.959,9.874L19.935,1.262
			c-1.945-1.711-4.881-1.612-6.727,0.215L7.65,7.025c-1.754,1.754-1.92,4.541-0.406,6.516l13.03,16.703
			c2.499,3.217,5.195,6.269,8.081,9.153l9.183,9.18c-1.373,2.018-2.696,4.085-3.896,6.25c-3.201,5.789-6.733,11.388-11.036,16.414
			c-1.132,1.316-2.142,2.521-3.151,3.722L8.924,67.586c-1.945-1.371-4.616-1.132-6.296,0.554l-1.157,1.151
			c-1.754,1.753-1.92,4.521-0.431,6.49l8.364,10.907c-1.44,1.637-2.979,3.298-4.659,5.075c-2.548,2.547,0.936,6.029,3.484,3.482
			c1.803-1.68,3.465-3.199,5.071-4.639l10.943,8.343c1.945,1.513,4.708,1.316,6.463-0.438l1.157-1.15
			c1.68-1.686,1.92-4.35,0.554-6.3l-7.386-10.501c1.231-1.034,2.406-2.018,3.729-3.169c5.022-4.281,10.629-7.813,16.421-11.03
			c2.167-1.182,4.229-2.504,6.253-3.895l9.184,9.204c2.88,2.86,5.939,5.573,9.158,8.071l16.734,13.005
			c1.945,1.538,4.733,1.342,6.487-0.412l5.558-5.549C100.385,84.96,100.502,82.007,98.772,80.057z"/>
	</g>
</g>
</svg>
