<?xml version="1.0" encoding="utf-8"?>
<!-- Generator: Adobe Illustrator 16.0.0, SVG Export Plug-In . SVG Version: 6.00 Build 0)  -->
<!DOCTYPE svg PUBLIC "-//W3C//DTD SVG 1.1//EN" "http://www.w3.org/Graphics/SVG/1.1/DTD/svg11.dtd">
<svg version="1.1" id="profi_1_" xmlns="http://www.w3.org/2000/svg" xmlns:xlink="http://www.w3.org/1999/xlink" x="0px" y="0px"
	 width="134px" height="90px" viewBox="0 0 134 90" enable-background="new 0 0 134 90" xml:space="preserve">
<g id="profi">
	<g>
		<path fill-rule="evenodd" clip-rule="evenodd" fill="#346CAB" d="M36,45H2c-1.104,0-2,0.896-2,2v41c0,1.104,0.896,2,2,2h34
			c1.104,0,2-0.896,2-2V47C38,45.896,37.104,45,36,45z M84,25H50c-1.104,0-2,0.896-2,2v61c0,1.104,0.896,2,2,2h34
			c1.104,0,2-0.896,2-2V27C86,25.896,85.104,25,84,25z M132,0H98c-1.104,0-2,0.896-2,2v86c0,1.104,0.896,2,2,2h34
			c1.104,0,2-0.896,2-2V2C134,0.896,133.104,0,132,0z"/>
	</g>
</g>
</svg>
