<?xml version="1.0" encoding="utf-8"?>
<!-- Generator: Adobe Illustrator 16.0.0, SVG Export Plug-In . SVG Version: 6.00 Build 0)  -->
<!DOCTYPE svg PUBLIC "-//W3C//DTD SVG 1.1//EN" "http://www.w3.org/Graphics/SVG/1.1/DTD/svg11.dtd">
<svg version="1.1" id="Big_1_" xmlns="http://www.w3.org/2000/svg" xmlns:xlink="http://www.w3.org/1999/xlink" x="0px" y="0px"
	 width="90px" height="89px" viewBox="0 0 90 89" enable-background="new 0 0 90 89" xml:space="preserve">
<g id="Big">
	<g>
		<path fill-rule="evenodd" clip-rule="evenodd" fill="#346CAB" d="M70.446,50.008c-1.618,0-3.206,0.195-4.737,0.574L63.924,44.5
			l1.785-6.083c1.531,0.379,3.119,0.574,4.737,0.574c5.218,0,10.124-2.027,13.813-5.71c7.616-7.602,7.616-19.97,0-27.571
			C80.57,2.027,75.664,0,70.446,0S60.322,2.027,56.633,5.71s-5.721,8.578-5.721,13.786c0,1.442,0.156,2.861,0.46,4.237L44.986,25.6
			L38.6,23.733c0.304-1.376,0.46-2.795,0.46-4.237c0-5.208-2.032-10.104-5.722-13.786C29.649,2.027,24.744,0,19.526,0
			S9.402,2.027,5.713,5.71c-7.617,7.602-7.617,19.97,0,27.571c3.689,3.683,8.595,5.71,13.813,5.71c1.619,0,3.207-0.195,4.738-0.574
			l1.785,6.083l-1.785,6.083c-1.531-0.379-3.119-0.574-4.738-0.574c-5.218,0-10.124,2.027-13.813,5.71
			c-7.617,7.602-7.617,19.97,0,27.571C9.402,86.972,14.308,89,19.525,89c5.218,0,10.124-2.028,13.813-5.71
			c3.689-3.683,5.721-8.578,5.721-13.786c0-1.442-0.157-2.861-0.46-4.237l6.386-1.867l6.386,1.867
			c-0.304,1.376-0.461,2.795-0.461,4.237c0,5.208,2.032,10.104,5.722,13.786C60.322,86.972,65.229,89,70.445,89
			c5.219,0,10.124-2.028,13.814-5.71c7.615-7.602,7.615-19.971,0-27.571C80.57,52.036,75.664,50.008,70.446,50.008z M28.647,79.661
			c-2.309,2.072-5.28,3.3-8.381,3.462c-3.925,0.205-7.648-1.226-10.403-3.975c-5.329-5.318-5.329-13.971,0-19.289
			c2.581-2.575,6.013-3.994,9.663-3.994c1.052,0,2.084,0.121,3.084,0.351L15.887,71.93c-0.289,0.984,0.627,1.899,1.613,1.61
			l15.445-6.621c0.161,0.844,0.246,1.708,0.246,2.585C33.191,73.395,31.57,77.036,28.647,79.661z M32.946,22.08l-15.357-6.533
			c-0.987-0.288-1.903,0.626-1.614,1.61l6.635,15.626c-1,0.229-2.033,0.351-3.084,0.351c-3.65,0-7.082-1.418-9.664-3.994
			c-5.328-5.317-5.328-13.971,0-19.288c2.581-2.576,6.013-3.995,9.664-3.995c3.65,0,7.082,1.419,9.663,3.995
			c2.582,2.576,4.003,6.001,4.003,9.644C33.192,20.373,33.107,21.237,32.946,22.08z M48.887,48.394
			c-1.041,1.04-2.428,1.612-3.901,1.612c-1.474,0-2.859-0.572-3.901-1.612s-1.616-2.423-1.616-3.894s0.574-2.854,1.616-3.894
			s2.427-1.612,3.901-1.612c1.473,0,2.86,0.572,3.901,1.612c1.043,1.04,1.616,2.423,1.616,3.894S49.93,47.354,48.887,48.394z
			 M61.324,9.339c2.309-2.073,5.281-3.301,8.383-3.463c3.924-0.205,7.647,1.227,10.402,3.976c5.328,5.317,5.328,13.971,0,19.288
			c-2.581,2.576-6.013,3.995-9.663,3.995c-1.052,0-2.084-0.122-3.085-0.351l6.636-15.627c0.289-0.984-0.627-1.898-1.614-1.61
			l-15.356,6.534c-0.161-0.844-0.246-1.708-0.246-2.585C56.78,15.605,58.401,11.964,61.324,9.339z M80.109,79.148
			c-2.581,2.575-6.013,3.994-9.663,3.994c-3.651,0-7.082-1.419-9.663-3.994c-2.582-2.576-4.003-6.002-4.003-9.645
			c0-0.877,0.085-1.741,0.245-2.585l15.482,6.585c0.941,0.274,1.815-0.598,1.539-1.537l-6.686-15.751
			c1-0.229,2.033-0.351,3.084-0.351c3.65,0,7.082,1.419,9.664,3.995C85.438,65.178,85.438,73.83,80.109,79.148z"/>
	</g>
</g>
</svg>
