<?xml version="1.0" encoding="utf-8"?>
<!-- Generator: Adobe Illustrator 16.0.0, SVG Export Plug-In . SVG Version: 6.00 Build 0)  -->
<!DOCTYPE svg PUBLIC "-//W3C//DTD SVG 1.1//EN" "http://www.w3.org/Graphics/SVG/1.1/DTD/svg11.dtd">
<svg version="1.1" id="Big_1_" xmlns="http://www.w3.org/2000/svg" xmlns:xlink="http://www.w3.org/1999/xlink" x="0px" y="0px"
	 width="105px" height="61px" viewBox="0 0 105 61" enable-background="new 0 0 105 61" xml:space="preserve">
<g id="Big">
	<g>
		<path fill-rule="evenodd" clip-rule="evenodd" fill="#346CAB" d="M54.574,11.633c-1.619-1.487-3.667-2.537-6.14-2.961V6.005
			c0-0.061,0.117-0.077,0.115-0.136c-0.095-3.278-2.679-5.871-5.986-5.871H17.677V9.87c-3.889,2.019-6.304,5.999-6.304,10.578
			c0,0.047,0.033,0.092,0.033,0.137c0.733-0.086,1.508-0.137,2.265-0.137h44.779c0-1.098-0.149-2.162-0.428-3.173h46.978v-5.643
			H54.574z M91.209,22.564H13.67C6.185,22.564,0,28.703,0,36.169v0.117c0,6.704,4.949,12.195,11.313,13.245v0.097
			c0,2.083,0.622,4.034,1.602,5.713C14.892,58.726,18.625,61,22.833,61h59.216c4.208,0,7.821-2.274,9.798-5.657
			c0.98-1.681,1.484-3.632,1.484-5.713v-0.097c6.364-1.051,11.313-6.543,11.313-13.247v-0.117
			C104.645,28.703,98.695,22.564,91.209,22.564z M23.133,55.095c-3.175,0-5.748-2.565-5.748-5.732c0-3.166,2.573-5.731,5.748-5.731
			c3.174,0,5.748,2.565,5.748,5.731C28.881,52.529,26.308,55.095,23.133,55.095z M42.578,55.095c-3.175,0-5.749-2.565-5.749-5.732
			c0-3.166,2.574-5.731,5.749-5.731c3.174,0,5.748,2.565,5.748,5.731C48.325,52.529,45.751,55.095,42.578,55.095z M62.021,55.095
			c-3.175,0-5.748-2.565-5.748-5.732c0-3.166,2.573-5.731,5.748-5.731c3.174,0,5.748,2.565,5.748,5.731
			C67.77,52.529,65.195,55.095,62.021,55.095z M81.465,55.095c-3.174,0-5.748-2.565-5.748-5.732c0-3.166,2.574-5.731,5.748-5.731
			c3.175,0,5.748,2.565,5.748,5.731C87.213,52.529,84.64,55.095,81.465,55.095z"/>
	</g>
</g>
</svg>
