<?xml version="1.0" encoding="utf-8"?>
<!-- Generator: Adobe Illustrator 16.0.0, SVG Export Plug-In . SVG Version: 6.00 Build 0)  -->
<!DOCTYPE svg PUBLIC "-//W3C//DTD SVG 1.0//EN" "http://www.w3.org/TR/2001/REC-SVG-20010904/DTD/svg10.dtd">
<svg version="1.0" id="Фигура_1_1_" xmlns="http://www.w3.org/2000/svg" xmlns:xlink="http://www.w3.org/1999/xlink" x="0px"
	 y="0px" width="71px" height="36px" viewBox="0 0 71 36" enable-background="new 0 0 71 36" xml:space="preserve">
<g id="Фигура_1">
	<g>
		<path fill-rule="evenodd" clip-rule="evenodd" fill="#777777" d="M69.1,0.637c-0.082-0.025-0.165-0.043-0.25-0.058
			c-0.889-0.107-1.482,0.712-1.929,1.641c-6.796,14.259-29.472,26.188-47.425,23.969c-0.083-0.006-6.733-0.614-12.311-3.373
			l7.693-1.834c0.902-0.213,1.535-1.198,1.419-2.197c-0.11-1.001-0.936-1.634-1.837-1.424L2.337,20.251
			c-0.164,0.042-0.323,0.11-0.468,0.199l-0.004-0.002c-0.001,0.004-0.005,0.003-0.006,0.007c-0.176,0.107-0.327,0.255-0.464,0.42
			c-0.041,0.052-0.076,0.098-0.109,0.152c-0.09,0.131-0.167,0.273-0.223,0.426c-0.022,0.058-0.049,0.106-0.064,0.168
			c-0.011,0.033-0.026,0.056-0.035,0.086c-0.047,0.185-0.063,0.37-0.062,0.554c-0.001,0.017,0.006,0.034,0.008,0.056
			c0.009,0.201,0.055,0.391,0.119,0.573c0.012,0.024,0.007,0.055,0.02,0.079l4.893,11.641c0.377,0.89,1.35,1.21,2.179,0.71
			c0.826-0.498,1.191-1.627,0.815-2.517l-2.638-6.278c5.877,2.735,12.314,3.326,12.624,3.349
			c19.677,2.438,42.864-8.735,51.225-27.25C70.535,1.771,69.848,0.871,69.1,0.637z"/>
	</g>
</g>
</svg>
