<?xml version="1.0" encoding="UTF-8" standalone="no"?>
<!-- Generator: Adobe Illustrator 18.1.1, SVG Export Plug-In . SVG Version: 6.00 Build 0)  -->

<svg
   xmlns:dc="http://purl.org/dc/elements/1.1/"
   xmlns:cc="http://creativecommons.org/ns#"
   xmlns:rdf="http://www.w3.org/1999/02/22-rdf-syntax-ns#"
   xmlns:svg="http://www.w3.org/2000/svg"
   xmlns="http://www.w3.org/2000/svg"
   xmlns:sodipodi="http://sodipodi.sourceforge.net/DTD/sodipodi-0.dtd"
   xmlns:inkscape="http://www.inkscape.org/namespaces/inkscape"
   version="1.1"
   id="Capa_1"
   x="0px"
   y="0px"
   viewBox="0 0 25 25"
   xml:space="preserve"
   inkscape:version="0.91 r13725"
   sodipodi:docname="Cart-check.svg"
   width="25"
   height="25"><metadata
   id="metadata41"><rdf:RDF><cc:Work
       rdf:about=""><dc:format>image/svg+xml</dc:format><dc:type
         rdf:resource="http://purl.org/dc/dcmitype/StillImage" /><dc:title></dc:title></cc:Work></rdf:RDF></metadata><defs
   id="defs39" /><sodipodi:namedview
   pagecolor="#ffffff"
   bordercolor="#666666"
   borderopacity="1"
   objecttolerance="10"
   gridtolerance="10"
   guidetolerance="10"
   inkscape:pageopacity="0"
   inkscape:pageshadow="2"
   inkscape:window-width="1317"
   inkscape:window-height="789"
   id="namedview37"
   showgrid="false"
   inkscape:zoom="15.862347"
   inkscape:cx="2.4470402"
   inkscape:cy="12.049736"
   inkscape:window-x="644"
   inkscape:window-y="242"
   inkscape:window-maximized="0"
   inkscape:current-layer="Capa_1" />
<g
   id="g3"
   style="fill:#659812;fill-opacity:1"
   transform="matrix(0.56286793,0,0,0.56286793,4.4318307,3.6577257)">
	<path
   style="fill:#659812;fill-opacity:1"
   d="M 29.049,5.009 28.19,4.151 c -0.943,-0.945 -2.488,-0.945 -3.434,0 L 10.172,18.737 4.997,13.564 C 4.054,12.62 2.508,12.62 1.565,13.565 l -0.858,0.857 c -0.943,0.944 -0.943,2.489 0,3.433 l 7.744,7.752 c 0.944,0.943 2.489,0.943 3.433,0 L 29.049,8.442 c 0.942,-0.944 0.942,-2.489 0,-3.433 z"
   id="path5"
   inkscape:connector-curvature="0" />
</g>
<g
   id="g7"
   transform="translate(0,-4.756001)">
</g>
<g
   id="g9"
   transform="translate(0,-4.756001)">
</g>
<g
   id="g11"
   transform="translate(0,-4.756001)">
</g>
<g
   id="g13"
   transform="translate(0,-4.756001)">
</g>
<g
   id="g15"
   transform="translate(0,-4.756001)">
</g>
<g
   id="g17"
   transform="translate(0,-4.756001)">
</g>
<g
   id="g19"
   transform="translate(0,-4.756001)">
</g>
<g
   id="g21"
   transform="translate(0,-4.756001)">
</g>
<g
   id="g23"
   transform="translate(0,-4.756001)">
</g>
<g
   id="g25"
   transform="translate(0,-4.756001)">
</g>
<g
   id="g27"
   transform="translate(0,-4.756001)">
</g>
<g
   id="g29"
   transform="translate(0,-4.756001)">
</g>
<g
   id="g31"
   transform="translate(0,-4.756001)">
</g>
<g
   id="g33"
   transform="translate(0,-4.756001)">
</g>
<g
   id="g35"
   transform="translate(0,-4.756001)">
</g>
</svg>