<svg xmlns="http://www.w3.org/2000/svg" width="35" height="35" viewBox="0 0 35 35.000001"><path d="M31.923 9.753L8.563 9.75l-.978-3.37c-.146-.503-.55-.9-1.056-1.037l-3.427-.926A1.512 1.512 0 0 0 1.4 6.626c.201.348.526.599.915.704l2.608.705 5.294 19.094a2.23 2.23 0 0 0-1.243 2.002 2.235 2.235 0 0 0 2.232 2.232 2.235 2.235 0 0 0 2.23-2.32h10.777l-.002.088a2.235 2.235 0 0 0 2.233 2.232 2.235 2.235 0 0 0 2.232-2.232c0-1.132-.86-2.08-1.96-2.216-2.68-.432-13.611-.96-13.611-.96l-.36-1.406h13.64c.698 0 1.318-.468 1.508-1.14l2.948-10.383h1.083a1.637 1.637 0 1 0 0-3.273zM14.55 21.074h-2.557c-.07 0-.172.015-.219-.15l-.143-.495-2.003-7.059a.115.115 0 0 1 .11-.146h3.107c.055 0 .1.037.112.09l1.695 7.588.006.024a.115.115 0 0 1-.108.148zm6.525-7.71l-1.381 7.62a.114.114 0 0 1-.112.09h-1.929a.114.114 0 0 1-.112-.09l-1.38-7.62a.114.114 0 0 1 .112-.14h4.69c.035 0 .067.016.09.043.021.027.03.063.022.097zm6.533.006l-2.164 7.62a.115.115 0 0 1-.11.085h-2.646a.115.115 0 0 1-.112-.14l1.702-7.621a.116.116 0 0 1 .112-.09h3.107a.115.115 0 0 1 .11.146z" fill="#b1b1b1"/></svg>