<svg xmlns="http://www.w3.org/2000/svg" width="23" height="23" viewBox="0 0 23 23"><g fill="#a1c5e1"><path d="M21.81 7.212c-1.16-2.704-3.131-4.67-5.858-5.834A10.812 10.812 0 0 0 11.67.5a10.7 10.7 0 0 0-4.27.878c-2.705 1.16-4.684 3.126-5.846 5.834a10.705 10.705 0 0 0-.866 4.27c0 1.492.283 2.925.866 4.282C2.716 18.473 4.696 20.45 7.4 21.61c1.361.584 2.778.878 4.27.878 1.491 0 2.919-.297 4.282-.878 2.726-1.163 4.697-3.142 5.858-5.846a10.76 10.76 0 0 0 .878-4.282c0-1.491-.294-2.908-.879-4.27zm-1.756 9.13a9.65 9.65 0 0 1-3.537 3.524 9.474 9.474 0 0 1-4.847 1.3 9.315 9.315 0 0 1-3.753-.77c-1.191-.518-2.22-1.198-3.08-2.057-.86-.86-1.544-1.899-2.056-3.092a9.47 9.47 0 0 1-.758-3.765c0-1.744.429-3.358 1.287-4.835a9.655 9.655 0 0 1 3.525-3.524 9.4 9.4 0 0 1 4.835-1.3c1.744 0 3.366.436 4.847 1.3a9.68 9.68 0 0 1 3.536 3.524 9.401 9.401 0 0 1 1.3 4.835c0 1.744-.43 3.37-1.3 4.86z"/><path d="M12.367 11.386v-6.23c0-.374-.325-.674-.697-.674-.35 0-.662.3-.662.673v6.327c0 .012.024.06.024.096a.629.629 0 0 0 .18.542l3.597 3.596c.24.241.686.241.926 0a.649.649 0 0 0 0-.938l-3.368-3.392z"/></g></svg>