<?xml version="1.0" encoding="UTF-8" standalone="no"?>
<!-- Generator: Adobe Illustrator 16.0.0, SVG Export Plug-In . SVG Version: 6.00 Build 0)  -->

<svg
   xmlns:dc="http://purl.org/dc/elements/1.1/"
   xmlns:cc="http://creativecommons.org/ns#"
   xmlns:rdf="http://www.w3.org/1999/02/22-rdf-syntax-ns#"
   xmlns:svg="http://www.w3.org/2000/svg"
   xmlns="http://www.w3.org/2000/svg"
   xmlns:sodipodi="http://sodipodi.sourceforge.net/DTD/sodipodi-0.dtd"
   xmlns:inkscape="http://www.inkscape.org/namespaces/inkscape"
   version="1.1"
   id="Capa_1"
   x="0px"
   y="0px"
   width="23"
   height="23"
   viewBox="0 0 23 23"
   xml:space="preserve"
   inkscape:version="0.91 r13725"
   sodipodi:docname="Clock-address.svg"><metadata
   id="metadata45"><rdf:RDF><cc:Work
       rdf:about=""><dc:format>image/svg+xml</dc:format><dc:type
         rdf:resource="http://purl.org/dc/dcmitype/StillImage" /><dc:title></dc:title></cc:Work></rdf:RDF></metadata><defs
   id="defs43" /><sodipodi:namedview
   pagecolor="#ffffff"
   bordercolor="#666666"
   borderopacity="1"
   objecttolerance="10"
   gridtolerance="10"
   guidetolerance="10"
   inkscape:pageopacity="0"
   inkscape:pageshadow="2"
   inkscape:window-width="1098"
   inkscape:window-height="670"
   id="namedview41"
   showgrid="false"
   inkscape:zoom="8.7256052"
   inkscape:cx="-3.0773123"
   inkscape:cy="10.376354"
   inkscape:window-x="756"
   inkscape:window-y="320"
   inkscape:window-maximized="0"
   inkscape:current-layer="Capa_1" />
<g
   id="g3"
   transform="matrix(0.03594771,0,0,0.03594771,0.68763138,0.49422431)"
   style="fill:#a1c5e1;fill-opacity:1">
	<g
   id="g5"
   style="fill:#a1c5e1;fill-opacity:1">
		<path
   d="M 587.572,186.881 C 555.306,111.656 500.476,56.947 424.623,24.596 386.711,8.427 346.992,0.168 305.497,0.168 264.009,0.168 224.583,8.349 186.713,24.596 111.488,56.861 56.415,111.535 24.092,186.881 7.895,224.629 0,264.176 0,305.664 c 0,41.496 7.895,81.371 24.092,119.127 32.323,75.346 87.403,130.348 162.621,162.621 37.877,16.247 77.295,24.42 118.784,24.42 41.489,0 81.214,-8.259 119.12,-24.42 C 500.47,555.06 555.3,500.009 587.573,424.791 603.819,386.914 612,347.16 612,305.664 c 0,-41.488 -8.174,-80.907 -24.428,-118.783 z m -48.848,253.972 c -24.021,41.195 -56.929,73.876 -98.375,98.039 -41.195,24.021 -86.332,36.135 -134.845,36.135 -36.47,0 -71.27,-7.024 -104.4,-21.415 C 167.975,539.228 139.371,520.318 115.443,496.397 91.515,472.469 72.47,443.586 58.229,410.4 44.03,377.335 37.149,342.142 37.149,305.665 c 0,-48.52 11.921,-93.428 35.807,-134.509 23.971,-41.231 56.886,-73.947 98.039,-98.04 41.146,-24.092 85.99,-36.142 134.502,-36.142 48.52,0 93.649,12.121 134.845,36.142 41.446,24.164 74.283,56.879 98.375,98.039 24.092,41.153 36.135,85.99 36.135,134.509 0,48.521 -11.964,93.735 -36.128,135.189 z"
   id="path7"
   inkscape:connector-curvature="0"
   style="fill:#a1c5e1;fill-opacity:1" />
		<path
   d="m 324.906,302.988 0,-173.329 c 0,-10.372 -9.037,-18.738 -19.41,-18.738 -9.701,0 -18.403,8.366 -18.403,18.738 l 0,176.005 c 0,0.336 0.671,1.678 0.671,2.678 -0.671,6.024 1.007,11.043 5.019,15.062 L 392.836,423.45 c 6.695,6.695 19.073,6.695 25.763,0 7.694,-7.695 7.188,-18.86 0,-26.099 l -93.693,-94.363 z"
   id="path9"
   inkscape:connector-curvature="0"
   style="fill:#a1c5e1;fill-opacity:1" />
	</g>
</g>
<g
   id="g11"
   transform="translate(0,-589)">
</g>
<g
   id="g13"
   transform="translate(0,-589)">
</g>
<g
   id="g15"
   transform="translate(0,-589)">
</g>
<g
   id="g17"
   transform="translate(0,-589)">
</g>
<g
   id="g19"
   transform="translate(0,-589)">
</g>
<g
   id="g21"
   transform="translate(0,-589)">
</g>
<g
   id="g23"
   transform="translate(0,-589)">
</g>
<g
   id="g25"
   transform="translate(0,-589)">
</g>
<g
   id="g27"
   transform="translate(0,-589)">
</g>
<g
   id="g29"
   transform="translate(0,-589)">
</g>
<g
   id="g31"
   transform="translate(0,-589)">
</g>
<g
   id="g33"
   transform="translate(0,-589)">
</g>
<g
   id="g35"
   transform="translate(0,-589)">
</g>
<g
   id="g37"
   transform="translate(0,-589)">
</g>
<g
   id="g39"
   transform="translate(0,-589)">
</g>
</svg>