<?xml version="1.0" encoding="utf-8"?>
<!-- Generator: Adobe Illustrator 16.0.0, SVG Export Plug-In . SVG Version: 6.00 Build 0)  -->
<!DOCTYPE svg PUBLIC "-//W3C//DTD SVG 1.0//EN" "http://www.w3.org/TR/2001/REC-SVG-20010904/DTD/svg10.dtd">
<svg version="1.0" id="dice_1_" xmlns="http://www.w3.org/2000/svg" xmlns:xlink="http://www.w3.org/1999/xlink" x="0px" y="0px"
	 width="32px" height="26px" viewBox="0 0 32 26" enable-background="new 0 0 32 26" xml:space="preserve">
<g id="dice">
	<g>
		<path fill-rule="evenodd" clip-rule="evenodd" fill="#D9450A" d="M11.948,11.159H2.726C1.223,11.159,0,12.396,0,13.916v9.327
			C0,24.763,1.223,26,2.726,26h9.223c1.502,0,2.726-1.237,2.726-2.757v-9.327C14.674,12.396,13.451,11.159,11.948,11.159z
			 M13.352,23.243c0,0.782-0.63,1.42-1.404,1.42H2.726c-0.773,0-1.404-0.638-1.404-1.42v-9.327c0-0.783,0.63-1.42,1.404-1.42h9.223
			c0.773,0,1.404,0.637,1.404,1.42V23.243z M31.766,11.135l-3.74-8.526c-0.295-0.674-0.831-1.189-1.511-1.455
			c-0.679-0.265-1.42-0.246-2.085,0.053l-8.431,3.782c-0.666,0.298-1.176,0.841-1.438,1.528c-0.262,0.688-0.244,1.437,0.052,2.109
			l3.739,8.526c0.296,0.673,0.832,1.189,1.512,1.454c0.318,0.124,0.65,0.186,0.981,0.186c0.376,0,0.751-0.079,1.104-0.237
			l8.43-3.782C31.754,14.156,32.375,12.523,31.766,11.135z M30.584,12.763c-0.135,0.354-0.398,0.634-0.741,0.787l-8.43,3.782
			c-0.343,0.153-0.724,0.163-1.073,0.027c-0.351-0.137-0.627-0.402-0.779-0.749l-3.739-8.526c-0.152-0.347-0.162-0.732-0.027-1.087
			c0.135-0.354,0.398-0.633,0.741-0.787l8.43-3.782c0.182-0.081,0.375-0.122,0.569-0.122c0.171,0,0.341,0.031,0.505,0.096
			c0.35,0.137,0.627,0.402,0.779,0.749l3.738,8.526C30.709,12.023,30.719,12.408,30.584,12.763z M23.654,9.123
			c-0.322-0.202-0.746-0.17-1.035,0.078c-0.276,0.237-0.383,0.633-0.26,0.979c0.124,0.35,0.461,0.591,0.83,0.591
			c0.416,0,0.781-0.306,0.863-0.718C24.124,9.695,23.962,9.316,23.654,9.123z M4.393,14.273c-0.317-0.2-0.735-0.171-1.023,0.068
			c-0.281,0.232-0.392,0.628-0.275,0.975c0.12,0.357,0.46,0.605,0.833,0.605c0.416,0,0.782-0.307,0.864-0.718
			C4.865,14.845,4.701,14.468,4.393,14.273z M4.393,17.822c-0.317-0.199-0.734-0.17-1.023,0.068
			c-0.281,0.231-0.392,0.628-0.275,0.975c0.12,0.357,0.459,0.605,0.833,0.605c0.416,0,0.782-0.307,0.864-0.718
			C4.865,18.393,4.701,18.016,4.393,17.822z M4.393,21.371C4.076,21.172,3.659,21.2,3.37,21.439
			c-0.282,0.231-0.391,0.628-0.275,0.975c0.12,0.357,0.46,0.604,0.833,0.604c0.416,0,0.782-0.305,0.864-0.716
			C4.865,21.942,4.701,21.564,4.393,21.371z M11.21,14.273c-0.326-0.203-0.758-0.169-1.046,0.087
			c-0.269,0.239-0.369,0.632-0.248,0.973c0.125,0.349,0.461,0.589,0.829,0.589c0.414,0,0.778-0.303,0.863-0.71
			C11.683,14.851,11.521,14.468,11.21,14.273z M10.745,19.471c0.42,0,0.792-0.314,0.867-0.731c0.065-0.356-0.098-0.727-0.402-0.917
			c-0.326-0.204-0.757-0.169-1.046,0.087c-0.266,0.235-0.365,0.619-0.252,0.956C10.031,19.223,10.372,19.471,10.745,19.471z
			 M11.21,21.371c-0.322-0.201-0.746-0.171-1.035,0.077c-0.278,0.237-0.38,0.635-0.259,0.979c0.124,0.351,0.461,0.591,0.829,0.591
			c0.415,0,0.783-0.305,0.865-0.717C11.681,21.942,11.519,21.564,11.21,21.371z"/>
	</g>
</g>
</svg>
