<svg xmlns="http://www.w3.org/2000/svg" width="33" height="33" viewBox="0 0 33 33.000001"><path d="M16.525.738C7.7.738.524 7.915.524 16.738s7.177 16 16.001 16c8.822 0 15.999-7.177 15.999-16s-7.177-16-16-16zM12.15 13.696l.032-.035a.409.409 0 0 0 .17-.398c-.322-1.94-.11-2.748-.039-2.95.563-1.73 2.331-2.529 2.678-2.67.074-.03.21-.07.349-.092l.041-.01.284-.015.002.018.066-.007c.059-.006.115-.014.185-.028l.063-.014c.055.001.743.088 1.766.402l.71.244c1.3.384 1.897 1.098 2.008 1.242 1.04 1.178.762 2.958.504 3.914a.4.4 0 0 0 .052.325l.059.072c.075.103.143.498-.083 1.337-.043.255-.137.462-.277.602a.407.407 0 0 0-.1.21c-.352 2.062-2.2 4.368-4.147 4.368-1.652 0-3.538-2.122-3.877-4.366a.414.414 0 0 0-.106-.221c-.141-.147-.231-.358-.286-.67-.166-.587-.182-1.06-.054-1.258zm-3.71 8.94c.072-.09.472-.558 1.28-.866.71-.218 2.466-.802 3.426-1.497.045-.025.09-.072.126-.11a7.18 7.18 0 0 1 .385-.39l.09-.085.09.086c.846.797 1.782 1.234 2.635 1.234.897 0 1.821-.388 2.676-1.123l.067-.057.181.088c.162.148.442.352.573.414l.167.081-.018.018.074.045c.158.095.33.188.53.287.204.09.374.156.55.214.148.048.938.313 1.837.728l.171.052c.88.337 1.27.804 1.308.853 1.043 1.546 1.443 4.431 1.592 6.039a15.363 15.363 0 0 1-9.655 3.43 15.353 15.353 0 0 1-9.657-3.431c.146-1.604.543-4.48 1.573-6.01z" fill="#c2c2c2"/></svg>