<?xml version="1.0" encoding="utf-8"?>
<!-- Generator: Adobe Illustrator 16.0.0, SVG Export Plug-In . SVG Version: 6.00 Build 0)  -->
<!DOCTYPE svg PUBLIC "-//W3C//DTD SVG 1.0//EN" "http://www.w3.org/TR/2001/REC-SVG-20010904/DTD/svg10.dtd">
<svg version="1.0" id="facebook_1_" xmlns="http://www.w3.org/2000/svg" xmlns:xlink="http://www.w3.org/1999/xlink" x="0px"
	 y="0px" width="12px" height="19px" viewBox="0 0 12 19" enable-background="new 0 0 12 19" xml:space="preserve">
<g id="facebook">
	<g>
		<path fill-rule="evenodd" clip-rule="evenodd" fill="#AFAFAF" d="M7.086,3.62c0.299-0.281,0.871-0.448,1.547-0.448
			c0.687,0,1.236,0.313,1.929,0.714l0.822-3.092C10.115,0.442,9.08-0.001,7.756-0.001c-1.297,0-2.543,0.211-3.389,0.616
			C3.524,1.026,2.912,1.752,2.598,2.398C2.287,3.053,2.124,3.842,2.124,5.16v1.255H0.009v3.286h2.115v9.266H6.65V9.701h2.822
			l0.778-3.286H6.65V5.236C6.65,4.437,6.791,3.896,7.086,3.62z"/>
	</g>
</g>
</svg>
