<?xml version="1.0" encoding="utf-8"?>
<!-- Generator: Adobe Illustrator 16.0.0, SVG Export Plug-In . SVG Version: 6.00 Build 0)  -->
<!DOCTYPE svg PUBLIC "-//W3C//DTD SVG 1.0//EN" "http://www.w3.org/TR/2001/REC-SVG-20010904/DTD/svg10.dtd">
<svg version="1.0" id="G_x2B__1_" xmlns="http://www.w3.org/2000/svg" xmlns:xlink="http://www.w3.org/1999/xlink" x="0px" y="0px"
	 width="24px" height="16px" viewBox="0 0 24 16" enable-background="new 0 0 24 16" xml:space="preserve">
<g id="G_x2B_">
	<g>
		<path fill-rule="evenodd" clip-rule="evenodd" fill="#AFAFAF" d="M23.447,6.416h-1.494V4.885c0-0.32-0.254-0.58-0.566-0.58h-2.018
			c-0.313,0-0.566,0.26-0.566,0.58v1.531h-1.494c-0.313,0-0.566,0.26-0.566,0.58v2.066c0,0.321,0.254,0.58,0.566,0.58h1.494v1.53
			c0,0.321,0.254,0.581,0.566,0.581h2.018c0.313,0,0.566-0.26,0.566-0.581v-1.53h1.494c0.313,0,0.565-0.259,0.565-0.58V6.996
			C24.013,6.676,23.76,6.416,23.447,6.416z M15.195,6.942c-0.043-0.282-0.279-0.49-0.559-0.49H8.093c-0.313,0-0.566,0.26-0.566,0.58
			v2.319c0,0.32,0.253,0.58,0.566,0.58h3.336c-0.153,0.344-0.394,0.705-0.699,1.043c-0.664,0.736-1.655,1.158-2.719,1.158
			c-1.086,0-2.126-0.436-2.854-1.196C3.644,9.355,3.662,6.6,5.195,5.039c0.722-0.734,1.716-1.155,2.728-1.155
			c0.687,0,1.346,0.189,1.909,0.549l0.643,0.45C10.698,5.04,11,5.013,11.192,4.816l1.875-1.903c0.12-0.121,0.181-0.291,0.165-0.464
			c-0.015-0.172-0.104-0.328-0.244-0.426l-1.089-0.766c-0.022-0.016-0.045-0.029-0.069-0.042l-1.056-0.534
			c-0.014-0.007-0.028-0.014-0.043-0.02C9.822,0.295,8.864,0.108,7.884,0.108c-2.02,0-3.926,0.794-5.366,2.236
			C1.056,3.81,0.243,5.801,0.229,7.953s0.773,4.155,2.216,5.64c1.432,1.474,3.464,2.318,5.575,2.318c2.088,0,4.048-0.83,5.375-2.278
			c1.052-1.147,1.698-2.68,1.867-4.432c0.002-0.017,0.003-0.033,0.003-0.05l0.02-1.574c0-0.032-0.002-0.064-0.007-0.097
			L15.195,6.942z"/>
	</g>
</g>
</svg>
