<?xml version="1.0" encoding="UTF-8" standalone="no"?>
<!-- Generator: Adobe Illustrator 16.0.0, SVG Export Plug-In . SVG Version: 6.00 Build 0)  -->

<svg
   xmlns:dc="http://purl.org/dc/elements/1.1/"
   xmlns:cc="http://creativecommons.org/ns#"
   xmlns:rdf="http://www.w3.org/1999/02/22-rdf-syntax-ns#"
   xmlns:svg="http://www.w3.org/2000/svg"
   xmlns="http://www.w3.org/2000/svg"
   xmlns:sodipodi="http://sodipodi.sourceforge.net/DTD/sodipodi-0.dtd"
   xmlns:inkscape="http://www.inkscape.org/namespaces/inkscape"
   version="1.1"
   id="Capa_1"
   x="0px"
   y="0px"
   width="33"
   height="33"
   viewBox="0 0 33 33"
   xml:space="preserve"
   inkscape:version="0.91 r13725"
   sodipodi:docname="Heart-product-default.svg"><metadata
   id="metadata45"><rdf:RDF><cc:Work
       rdf:about=""><dc:format>image/svg+xml</dc:format><dc:type
         rdf:resource="http://purl.org/dc/dcmitype/StillImage" /><dc:title></dc:title></cc:Work></rdf:RDF></metadata><defs
   id="defs43" /><sodipodi:namedview
   pagecolor="#ffffff"
   bordercolor="#666666"
   borderopacity="1"
   objecttolerance="10"
   gridtolerance="10"
   guidetolerance="10"
   inkscape:pageopacity="0"
   inkscape:pageshadow="2"
   inkscape:window-width="1298"
   inkscape:window-height="887"
   id="namedview41"
   showgrid="false"
   inkscape:zoom="8.7256052"
   inkscape:cx="12.427261"
   inkscape:cy="3.2891903"
   inkscape:window-x="472"
   inkscape:window-y="87"
   inkscape:window-maximized="0"
   inkscape:current-layer="Capa_1" />
<g
   id="g3"
   style="fill:#989898;fill-opacity:1;stroke:#989898;stroke-width:16.32112694;stroke-miterlimit:4;stroke-dasharray:none;stroke-opacity:1"
   transform="matrix(0.05252091,0,0,0.05252091,0.46831852,0.49610906)">
	<g
   id="g5"
   style="fill:#989898;fill-opacity:1;stroke:#989898;stroke-width:16.32112694;stroke-miterlimit:4;stroke-dasharray:none;stroke-opacity:1">
		<g
   id="g7"
   style="fill:#989898;fill-opacity:1;stroke:#989898;stroke-width:16.32112694;stroke-miterlimit:4;stroke-dasharray:none;stroke-opacity:1">
			<path
   d="m 305.992,580.365 0,0 c -3.54,0 -6.927,-1.422 -9.41,-3.938 L 77.001,353.557 C 27.374,303.929 0,244.828 0,187.201 0,94.155 61.816,31.635 153.828,31.635 c 79.094,0 110.44,35.135 152.164,84.176 41.724,-49.036 73.06,-84.176 152.158,-84.176 92.022,0 153.85,62.52 153.85,155.566 0,57.627 -27.363,116.733 -77.049,166.424 L 315.396,576.429 c -2.483,2.52 -5.87,3.936 -9.404,3.936 z M 153.828,58.052 c -77.397,0 -127.411,50.695 -127.411,129.149 0,50.568 24.621,103.038 69.335,147.747 l 210.24,213.395 210.213,-213.325 c 44.762,-44.772 69.378,-97.242 69.378,-147.815 0,-78.454 -50.024,-129.149 -127.433,-129.149 -68.362,0 -93.211,29.217 -134.381,77.625 l -7.744,9.088 c -2.511,2.938 -6.178,4.623 -10.033,4.623 l 0,0 c -3.857,0 -7.529,-1.685 -10.033,-4.623 l -7.693,-9.03 C 247.076,87.291 222.212,58.052 153.828,58.052 Z"
   id="path9"
   style="fill:#989898;fill-opacity:1;stroke:#989898;stroke-width:16.32112694;stroke-miterlimit:4;stroke-dasharray:none;stroke-opacity:1"
   inkscape:connector-curvature="0" />
		</g>
	</g>
</g>
<g
   id="g11"
   transform="translate(0,-579)">
</g>
<g
   id="g13"
   transform="translate(0,-579)">
</g>
<g
   id="g15"
   transform="translate(0,-579)">
</g>
<g
   id="g17"
   transform="translate(0,-579)">
</g>
<g
   id="g19"
   transform="translate(0,-579)">
</g>
<g
   id="g21"
   transform="translate(0,-579)">
</g>
<g
   id="g23"
   transform="translate(0,-579)">
</g>
<g
   id="g25"
   transform="translate(0,-579)">
</g>
<g
   id="g27"
   transform="translate(0,-579)">
</g>
<g
   id="g29"
   transform="translate(0,-579)">
</g>
<g
   id="g31"
   transform="translate(0,-579)">
</g>
<g
   id="g33"
   transform="translate(0,-579)">
</g>
<g
   id="g35"
   transform="translate(0,-579)">
</g>
<g
   id="g37"
   transform="translate(0,-579)">
</g>
<g
   id="g39"
   transform="translate(0,-579)">
</g>
</svg>