<svg xmlns="http://www.w3.org/2000/svg" width="33" height="33" viewBox="0 0 33 33"><path d="M16.54 30.977a.694.694 0 0 1-.495-.206L4.512 19.065C1.906 16.46.468 13.355.468 10.328c0-4.887 3.247-8.17 8.08-8.17 4.154 0 5.8 1.845 7.991 4.42 2.192-2.575 3.837-4.42 7.992-4.42 4.833 0 8.08 3.283 8.08 8.17 0 3.027-1.437 6.131-4.047 8.74l-11.53 11.703a.693.693 0 0 1-.495.206zM8.547 3.545c-4.065 0-6.692 2.663-6.692 6.783 0 2.656 1.293 5.412 3.641 7.76L16.54 29.296l11.04-11.204c2.352-2.352 3.645-5.108 3.645-7.764 0-4.12-2.628-6.783-6.693-6.783-3.59 0-4.896 1.535-7.058 4.077l-.407.477a.692.692 0 0 1-1.054 0l-.404-.474c-2.163-2.544-3.469-4.08-7.06-4.08z" fill="#346cab" stroke="#346cab" stroke-width=".8571789200000001"/></svg>