<?xml version="1.0" encoding="utf-8"?>
<!-- Generator: Adobe Illustrator 16.0.0, SVG Export Plug-In . SVG Version: 6.00 Build 0)  -->
<!DOCTYPE svg PUBLIC "-//W3C//DTD SVG 1.0//EN" "http://www.w3.org/TR/2001/REC-SVG-20010904/DTD/svg10.dtd">
<svg version="1.0" id="icon-gift_1_" xmlns="http://www.w3.org/2000/svg" xmlns:xlink="http://www.w3.org/1999/xlink" x="0px"
	 y="0px" width="18px" height="20px" viewBox="0 0 18 20" enable-background="new 0 0 18 20" xml:space="preserve">
<g id="icon-gift">
	<g>
		<path fill-rule="evenodd" clip-rule="evenodd" fill="#D9450A" d="M14.591,3.688c0.194-0.354,0.305-0.761,0.305-1.192
			C14.896,1.12,13.772,0,12.393,0c-1.021,0-2.065,0.525-2.865,1.443C9.328,1.67,9.152,1.914,9,2.168
			C8.847,1.914,8.671,1.67,8.473,1.443C7.672,0.525,6.628,0,5.607,0c-1.38,0-2.503,1.12-2.503,2.496c0,0.432,0.11,0.838,0.304,1.192
			H0v7.263h1.174V20h15.652v-9.049H18V3.688H14.591z M5.607,1.304c1.187,0,2.315,1.211,2.643,2.385H5.607
			c-0.659,0-1.195-0.535-1.195-1.192S4.948,1.304,5.607,1.304z M8.346,18.695H2.482v-7.744h5.864V18.695z M8.346,9.646H1.308V4.993
			h7.039V9.646z M12.393,1.304c0.658,0,1.195,0.535,1.195,1.192s-0.537,1.192-1.195,1.192H9.75
			C10.078,2.515,11.205,1.304,12.393,1.304z M15.518,18.695H9.654v-7.744h5.863V18.695z M16.691,9.646H9.654V4.993h7.037V9.646z"/>
	</g>
</g>
</svg>
