<svg xmlns="http://www.w3.org/2000/svg" viewBox="0 0 33.22 33.22"><g fill="#a1c5e1"><path d="M22.169 16.076l-7.061-4.623a1.013 1.013 0 0 0-.552-.174c-.5 0-.876.407-.876.946v9.333c0 .539.376.946.876.946.187 0 .378-.06.552-.174l7.06-4.624a.971.971 0 0 0 .463-.815.97.97 0 0 0-.462-.815zm-7.133 4.68v-7.728l5.901 3.863-5.9 3.864z"/><path d="M16.61 4.892c-6.617 0-12 5.383-12 12 0 6.616 5.383 12 12 12s12-5.384 12-12c0-6.617-5.383-12-12-12zm0 22.643c-5.869 0-10.644-4.775-10.644-10.644 0-5.868 4.775-10.643 10.644-10.643s10.644 4.775 10.644 10.643c0 5.87-4.775 10.644-10.644 10.644z"/></g></svg>