<svg xmlns="http://www.w3.org/2000/svg" viewBox="0 0 33.22 33.22"><g fill="#a1c5e1"><path d="M26.552 7.2h-3.25V5.7a.75.75 0 1 0-1.5 0v1.5h-4.5V5.7a.75.75 0 1 0-1.5 0v1.5h-4.5V5.7a.75.75 0 1 0-1.5 0v1.5h-3.25a2 2 0 0 0-2 2v17.75a2 2 0 0 0 2 2h20a2 2 0 0 0 2-2V9.2c0-1.105-.895-2-2-2zm.5 19.75a.5.5 0 0 1-.5.5h-20a.5.5 0 0 1-.5-.5V9.2a.5.5 0 0 1 .5-.5h3.25v1.5a.75.75 0 1 0 1.5 0V8.7h4.5v1.5a.75.75 0 1 0 1.5 0V8.7h4.5v1.5a.75.75 0 1 0 1.5 0V8.7h3.25a.5.5 0 0 1 .5.5v17.75z"/><path d="M9.801 13.95h3v2.25h-3zM9.801 17.7h3v2.25h-3zM9.801 21.45h3v2.25h-3zM15.051 21.45h3v2.25h-3zM15.051 17.7h3v2.25h-3zM15.051 13.95h3v2.25h-3zM20.301 21.45h3v2.25h-3zM20.301 17.7h3v2.25h-3zM20.301 13.95h3v2.25h-3z"/></g></svg>