<?xml version="1.0"?>
<!--Icons from directory ""-->
<svg xmlns="http://www.w3.org/2000/svg" width="35" height="70" viewBox="0 0 35 70"><svg width="35" viewBox="0 0 35 35.000001" height="35" id="Heart-menu-active" y="0"><path d="m17.822 28.16a0.53 0.53 0 0 1 -0.377 -0.157l-8.804-8.936c-1.99-1.99-3.087-4.36-3.087-6.67 0-3.73 2.479-6.237 6.168-6.237 3.17 0 4.427 1.41 6.1 3.375 1.673-1.966 2.93-3.375 6.1-3.375 3.69 0 6.169 2.507 6.169 6.238 0 2.31-1.097 4.68-3.09 6.672l-8.801 8.933a0.53 0.53 0 0 1 -0.377 0.157zm-6.1-20.94c-3.103 0-5.109 2.032-5.109 5.178 0 2.027 0.988 4.13 2.78 5.923l8.43 8.556 8.427-8.553c1.795-1.795 2.782-3.899 2.782-5.926 0-3.146-2.006-5.178-5.11-5.178-2.74 0-3.736 1.171-5.387 3.112l-0.31 0.364a0.529 0.529 0 0 1 -0.804 0l-0.31-0.362c-1.65-1.942-2.648-3.114-5.39-3.114z" fill="#346cab"/></svg><svg width="35" viewBox="0 0 35 35.000001" height="35" id="Heart-menu-default" y="35"><path d="m17.822 28.16a0.53 0.53 0 0 1 -0.377 -0.157l-8.804-8.936c-1.99-1.99-3.087-4.36-3.087-6.67 0-3.73 2.479-6.237 6.168-6.237 3.17 0 4.427 1.41 6.1 3.375 1.673-1.966 2.93-3.375 6.1-3.375 3.69 0 6.169 2.507 6.169 6.238 0 2.31-1.097 4.68-3.09 6.672l-8.801 8.933a0.53 0.53 0 0 1 -0.377 0.157zm-6.1-20.94c-3.103 0-5.109 2.032-5.109 5.178 0 2.027 0.988 4.13 2.78 5.923l8.43 8.556 8.427-8.553c1.795-1.795 2.782-3.899 2.782-5.926 0-3.146-2.006-5.178-5.11-5.178-2.74 0-3.736 1.171-5.387 3.112l-0.31 0.364a0.529 0.529 0 0 1 -0.804 0l-0.31-0.362c-1.65-1.942-2.648-3.114-5.39-3.114z" fill="#c2c2c2"/></svg></svg>
