<svg xmlns="http://www.w3.org/2000/svg" viewBox="0 0 512 512"><g fill="#999"><path d="M378.729 219.867c-.267-1.65-1.277-3.266-2.79-4.814-12.198 12.395-61.281 14.446-119.962 14.446-58.682 0-107.718-2.052-119.97-14.446-1.506 1.549-2.447 3.165-2.791 4.814h-.113l.033.895c0 .103-.033.206-.033.312 0 .241.068.456.104.685l9.552 195.701h.023c.848 15.346 18.416 38.54 113.195 38.54 94.791 0 112.37-23.194 113.194-38.541h.07l9.564-195.701c.017-.229.092-.444.092-.685 0-.106-.075-.209-.075-.312l.075-.895h-.168zM314.383 117.443V71.236c0-8.346-6.83-15.236-15.227-15.236h-91.447c-8.339 0-15.202 6.891-15.202 15.236v46.733c-45.21 5.129-76.164 15.512-76.164 27.544v22.84c0 4.688 4.745 9.145 13.261 13.169 22.3 10.479 70.512 17.745 126.374 17.745 55.907 0 104.095-7.266 126.426-17.745 8.463-4.023 13.254-8.481 13.254-13.169v-22.84c-.001-12.452-33.338-23.171-81.275-28.07zm-92.644-1.915l-3.854.241v-19.14c0-8.369 1.167-15.222 2.551-15.222h66.021c1.402 0 2.547 6.854 2.547 15.222v18.831c-10.594-.55-21.618-.893-33.025-.893-11.824 0-23.305.343-34.24.961z"/></g></svg>