<?xml version="1.0" encoding="UTF-8" standalone="no"?>
<!-- Generator: Adobe Illustrator 18.1.1, SVG Export Plug-In . SVG Version: 6.00 Build 0)  -->

<svg
   xmlns:dc="http://purl.org/dc/elements/1.1/"
   xmlns:cc="http://creativecommons.org/ns#"
   xmlns:rdf="http://www.w3.org/1999/02/22-rdf-syntax-ns#"
   xmlns:svg="http://www.w3.org/2000/svg"
   xmlns="http://www.w3.org/2000/svg"
   xmlns:sodipodi="http://sodipodi.sourceforge.net/DTD/sodipodi-0.dtd"
   xmlns:inkscape="http://www.inkscape.org/namespaces/inkscape"
   version="1.1"
   id="Capa_1"
   x="0px"
   y="0px"
   viewBox="0 0 33.22 33.22"
   style="enable-background:new 0 0 33.22 33.22;"
   xml:space="preserve"
   inkscape:version="0.91 r13725"
   sodipodi:docname="Menu-down-list.svg"><metadata
   id="metadata51"><rdf:RDF><cc:Work
       rdf:about=""><dc:format>image/svg+xml</dc:format><dc:type
         rdf:resource="http://purl.org/dc/dcmitype/StillImage" /><dc:title></dc:title></cc:Work></rdf:RDF></metadata><defs
   id="defs49" /><sodipodi:namedview
   pagecolor="#ffffff"
   bordercolor="#666666"
   borderopacity="1"
   objecttolerance="10"
   gridtolerance="10"
   guidetolerance="10"
   inkscape:pageopacity="0"
   inkscape:pageshadow="2"
   inkscape:window-width="1103"
   inkscape:window-height="600"
   id="namedview47"
   showgrid="false"
   inkscape:zoom="7.1041539"
   inkscape:cx="16.610001"
   inkscape:cy="16.610001"
   inkscape:window-x="484"
   inkscape:window-y="166"
   inkscape:window-maximized="0"
   inkscape:current-layer="g3" />
<g
   id="g3"
   style="fill:#a1c5e1;fill-opacity:1">
	<rect
   x="8.8063869"
   y="7.2828646"
   style="fill:#a1c5e1;fill-opacity:1"
   width="20.112686"
   height="3.4147851"
   id="rect5" />
	<rect
   x="8.8063869"
   y="15.215182"
   style="fill:#a1c5e1;fill-opacity:1"
   width="13.800313"
   height="3.4134462"
   id="rect7" />
	<rect
   x="8.6656246"
   y="22.685678"
   style="fill:#a1c5e1;fill-opacity:1"
   width="16.564898"
   height="3.4134462"
   id="rect9" />
	<polygon
   style="fill:#a1c5e1;fill-opacity:1"
   points="3.038,11.369 3.038,4.74 1.765,4.74 0,5.558 0.255,6.72 1.519,6.119 1.539,6.119 1.539,11.369 "
   id="polygon11"
   transform="matrix(0.85466765,0,0,0.85466765,2.8152543,1.614621)" />
	<path
   style="fill:#a1c5e1;fill-opacity:1"
   d="m 6.7552722,18.988304 -2.1024825,0 0,-0.01795 0.5128006,-0.427334 c 0.8110796,-0.716211 1.4785751,-1.458917 1.4785751,-2.392214 0,-1.010217 -0.6837341,-1.742668 -1.9477876,-1.742668 -0.7452702,0 -1.4016549,0.255546 -1.8127501,0.570918 l 0.3683618,0.924751 c 0.2897323,-0.213665 0.7102288,-0.453827 1.1871333,-0.453827 0.6418554,0 0.9068024,0.36067 0.9068024,0.81108 -0.00855,0.651257 -0.5982673,1.273455 -1.8195874,2.367429 l -0.7110835,0.640146 0,0.789713 3.9400179,0 0,-1.070044 z"
   id="path13"
   inkscape:connector-curvature="0" />
	<path
   style="fill:#a1c5e1;fill-opacity:1"
   d="m 5.6399309,24.555609 0,-0.01709 c 0.6974088,-0.236743 1.0367118,-0.716211 1.0367118,-1.317043 0,-0.776038 -0.6709141,-1.408492 -1.8734314,-1.408492 -0.7409969,0 -1.4110563,0.206829 -1.751214,0.423915 l 0.2709296,0.959792 c 0.2264869,-0.140166 0.7136475,-0.338449 1.175168,-0.338449 0.5674993,0 0.838429,0.250418 0.838429,0.590576 0,0.480323 -0.5589527,0.652966 -1.0033799,0.652966 l -0.5128005,0 0,0.949536 0.5392952,0 c 0.5751914,0 1.134144,0.253836 1.134144,0.819626 0,0.418787 -0.3495591,0.749543 -1.0375665,0.749543 -0.54015,0 -1.0811546,-0.217085 -1.3161882,-0.348704 l -0.2709296,1.00338 c 0.3324657,0.19828 0.9512451,0.39058 1.6828406,0.39058 1.437551,0 2.3187133,-0.730741 2.3187133,-1.72301 0,-0.751253 -0.5486966,-1.267472 -1.2307214,-1.387126 z"
   id="path15"
   inkscape:connector-curvature="0" />
</g>
<g
   id="g17">
</g>
<g
   id="g19">
</g>
<g
   id="g21">
</g>
<g
   id="g23">
</g>
<g
   id="g25">
</g>
<g
   id="g27">
</g>
<g
   id="g29">
</g>
<g
   id="g31">
</g>
<g
   id="g33">
</g>
<g
   id="g35">
</g>
<g
   id="g37">
</g>
<g
   id="g39">
</g>
<g
   id="g41">
</g>
<g
   id="g43">
</g>
<g
   id="g45">
</g>
</svg>