<?xml version="1.0" encoding="UTF-8" standalone="no"?>
<!-- Generator: Adobe Illustrator 16.0.0, SVG Export Plug-In . SVG Version: 6.00 Build 0)  -->

<svg
   xmlns:dc="http://purl.org/dc/elements/1.1/"
   xmlns:cc="http://creativecommons.org/ns#"
   xmlns:rdf="http://www.w3.org/1999/02/22-rdf-syntax-ns#"
   xmlns:svg="http://www.w3.org/2000/svg"
   xmlns="http://www.w3.org/2000/svg"
   xmlns:sodipodi="http://sodipodi.sourceforge.net/DTD/sodipodi-0.dtd"
   xmlns:inkscape="http://www.inkscape.org/namespaces/inkscape"
   version="1.1"
   id="Capa_1"
   x="0px"
   y="0px"
   width="23"
   height="23"
   viewBox="0 0 23 23"
   xml:space="preserve"
   inkscape:version="0.91 r13725"
   sodipodi:docname="Menu-down-new.svg"><metadata
   id="metadata45"><rdf:RDF><cc:Work
       rdf:about=""><dc:format>image/svg+xml</dc:format><dc:type
         rdf:resource="http://purl.org/dc/dcmitype/StillImage" /><dc:title></dc:title></cc:Work></rdf:RDF></metadata><defs
   id="defs43" /><sodipodi:namedview
   pagecolor="#ffffff"
   bordercolor="#666666"
   borderopacity="1"
   objecttolerance="10"
   gridtolerance="10"
   guidetolerance="10"
   inkscape:pageopacity="0"
   inkscape:pageshadow="2"
   inkscape:window-width="1098"
   inkscape:window-height="670"
   id="namedview41"
   showgrid="false"
   inkscape:zoom="8.7256052"
   inkscape:cx="-2.409071"
   inkscape:cy="20.903862"
   inkscape:window-x="841"
   inkscape:window-y="249"
   inkscape:window-maximized="0"
   inkscape:current-layer="Capa_1" />

<g
   id="g11"
   transform="translate(0,-589)">
</g>
<g
   id="g13"
   transform="translate(0,-589)">
</g>
<g
   id="g15"
   transform="translate(0,-589)">
</g>
<g
   id="g17"
   transform="translate(0,-589)">
</g>
<g
   id="g19"
   transform="translate(0,-589)">
</g>
<g
   id="g21"
   transform="translate(0,-589)">
</g>
<g
   id="g23"
   transform="translate(0,-589)">
</g>
<g
   id="g25"
   transform="translate(0,-589)">
</g>
<g
   id="g27"
   transform="translate(0,-589)">
</g>
<g
   id="g29"
   transform="translate(0,-589)">
</g>
<g
   id="g31"
   transform="translate(0,-589)">
</g>
<g
   id="g33"
   transform="translate(0,-589)">
</g>
<g
   id="g35"
   transform="translate(0,-589)">
</g>
<g
   id="g37"
   transform="translate(0,-589)">
</g>
<g
   id="g39"
   transform="translate(0,-589)">
</g>
<path
   d="M 22.032312,9.9665635 C 22.010152,9.8418795 21.933842,9.7331804 21.823866,9.6703054 L 18.545632,7.79919 18.564172,4.0243514 C 18.564812,3.8975351 18.508752,3.7771147 18.411781,3.6956966 18.314801,3.6142756 18.18671,3.5801774 18.061599,3.6027736 L 14.34729,4.2771343 11.93545,1.373379 c -0.161983,-0.1948066 -0.493833,-0.1948066 -0.655816,0 L 8.8675853,4.277343 5.1534896,3.6031959 C 5.0285932,3.5808212 4.900498,3.6147076 4.8033088,3.6961191 4.7061186,3.7777499 4.6504907,3.8979576 4.6511306,4.0247739 l 0.01897,3.7748386 -3.2786609,1.8706889 c -0.1101907,0.06287 -0.1864929,0.1715741 -0.2086589,0.2962581 -0.021955,0.1248975 0.01279,0.2529915 0.09463,0.3497555 l 2.4403987,2.880097 -1.3080109,3.54039 c -0.043901,0.11893 -0.032608,0.251287 0.030692,0.360626 0.0633,0.109764 0.1722134,0.18564 0.2971107,0.207379 l 3.7207023,0.637062 1.2734835,3.553391 c 0.042842,0.11957 0.1364062,0.213562 0.2555496,0.256615 0.1189288,0.04348 0.2510726,0.03154 0.3608379,-0.03197 l 3.259476,-1.903938 3.259692,1.903938 c 0.06628,0.03858 0.140243,0.05776 0.215266,0.05776 0.0488,0 0.09847,-0.0085 0.145785,-0.02557 0.119143,-0.04326 0.212709,-0.137685 0.255549,-0.256827 l 1.273909,-3.553391 3.720278,-0.636849 c 0.124897,-0.02174 0.23381,-0.0974 0.297537,-0.20738 0.06352,-0.109766 0.0746,-0.242123 0.03069,-0.360625 l -1.308863,-3.540604 2.440185,-2.880097 c 0.08185,-0.09698 0.116585,-0.224858 0.09463,-0.3497555 z"
   id="path5"
   style="fill:#ffffff;fill-opacity:1;stroke:#008d92;stroke-width:1.43061352;stroke-miterlimit:4;stroke-dasharray:none;stroke-opacity:1"
   inkscape:connector-curvature="0"
   sodipodi:nodetypes="ccccsccccccccccccccccccccccsccccccccc" /><text
   xml:space="preserve"
   style="font-style:normal;font-weight:normal;font-size:11.07428646px;line-height:125%;font-family:sans-serif;letter-spacing:0px;word-spacing:0px;fill:#008d92;fill-opacity:1;stroke:none;stroke-width:1px;stroke-linecap:butt;stroke-linejoin:miter;stroke-opacity:1"
   x="6.8359604"
   y="15.579109"
   id="text4171"
   sodipodi:linespacing="125%"><tspan
     sodipodi:role="line"
     id="tspan4173"
     x="6.8359604"
     y="15.579109"
     style="font-style:normal;font-variant:normal;font-weight:bold;font-stretch:normal;font-family:sans-serif;-inkscape-font-specification:'sans-serif Bold'">N</tspan></text>
</svg>