<?xml version="1.0" encoding="UTF-8" standalone="no"?>
<!-- Generator: Adobe Illustrator 16.0.0, SVG Export Plug-In . SVG Version: 6.00 Build 0)  -->

<svg
   xmlns:dc="http://purl.org/dc/elements/1.1/"
   xmlns:cc="http://creativecommons.org/ns#"
   xmlns:rdf="http://www.w3.org/1999/02/22-rdf-syntax-ns#"
   xmlns:svg="http://www.w3.org/2000/svg"
   xmlns="http://www.w3.org/2000/svg"
   xmlns:sodipodi="http://sodipodi.sourceforge.net/DTD/sodipodi-0.dtd"
   xmlns:inkscape="http://www.inkscape.org/namespaces/inkscape"
   version="1.1"
   id="Capa_1"
   x="0px"
   y="0px"
   width="23"
   height="23"
   viewBox="0 0 23 23"
   xml:space="preserve"
   inkscape:version="0.91 r13725"
   sodipodi:docname="Menu-down-sale.svg"><metadata
   id="metadata45"><rdf:RDF><cc:Work
       rdf:about=""><dc:format>image/svg+xml</dc:format><dc:type
         rdf:resource="http://purl.org/dc/dcmitype/StillImage" /><dc:title></dc:title></cc:Work></rdf:RDF></metadata><defs
   id="defs43" /><sodipodi:namedview
   pagecolor="#ffffff"
   bordercolor="#666666"
   borderopacity="1"
   objecttolerance="10"
   gridtolerance="10"
   guidetolerance="10"
   inkscape:pageopacity="0"
   inkscape:pageshadow="2"
   inkscape:window-width="1098"
   inkscape:window-height="670"
   id="namedview41"
   showgrid="false"
   inkscape:zoom="8.7256052"
   inkscape:cx="-2.409071"
   inkscape:cy="10.376354"
   inkscape:window-x="566"
   inkscape:window-y="261"
   inkscape:window-maximized="0"
   inkscape:current-layer="Capa_1" />

<g
   id="g11"
   transform="translate(0,-589)">
</g>
<g
   id="g13"
   transform="translate(0,-589)">
</g>
<g
   id="g15"
   transform="translate(0,-589)">
</g>
<g
   id="g17"
   transform="translate(0,-589)">
</g>
<g
   id="g19"
   transform="translate(0,-589)">
</g>
<g
   id="g21"
   transform="translate(0,-589)">
</g>
<g
   id="g23"
   transform="translate(0,-589)">
</g>
<g
   id="g25"
   transform="translate(0,-589)">
</g>
<g
   id="g27"
   transform="translate(0,-589)">
</g>
<g
   id="g29"
   transform="translate(0,-589)">
</g>
<g
   id="g31"
   transform="translate(0,-589)">
</g>
<g
   id="g33"
   transform="translate(0,-589)">
</g>
<g
   id="g35"
   transform="translate(0,-589)">
</g>
<g
   id="g37"
   transform="translate(0,-589)">
</g>
<g
   id="g39"
   transform="translate(0,-589)">
</g>
<g
   id="g3"
   transform="matrix(0.04259298,0,0,0.04259298,0.46590309,0.66937478)"
   style="fill:#fc1635;fill-opacity:1"><g
     id="g5"
     style="fill:#fc1635;fill-opacity:1"><path
       d="m 42.925,17 0,364.65 c 0,5.95 3.117,11.617 8.217,14.45 l 196.633,117.867 c 2.833,1.7 5.667,2.55 8.783,2.55 3.117,0 6.233,-0.85 9.067,-2.55 L 465.658,388.734 c 5.1,-3.117 7.933,-8.5 7.933,-14.45 l 0,-357.284 c 0,-9.35 -7.65,-17 -17,-17 L 59.925,0 c -9.35,0 -17,7.65 -17,17 z m 34,17 362.667,0 0,330.933 -183.317,114.75 -179.35,-107.666 0,-338.017 0,0 z"
       id="path7"
       inkscape:connector-curvature="0"
       style="fill:#fc1635;fill-opacity:1" /><path
       d="m 242.392,133.45 c 0,-35.133 -28.617,-63.75 -63.75,-63.75 -35.133,0 -63.467,28.9 -63.467,63.75 0,34.85 28.617,63.75 63.75,63.75 35.133,0 63.467,-28.617 63.467,-63.75 z m -93.217,0 c 0,-16.433 13.317,-29.75 29.75,-29.75 16.433,0 29.467,13.6 29.467,29.75 0,16.15 -13.317,29.75 -29.467,29.75 -16.15,0 -29.75,-13.317 -29.75,-29.75 z"
       id="path9"
       inkscape:connector-curvature="0"
       style="fill:#fc1635;fill-opacity:1" /><path
       d="m 265.342,315.917 c 0,35.133 28.617,63.75 63.75,63.75 35.133,0 63.75,-28.617 63.75,-63.75 0,-35.133 -28.9,-63.467 -63.75,-63.467 -34.85,0 -63.75,28.617 -63.75,63.467 z m 93.216,0 c 0,16.433 -13.317,29.75 -29.75,29.75 -16.433,0 -29.75,-13.317 -29.75,-29.75 0,-16.433 13.6,-29.467 30.033,-29.467 16.434,0 29.467,13.317 29.467,29.467 z"
       id="path11"
       inkscape:connector-curvature="0"
       style="fill:#fc1635;fill-opacity:1" /><path
       d="m 356.858,86.983 c -7.367,-5.667 -18.133,-4.25 -23.8,3.117 L 155.692,323.567 c -5.667,7.367 -4.25,18.133 3.117,23.8 3.117,2.267 6.8,3.4 10.2,3.4 5.1,0 10.2,-2.267 13.6,-6.8 l 177.65,-233.183 c 5.666,-7.367 4.249,-18.134 -3.401,-23.801 z"
       id="path13"
       inkscape:connector-curvature="0"
       style="fill:#fc1635;fill-opacity:1" /></g></g></svg>