<svg xmlns="http://www.w3.org/2000/svg" width="23" height="23" viewBox="0 0 23 23"><path d="M22.032 9.967a.427.427 0 0 0-.208-.297L18.546 7.8l.018-3.776a.427.427 0 0 0-.502-.421l-3.715.674-2.412-2.904a.441.441 0 0 0-.655 0L8.868 4.277l-3.715-.674a.427.427 0 0 0-.502.422l.02 3.775-3.28 1.87a.427.427 0 0 0-.114.646l2.44 2.88-1.307 3.54a.426.426 0 0 0 .328.569l3.72.637 1.274 3.553a.425.425 0 0 0 .616.225l3.26-1.904 3.26 1.904a.426.426 0 0 0 .616-.225l1.274-3.553 3.72-.637a.428.428 0 0 0 .328-.568l-1.309-3.54 2.44-2.88a.427.427 0 0 0 .095-.35z" fill="#fff" stroke="#008d92" stroke-width="1.431"/><text style="line-height:125%" x="6.836" y="15.579" font-weight="400" font-size="11.074" font-family="sans-serif" letter-spacing="0" word-spacing="0" fill="#008d92"><tspan x="6.836" y="15.579" style="-inkscape-font-specification:'sans-serif Bold'" font-weight="700">N</tspan></text></svg>