<svg xmlns="http://www.w3.org/2000/svg" width="35" height="35" viewBox="0 0 35 35.000001"><g fill="#c2c2c2"><path d="M22.174 16.8v-.821c.382-.12.685-.349.914-.69.23-.343.344-.74.344-1.189 0-.457-.127-.847-.383-1.17a1.877 1.877 0 0 0-.401-.371 5.923 5.923 0 0 0-.677-.41c-.315-.166-.526-.311-.63-.433a.696.696 0 0 1-.158-.468c0-.206.065-.378.196-.515a.654.654 0 0 1 .494-.206c.32 0 .58.212.777.635l.66-.432c-.154-.323-.316-.562-.484-.718a1.292 1.292 0 0 0-.653-.31v-.777h-.59v.777a1.775 1.775 0 0 0-.491.23 1.482 1.482 0 0 0-.588.793c-.052.164-.078.341-.078.531 0 .402.11.747.328 1.035.138.194.426.404.862.635.212.113.386.218.522.315.136.096.24.183.31.26.137.158.205.369.205.63 0 .293-.082.533-.246.717a.798.798 0 0 1-.622.282c-.255 0-.459-.083-.612-.247-.146-.172-.27-.459-.372-.86l-.744.184c.11.568.281.989.514 1.261.232.272.57.451 1.011.536v.796h.592z"/><path d="M30.744 12.863a9 9 0 1 0-18 0 9 9 0 0 0 18 0zm-16.875 0a7.875 7.875 0 1 1 15.75 0 7.875 7.875 0 0 1-15.75 0z"/></g><circle cx="12.016" cy="21.901" r="8.523" fill="rgba(255, 255, 255, 0)"/><g fill="#c2c2c2"><path d="M12.21 26.206v-.821c.38-.12.684-.35.913-.69.23-.343.344-.74.344-1.19 0-.456-.127-.846-.382-1.17a1.877 1.877 0 0 0-.402-.37 5.923 5.923 0 0 0-.677-.41c-.315-.166-.526-.312-.63-.433a.696.696 0 0 1-.158-.468c0-.206.065-.378.196-.515a.654.654 0 0 1 .494-.206c.32 0 .58.211.777.634l.66-.432c-.154-.323-.316-.561-.484-.717a1.292 1.292 0 0 0-.653-.31v-.777h-.59v.777a1.775 1.775 0 0 0-.49.23 1.482 1.482 0 0 0-.59.793c-.051.164-.077.34-.077.53 0 .402.11.748.329 1.036.137.193.425.404.861.634.212.114.386.219.522.315.136.097.24.184.31.26.137.159.206.37.206.63 0 .294-.083.534-.247.718a.798.798 0 0 1-.622.281c-.255 0-.459-.082-.612-.246-.146-.172-.27-.46-.372-.86l-.744.184c.11.568.281.989.514 1.26.232.273.57.452 1.012.536v.797h.591z"/><path d="M20.78 22.268a9 9 0 1 0-18.001.001 9 9 0 0 0 18 0zm-16.875 0a7.875 7.875 0 1 1 15.75 0 7.875 7.875 0 0 1-15.75 0z"/></g></svg>
