<svg xmlns="http://www.w3.org/2000/svg" width="23" height="23" viewBox="0 0 23 23"><path d="M2.784.84l-.646.59C1.345 2.16.894 3.244.836 4.564c-.143 3.262 2 7.73 5.598 11.665 5.223 5.712 11.52 8.166 14.334 5.583l.644-.591c.48-.441.76-1.043.789-1.696a2.432 2.432 0 0 0-.639-1.758l-2.359-2.582a2.439 2.439 0 0 0-3.447-.151l-.644.59c-.687.63-2.382.253-5.081-2.7-2.298-2.514-2.596-3.924-2.569-4.541.015-.327.123-.578.33-.767l.643-.59c.962-.882 1.034-2.493.152-3.454L6.227.99A2.413 2.413 0 0 0 4.536.2 2.416 2.416 0 0 0 2.784.84zm2.424 1.09l2.359 2.58c.38.417.35 1.11-.066 1.491l-.643.59c-.478.44-.748 1.037-.779 1.73-.065 1.477.922 3.342 2.931 5.54 4.148 4.539 6.306 3.46 7.04 2.787l.643-.59a1.051 1.051 0 0 1 1.487.065l2.36 2.58c.38.418.349 1.112-.066 1.492l-.643.59c-2.168 1.988-7.834-.53-12.375-5.497-3.306-3.617-5.36-7.802-5.235-10.665.043-.958.33-1.687.855-2.168l.643-.59c.208-.19.478-.288.758-.276.28.01.54.132.73.34z" fill="#a1c5e1"/></svg>