<?xml version="1.0" encoding="UTF-8" standalone="no"?>
<svg
   xmlns:dc="http://purl.org/dc/elements/1.1/"
   xmlns:cc="http://creativecommons.org/ns#"
   xmlns:rdf="http://www.w3.org/1999/02/22-rdf-syntax-ns#"
   xmlns:svg="http://www.w3.org/2000/svg"
   xmlns="http://www.w3.org/2000/svg"
   xmlns:sodipodi="http://sodipodi.sourceforge.net/DTD/sodipodi-0.dtd"
   xmlns:inkscape="http://www.inkscape.org/namespaces/inkscape"
   viewBox="0 0 24 26.666668"
   height="26.666668"
   width="24"
   xml:space="preserve"
   id="svg46"
   version="1.1"
   sodipodi:docname="present-icon.svg"
   inkscape:version="0.92.1 r"><sodipodi:namedview
     pagecolor="#ffffff"
     bordercolor="#666666"
     borderopacity="1"
     objecttolerance="10"
     gridtolerance="10"
     guidetolerance="10"
     inkscape:pageopacity="0"
     inkscape:pageshadow="2"
     inkscape:window-width="1916"
     inkscape:window-height="1032"
     id="namedview4537"
     showgrid="false"
     inkscape:zoom="31.312499"
     inkscape:cx="12"
     inkscape:cy="15.888224"
     inkscape:window-x="0"
     inkscape:window-y="22"
     inkscape:window-maximized="0"
     inkscape:current-layer="svg46" /><metadata
     id="metadata52"><rdf:RDF><cc:Work
         rdf:about=""><dc:format>image/svg+xml</dc:format><dc:type
           rdf:resource="http://purl.org/dc/dcmitype/StillImage" /><dc:title /></cc:Work></rdf:RDF></metadata><defs
     id="defs50" /><g
     id="g54"
     transform="matrix(1.3333333,0,0,-1.3333333,0,26.666667)"
     style="stroke:none;fill:#d94500;fill-opacity:1"><path
       style="stroke-width:18.97366524;fill:#d94500;stroke:none;fill-opacity:1"
       id="path64"
       d="m 17.999395,16.311126 h -3.408294 c 0.19454,0.355382 0.304831,0.761314 0.304831,1.191754 0,1.377104 -1.122823,2.496864 -2.502991,2.496864 -1.021724,0 -2.066424,-0.525414 -2.8660324,-1.442972 -0.197604,-0.22671 -0.3737628,-0.4718 -0.5269446,-0.72455 -0.1531818,0.25275 -0.3293424,0.49784 -0.5269464,0.72455 -0.7996086,0.917558 -1.8443088,1.442972 -2.866032,1.442972 -1.380168,0 -2.50299,-1.11976 -2.50299,-2.496864 0,-0.43044 0.110286,-0.836372 0.3048318,-1.191754 H 5.31e-4 V 9.048776 H 1.1739042 V 3.26e-4 H 16.826022 v 9.04845 h 1.173373 z M 16.692754,10.353884 H 9.6540498 v 4.653664 h 7.0387042 z m -4.299813,8.342282 c 0.658681,0 1.194818,-0.534604 1.194818,-1.193286 0,-0.65715 -0.536137,-1.191754 -1.194818,-1.191754 H 9.7490232 c 0.3293408,1.173372 1.4567578,2.38504 2.6439178,2.38504 z M 4.4121672,17.50288 c 0,0.658682 0.5361372,1.193286 1.1948184,1.193286 1.1871594,0 2.3145768,-1.211668 2.6439192,-2.38504 H 5.6069856 c -0.6586812,0 -1.1948184,0.534604 -1.1948184,1.191754 z M 1.3071726,15.007548 H 8.3458764 V 10.353884 H 1.3071726 Z M 2.4820776,9.048776 H 8.3458764 V 1.303902 H 2.4820776 Z M 15.51785,1.303902 H 9.6540498 V 9.048776 H 15.51785 Z" /><path
       transform="matrix(0.75000002,0,0,-0.75000002,0,20.000001)"
       id="path907"
       d="M 1.6005865,20.594236 V 14.558308 H 0.80218325 0.00378002 V 9.7678886 4.9774692 H 2.2712452 c 1.2471058,0 2.2674652,-0.018079 2.2674652,-0.040176 0,-0.022097 -0.070059,-0.234397 -0.1556871,-0.4717776 C 3.9289784,3.206797 4.2468699,1.8633971 5.2125225,0.96007648 5.9639017,0.257198 6.6079518,0.02754373 7.6950736,0.07485267 8.284697,0.10051168 8.4949478,0.13963633 8.9533763,0.30900442 9.9850838,0.69017263 11.065717,1.5539038 11.707137,2.5100357 l 0.290995,0.4337721 0.230657,-0.3474993 c 0.778104,-1.1722633 2.113467,-2.15986391 3.29595,-2.43760139 0.547284,-0.12854419 1.478211,-0.12739248 1.920543,0.002376 1.037212,0.30429066 1.927133,1.18226979 2.23897,2.20892699 0.18864,0.621057 0.151754,1.5720738 -0.08308,2.142091 -0.08994,0.2182991 -0.148116,0.4123111 -0.129289,0.4311378 0.01883,0.018827 1.035427,0.03423 2.259114,0.03423 h 2.224883 v 4.7904197 4.7904194 h -0.76647 -0.766467 v 6.035928 6.035929 H 12.011765 1.6005865 Z m 9.5489025,-0.830339 v -5.173653 l -3.9441118,-0.01646 -3.944112,-0.01646 v 5.206564 5.206564 l 3.944112,-0.01646 3.9441118,-0.01645 z m 9.548903,0 v -5.205589 h -3.928144 -3.928144 v 5.205589 5.205589 h 3.928144 3.928144 z M 11.181425,9.7678886 V 6.6381479 H 6.4548781 1.728331 v 3.1297407 3.1297404 h 4.7265471 4.7265469 z m 11.113773,0 V 6.6381479 h -4.726547 -4.726547 v 3.1297407 3.1297404 h 4.726547 4.726547 z M 10.989808,4.8840569 c 0,-0.4212652 -0.668196,-1.5231662 -1.2857787,-2.1203358 C 8.986342,2.0697551 8.241177,1.7193012 7.486074,1.720608 6.0704242,1.7230581 5.3316152,3.4611462 6.3242741,4.4538054 6.7961055,4.9256362 6.9980938,4.9617087 9.2173533,4.970471 10.733272,4.976461 10.989808,4.963951 10.989808,4.8840569 Z m 6.136383,-0.044225 c 0.781286,-0.3487797 1.192769,-1.2349586 0.930643,-2.0042567 -0.605892,-1.7781954 -3.106341,-1.3369551 -4.47878,0.7903454 -0.337613,0.5233052 -0.633461,1.1951379 -0.57088,1.2963957 0.02733,0.044216 0.680935,0.05845 1.965878,0.042813 1.587529,-0.01932 1.96494,-0.041282 2.153139,-0.1252974 z"
       style="opacity:1;fill:#d94500;fill-opacity:1;stroke:none;stroke-width:0.12774451;stroke-miterlimit:4;stroke-dasharray:none;stroke-opacity:1" /></g></svg>