<svg xmlns="http://www.w3.org/2000/svg" viewBox="0 0 24 26.666668" height="26.667" width="24"><g fill="#d94500"><path d="M24 4.918h-4.545c.26-.473.406-1.015.406-1.589A3.337 3.337 0 0 0 16.524 0c-1.362 0-2.755.7-3.821 1.924-.264.303-.499.63-.703.966a6.974 6.974 0 0 0-.703-.966C10.231.701 8.838 0 7.476 0a3.337 3.337 0 0 0-3.337 3.33c0 .573.147 1.115.406 1.588H.001v9.684h1.564v12.064h20.87V14.602h1.564zm-1.743 7.943h-9.385V6.657h9.385zM16.524 1.738c.878 0 1.593.713 1.593 1.591 0 .877-.715 1.59-1.593 1.59h-3.525c.439-1.565 1.942-3.18 3.525-3.18zM5.883 3.33c0-.878.715-1.59 1.593-1.59 1.583 0 3.086 1.615 3.525 3.18H7.476a1.593 1.593 0 0 1-1.593-1.59zm-4.14 3.328h9.385v6.204H1.743zm1.566 7.945h7.819v10.326H3.309zM20.69 24.928h-7.818V14.602h7.818z"/><path d="M1.6 20.594v-6.036H.005v-9.58H2.27c1.247 0 2.268-.019 2.268-.04 0-.023-.07-.235-.156-.472-.454-1.26-.136-2.603.83-3.506.75-.703 1.395-.932 2.482-.885.59.026.8.065 1.258.234 1.032.381 2.113 1.245 2.754 2.201l.291.434.23-.348c.779-1.172 2.114-2.16 3.297-2.437.547-.129 1.478-.128 1.92.002 1.037.304 1.927 1.182 2.24 2.209.188.621.151 1.572-.084 2.142-.09.218-.148.412-.13.431.02.02 1.036.034 2.26.034h2.225v9.581h-1.533V26.63H1.6zm9.55-.83V14.59l-3.945-.016-3.944-.017V24.97l3.944-.016 3.944-.016zm9.548 0v-5.206h-7.856V24.97h7.856zm-9.517-9.996v-3.13H1.728v6.26h9.453zm11.114 0v-3.13h-9.453v6.26h9.453zM10.99 4.884c0-.421-.668-1.523-1.286-2.12-.718-.694-1.463-1.045-2.218-1.043-1.416.002-2.154 1.74-1.162 2.733.472.472.674.508 2.893.516 1.516.006 1.773-.006 1.773-.086zm6.136-.044c.781-.349 1.193-1.235.93-2.004-.605-1.779-3.106-1.337-4.478.79-.338.523-.633 1.195-.57 1.296.027.045.68.059 1.965.043 1.588-.02 1.965-.041 2.153-.125z"/></g></svg>