<?xml version="1.0"?>
<!--Icons from directory ""-->
<svg xmlns="http://www.w3.org/2000/svg" width="35" height="210" viewBox="0 0 35 210"><svg width="35" viewBox="0 0 35 35.000001" height="35" id="Heart-menu-active" y="0"><path d="m17.822 28.16a0.53 0.53 0 0 1 -0.377 -0.157l-8.804-8.936c-1.99-1.99-3.087-4.36-3.087-6.67 0-3.73 2.479-6.237 6.168-6.237 3.17 0 4.427 1.41 6.1 3.375 1.673-1.966 2.93-3.375 6.1-3.375 3.69 0 6.169 2.507 6.169 6.238 0 2.31-1.097 4.68-3.09 6.672l-8.801 8.933a0.53 0.53 0 0 1 -0.377 0.157zm-6.1-20.94c-3.103 0-5.109 2.032-5.109 5.178 0 2.027 0.988 4.13 2.78 5.923l8.43 8.556 8.427-8.553c1.795-1.795 2.782-3.899 2.782-5.926 0-3.146-2.006-5.178-5.11-5.178-2.74 0-3.736 1.171-5.387 3.112l-0.31 0.364a0.529 0.529 0 0 1 -0.804 0l-0.31-0.362c-1.65-1.942-2.648-3.114-5.39-3.114z" fill="#346cab"/></svg><svg width="35" viewBox="0 0 35 35.000001" height="35" id="Heart-menu-default" y="35"><path d="m17.822 28.16a0.53 0.53 0 0 1 -0.377 -0.157l-8.804-8.936c-1.99-1.99-3.087-4.36-3.087-6.67 0-3.73 2.479-6.237 6.168-6.237 3.17 0 4.427 1.41 6.1 3.375 1.673-1.966 2.93-3.375 6.1-3.375 3.69 0 6.169 2.507 6.169 6.238 0 2.31-1.097 4.68-3.09 6.672l-8.801 8.933a0.53 0.53 0 0 1 -0.377 0.157zm-6.1-20.94c-3.103 0-5.109 2.032-5.109 5.178 0 2.027 0.988 4.13 2.78 5.923l8.43 8.556 8.427-8.553c1.795-1.795 2.782-3.899 2.782-5.926 0-3.146-2.006-5.178-5.11-5.178-2.74 0-3.736 1.171-5.387 3.112l-0.31 0.364a0.529 0.529 0 0 1 -0.804 0l-0.31-0.362c-1.65-1.942-2.648-3.114-5.39-3.114z" fill="#c2c2c2"/></svg><svg width="35" viewBox="0 0 35 35.000001" height="35" id="Money-menu-active" y="70"><g fill="#346cab"><path d="m22.174 16.8v-0.821c0.382-0.12 0.685-0.349 0.914-0.69 0.23-0.343 0.344-0.74 0.344-1.189 0-0.457-0.127-0.847-0.383-1.17a1.877 1.877 0 0 0 -0.401 -0.371 5.923 5.923 0 0 0 -0.677 -0.41c-0.315-0.166-0.526-0.311-0.63-0.433a0.696 0.696 0 0 1 -0.158 -0.468c0-0.206 0.065-0.378 0.196-0.515a0.654 0.654 0 0 1 0.494 -0.206c0.32 0 0.58 0.212 0.777 0.635l0.66-0.432c-0.154-0.323-0.316-0.562-0.484-0.718a1.292 1.292 0 0 0 -0.653 -0.31v-0.777h-0.59v0.777a1.775 1.775 0 0 0 -0.491 0.23 1.482 1.482 0 0 0 -0.588 0.793c-0.052 0.164-0.078 0.341-0.078 0.531 0 0.402 0.11 0.747 0.328 1.035 0.138 0.194 0.426 0.404 0.862 0.635 0.212 0.113 0.386 0.218 0.522 0.315 0.136 0.096 0.24 0.183 0.31 0.26 0.137 0.158 0.205 0.369 0.205 0.63 0 0.293-0.082 0.533-0.246 0.717a0.798 0.798 0 0 1 -0.622 0.282c-0.255 0-0.459-0.083-0.612-0.247-0.146-0.172-0.27-0.459-0.372-0.86l-0.744 0.184c0.11 0.568 0.281 0.989 0.514 1.261 0.232 0.272 0.57 0.451 1.011 0.536v0.796h0.592z"/><path d="m30.744 12.863a9 9 0 1 0 -18 0 9 9 0 0 0 18 0zm-16.875 0a7.875 7.875 0 1 1 15.75 0 7.875 7.875 0 0 1 -15.75 0z"/></g><circle cy="21.901" cx="12.016" r="8.523" fill="rgba(255, 255, 255, 0)"/><g fill="#346cab"><path d="m12.21 26.206v-0.821c0.38-0.12 0.684-0.35 0.913-0.69 0.23-0.343 0.344-0.74 0.344-1.19 0-0.456-0.127-0.846-0.382-1.17a1.877 1.877 0 0 0 -0.402 -0.37 5.923 5.923 0 0 0 -0.677 -0.41c-0.315-0.166-0.526-0.312-0.63-0.433a0.696 0.696 0 0 1 -0.158 -0.468c0-0.206 0.065-0.378 0.196-0.515a0.654 0.654 0 0 1 0.494 -0.206c0.32 0 0.58 0.211 0.777 0.634l0.66-0.432c-0.154-0.323-0.316-0.561-0.484-0.717a1.292 1.292 0 0 0 -0.653 -0.31v-0.777h-0.59v0.777a1.775 1.775 0 0 0 -0.49 0.23 1.482 1.482 0 0 0 -0.59 0.793c-0.051 0.164-0.077 0.34-0.077 0.53 0 0.402 0.11 0.748 0.329 1.036 0.137 0.193 0.425 0.404 0.861 0.634 0.212 0.114 0.386 0.219 0.522 0.315 0.136 0.097 0.24 0.184 0.31 0.26 0.137 0.159 0.206 0.37 0.206 0.63 0 0.294-0.083 0.534-0.247 0.718a0.798 0.798 0 0 1 -0.622 0.281c-0.255 0-0.459-0.082-0.612-0.246-0.146-0.172-0.27-0.46-0.372-0.86l-0.744 0.184c0.11 0.568 0.281 0.989 0.514 1.26 0.232 0.273 0.57 0.452 1.012 0.536v0.797h0.591z"/><path d="m20.78 22.268a9 9 0 1 0 -18.001 0.001 9 9 0 0 0 18 0zm-16.875 0a7.875 7.875 0 1 1 15.75 0 7.875 7.875 0 0 1 -15.75 0z"/></g></svg><svg width="35" viewBox="0 0 35 35.000001" height="35" id="Money-menu-default" y="105"><g fill="#c2c2c2"><path d="m22.174 16.8v-0.821c0.382-0.12 0.685-0.349 0.914-0.69 0.23-0.343 0.344-0.74 0.344-1.189 0-0.457-0.127-0.847-0.383-1.17a1.877 1.877 0 0 0 -0.401 -0.371 5.923 5.923 0 0 0 -0.677 -0.41c-0.315-0.166-0.526-0.311-0.63-0.433a0.696 0.696 0 0 1 -0.158 -0.468c0-0.206 0.065-0.378 0.196-0.515a0.654 0.654 0 0 1 0.494 -0.206c0.32 0 0.58 0.212 0.777 0.635l0.66-0.432c-0.154-0.323-0.316-0.562-0.484-0.718a1.292 1.292 0 0 0 -0.653 -0.31v-0.777h-0.59v0.777a1.775 1.775 0 0 0 -0.491 0.23 1.482 1.482 0 0 0 -0.588 0.793c-0.052 0.164-0.078 0.341-0.078 0.531 0 0.402 0.11 0.747 0.328 1.035 0.138 0.194 0.426 0.404 0.862 0.635 0.212 0.113 0.386 0.218 0.522 0.315 0.136 0.096 0.24 0.183 0.31 0.26 0.137 0.158 0.205 0.369 0.205 0.63 0 0.293-0.082 0.533-0.246 0.717a0.798 0.798 0 0 1 -0.622 0.282c-0.255 0-0.459-0.083-0.612-0.247-0.146-0.172-0.27-0.459-0.372-0.86l-0.744 0.184c0.11 0.568 0.281 0.989 0.514 1.261 0.232 0.272 0.57 0.451 1.011 0.536v0.796h0.592z"/><path d="m30.744 12.863a9 9 0 1 0 -18 0 9 9 0 0 0 18 0zm-16.875 0a7.875 7.875 0 1 1 15.75 0 7.875 7.875 0 0 1 -15.75 0z"/></g><circle cy="21.901" cx="12.016" r="8.523" fill="rgba(255, 255, 255, 0)"/><g fill="#c2c2c2"><path d="m12.21 26.206v-0.821c0.38-0.12 0.684-0.35 0.913-0.69 0.23-0.343 0.344-0.74 0.344-1.19 0-0.456-0.127-0.846-0.382-1.17a1.877 1.877 0 0 0 -0.402 -0.37 5.923 5.923 0 0 0 -0.677 -0.41c-0.315-0.166-0.526-0.312-0.63-0.433a0.696 0.696 0 0 1 -0.158 -0.468c0-0.206 0.065-0.378 0.196-0.515a0.654 0.654 0 0 1 0.494 -0.206c0.32 0 0.58 0.211 0.777 0.634l0.66-0.432c-0.154-0.323-0.316-0.561-0.484-0.717a1.292 1.292 0 0 0 -0.653 -0.31v-0.777h-0.59v0.777a1.775 1.775 0 0 0 -0.49 0.23 1.482 1.482 0 0 0 -0.59 0.793c-0.051 0.164-0.077 0.34-0.077 0.53 0 0.402 0.11 0.748 0.329 1.036 0.137 0.193 0.425 0.404 0.861 0.634 0.212 0.114 0.386 0.219 0.522 0.315 0.136 0.097 0.24 0.184 0.31 0.26 0.137 0.159 0.206 0.37 0.206 0.63 0 0.294-0.083 0.534-0.247 0.718a0.798 0.798 0 0 1 -0.622 0.281c-0.255 0-0.459-0.082-0.612-0.246-0.146-0.172-0.27-0.46-0.372-0.86l-0.744 0.184c0.11 0.568 0.281 0.989 0.514 1.26 0.232 0.273 0.57 0.452 1.012 0.536v0.797h0.591z"/><path d="m20.78 22.268a9 9 0 1 0 -18.001 0.001 9 9 0 0 0 18 0zm-16.875 0a7.875 7.875 0 1 1 15.75 0 7.875 7.875 0 0 1 -15.75 0z"/></g></svg><svg width="35" viewBox="0 0 35 35.000001" height="35" id="Scale-active" y="140"><path d="m16.956 6.233h-9.267a0.574 0.574 0 0 0 -0.281 0.082c-0.009 0.005-0.017 0.013-0.025 0.018a0.571 0.571 0 0 0 -0.15 0.137c-0.014 0.017-0.036 0.024-0.048 0.044l-6.691 11.052a0.582 0.582 0 0 0 0.103 0.73c0.13 0.116 3.206 2.917 7.084 2.917 3.447 0 6.257-2.21 6.93-2.782a0.574 0.574 0 0 0 0.492 -0.563 0.58 0.58 0 0 0 -0.377 -0.542l-6.012-9.93h8.242v19.674h-2.432a0.582 0.582 0 1 0 0 1.164h6.027a0.582 0.582 0 1 0 0 -1.164h-2.431v-19.673h8.243l-6.155 10.17c-0.01 0.014-0.012 0.027-0.019 0.043a0.582 0.582 0 0 0 -0.056 0.211c-0.002 0.018-0.01 0.031-0.01 0.047 0 0.013 0.007 0.023 0.008 0.035a0.595 0.595 0 0 0 0.026 0.135c0.008 0.025 0.013 0.05 0.022 0.073 0.019 0.04 0.047 0.078 0.078 0.114 0.014 0.019 0.025 0.04 0.045 0.058l0.008 0.012c0.128 0.117 3.205 2.917 7.084 2.917 3.877 0 6.954-2.8 7.082-2.917 0.002-0.003 0.004-0.008 0.009-0.012 0.019-0.017 0.028-0.04 0.045-0.058 0.028-0.036 0.059-0.074 0.077-0.114 0.012-0.023 0.018-0.048 0.024-0.074a0.554 0.554 0 0 0 0.025 -0.136c0.001-0.011 0.01-0.022 0.01-0.034 0-0.017-0.01-0.03-0.011-0.047a0.574 0.574 0 0 0 -0.025 -0.128c-0.008-0.03-0.02-0.058-0.031-0.084-0.007-0.015-0.009-0.027-0.017-0.04l-6.692-11.054c-0.013-0.02-0.034-0.026-0.046-0.043a0.563 0.563 0 0 0 -0.155 -0.14l-0.022-0.016a0.576 0.576 0 0 0 -0.284 -0.082h-9.263zm-9.273 1.704l5.66 9.348h-11.318zm19.713 0l5.658 9.348h-11.317zm-24.633 10.51h9.847c-1.16 0.736-2.94 1.6-4.927 1.6-1.977 0-3.758-0.864-4.92-1.6zm19.71 0h9.847c-1.157 0.736-2.94 1.6-4.924 1.6-1.978 0-3.762-0.864-4.923-1.6z" fill="#346cab"/></svg><svg width="35" viewBox="0 0 35 35.000001" height="35" id="Scale-menu-default" y="175"><path d="m16.956 6.233h-9.267a0.574 0.574 0 0 0 -0.281 0.082c-0.009 0.005-0.017 0.013-0.025 0.018a0.571 0.571 0 0 0 -0.15 0.137c-0.014 0.017-0.036 0.024-0.048 0.044l-6.691 11.052a0.582 0.582 0 0 0 0.103 0.73c0.13 0.116 3.206 2.917 7.084 2.917 3.447 0 6.257-2.21 6.93-2.782a0.574 0.574 0 0 0 0.492 -0.563 0.58 0.58 0 0 0 -0.377 -0.542l-6.012-9.93h8.242v19.674h-2.432a0.582 0.582 0 1 0 0 1.164h6.027a0.582 0.582 0 1 0 0 -1.164h-2.431v-19.673h8.243l-6.155 10.17c-0.01 0.014-0.012 0.027-0.019 0.043a0.582 0.582 0 0 0 -0.056 0.211c-0.002 0.018-0.01 0.031-0.01 0.047 0 0.013 0.007 0.023 0.008 0.035a0.595 0.595 0 0 0 0.026 0.135c0.008 0.025 0.013 0.05 0.022 0.073 0.019 0.04 0.047 0.078 0.078 0.114 0.014 0.019 0.025 0.04 0.045 0.058l0.008 0.012c0.128 0.117 3.205 2.917 7.084 2.917 3.877 0 6.954-2.8 7.082-2.917 0.002-0.003 0.004-0.008 0.009-0.012 0.019-0.017 0.028-0.04 0.045-0.058 0.028-0.036 0.059-0.074 0.077-0.114 0.012-0.023 0.018-0.048 0.024-0.074a0.554 0.554 0 0 0 0.025 -0.136c0.001-0.011 0.01-0.022 0.01-0.034 0-0.017-0.01-0.03-0.011-0.047a0.574 0.574 0 0 0 -0.025 -0.128c-0.008-0.03-0.02-0.058-0.031-0.084-0.007-0.015-0.009-0.027-0.017-0.04l-6.692-11.054c-0.013-0.02-0.034-0.026-0.046-0.043a0.563 0.563 0 0 0 -0.155 -0.14l-0.022-0.016a0.576 0.576 0 0 0 -0.284 -0.082h-9.263zm-9.273 1.704l5.66 9.348h-11.318zm19.713 0l5.658 9.348h-11.317zm-24.633 10.51h9.847c-1.16 0.736-2.94 1.6-4.927 1.6-1.977 0-3.758-0.864-4.92-1.6zm19.71 0h9.847c-1.157 0.736-2.94 1.6-4.924 1.6-1.978 0-3.762-0.864-4.923-1.6z" fill="#c2c2c2"/></svg></svg>
