<?xml version="1.0" encoding="utf-8"?>
<!-- Generator: Adobe Illustrator 16.0.0, SVG Export Plug-In . SVG Version: 6.00 Build 0)  -->
<!DOCTYPE svg PUBLIC "-//W3C//DTD SVG 1.0//EN" "http://www.w3.org/TR/2001/REC-SVG-20010904/DTD/svg10.dtd">
<svg version="1.0" id="_x25__1_" xmlns="http://www.w3.org/2000/svg" xmlns:xlink="http://www.w3.org/1999/xlink" x="0px" y="0px"
	 width="15px" height="15px" viewBox="0 0 15 15" enable-background="new 0 0 15 15" xml:space="preserve">
<g id="_x25_">
	<g>
		<path fill-rule="evenodd" clip-rule="evenodd" fill="#D9450A" d="M14.078,8.709c-0.611-0.619-1.406-0.93-2.385-0.93
			S9.916,8.09,9.298,8.709c-0.618,0.62-0.927,1.449-0.927,2.486s0.309,1.866,0.927,2.485c0.618,0.62,1.417,0.93,2.396,0.93
			s1.773-0.31,2.385-0.93c0.611-0.619,0.916-1.448,0.916-2.485S14.689,9.329,14.078,8.709z M11.693,13.357
			c-0.599,0-1.023-0.205-1.274-0.616s-0.377-0.926-0.377-1.546c0-0.634,0.126-1.148,0.377-1.546s0.676-0.597,1.274-0.597
			c0.611,0,1.039,0.202,1.283,0.606c0.245,0.404,0.367,0.916,0.367,1.536C13.344,12.637,12.793,13.357,11.693,13.357z M5.69,6.547
			c0.618-0.62,0.927-1.448,0.927-2.486c0-1.037-0.309-1.865-0.927-2.485c-0.619-0.62-1.417-0.93-2.395-0.93
			c-0.965,0-1.756,0.31-2.375,0.93s-0.927,1.448-0.927,2.485c0,1.038,0.309,1.866,0.927,2.486s1.41,0.93,2.375,0.93
			C4.274,7.477,5.072,7.167,5.69,6.547z M2.021,5.606C1.77,5.196,1.645,4.681,1.645,4.061c0-0.633,0.125-1.151,0.377-1.556
			s0.676-0.606,1.274-0.606c0.611,0,1.04,0.205,1.284,0.616s0.367,0.927,0.367,1.546c0,1.442-0.55,2.163-1.651,2.163
			C2.697,6.224,2.273,6.018,2.021,5.606z M11.57-0.001L2.134,14.146l1.304,0.85l9.437-14.147L11.57-0.001z"/>
	</g>
</g>
</svg>
