<?xml version="1.0" encoding="UTF-8" standalone="no"?>
<svg
   xmlns:dc="http://purl.org/dc/elements/1.1/"
   xmlns:cc="http://creativecommons.org/ns#"
   xmlns:rdf="http://www.w3.org/1999/02/22-rdf-syntax-ns#"
   xmlns:svg="http://www.w3.org/2000/svg"
   xmlns="http://www.w3.org/2000/svg"
   viewBox="0 0 36 46.666668"
   height="46.666668"
   width="36"
   xml:space="preserve"
   id="svg4520"
   version="1.1"><metadata
     id="metadata4526"><rdf:RDF><cc:Work
         rdf:about=""><dc:format>image/svg+xml</dc:format><dc:type
           rdf:resource="http://purl.org/dc/dcmitype/StillImage" /><dc:title></dc:title></cc:Work></rdf:RDF></metadata><defs
     id="defs4524" /><g
     transform="matrix(1.3333333,0,0,-1.3333333,0,46.666667)"
     id="g4528"><path
       style="fill:#346bab;fill-opacity:1;stroke-width:30.69312859"
       d="m 0.12929691,16.249666 c -0.21110067,1.849069 -0.0354391,3.634964 0.44531789,5.285255 1.5948241,5.485576 6.5980962,9.518085 12.5336092,9.588969 v 3.585651 c 0,0.198772 0.248095,0.305111 0.409875,0.184899 l 7.319233,-5.420845 c 0.120179,-0.09247 0.120179,-0.277364 0,-0.362111 l -7.311528,-5.420855 c -0.169499,-0.12173 -0.409876,-0.01387 -0.409876,0.184908 v 3.577951 C 9.2128503,27.390309 5.8814431,24.963405 4.448416,21.534921 3.90448,20.240576 3.6302031,18.810627 3.7072466,17.309799 3.8135693,15.246547 4.5824732,13.346629 5.7966949,11.810361 6.4454089,10.992147 5.7335187,10.568402 4.8937339,9.9489626 4.0955509,9.3588037 3.5377477,8.7516927 2.9244728,9.5344651 1.4205649,11.426679 0.41898578,13.731852 0.12929691,16.249666 Z M 21.261078,23.135908 c 1.220385,-1.530103 1.989289,-3.436186 2.089448,-5.49944 0.07704,-1.506991 -0.20494,-2.938476 -0.742711,-4.225124 C 21.176328,9.9828634 17.844923,7.5497959 13.941846,7.4927821 v 3.5779499 c 0,0.198771 -0.248096,0.306649 -0.409879,0.184898 L 6.2127363,5.834785 c -0.1201791,-0.092466 -0.1201791,-0.2773637 0,-0.3621104 L 13.525804,0.05181919 c 0.167949,-0.12018862 0.408337,-0.01386644 0.408337,0.184908 V 3.8223795 c 5.935512,0.064719 10.946489,4.0972289 12.535147,9.5889645 0.480758,1.650295 0.648718,3.436189 0.445319,5.285259 -0.283524,2.517814 -1.285103,4.822988 -2.789014,6.715201 -0.620979,0.782772 -1.143341,0.245004 -1.939981,-0.3467 -0.833623,-0.617898 -1.57479,-1.110981 -0.924534,-1.929196 z"
       id="path4538" /></g></svg>