<?xml version="1.0" encoding="UTF-8" standalone="no"?>
<!-- Generator: Adobe Illustrator 16.0.0, SVG Export Plug-In . SVG Version: 6.00 Build 0)  -->

<svg
   xmlns:dc="http://purl.org/dc/elements/1.1/"
   xmlns:cc="http://creativecommons.org/ns#"
   xmlns:rdf="http://www.w3.org/1999/02/22-rdf-syntax-ns#"
   xmlns:svg="http://www.w3.org/2000/svg"
   xmlns="http://www.w3.org/2000/svg"
   xmlns:sodipodi="http://sodipodi.sourceforge.net/DTD/sodipodi-0.dtd"
   xmlns:inkscape="http://www.inkscape.org/namespaces/inkscape"
   version="1.1"
   id="Capa_1"
   x="0px"
   y="0px"
   width="35"
   height="35"
   viewBox="0 0 35 35.000001"
   xml:space="preserve"
   inkscape:version="0.91 r13725"
   sodipodi:docname="Scale-menu-default.svg"><metadata
   id="metadata43"><rdf:RDF><cc:Work
       rdf:about=""><dc:format>image/svg+xml</dc:format><dc:type
         rdf:resource="http://purl.org/dc/dcmitype/StillImage" /><dc:title></dc:title></cc:Work></rdf:RDF></metadata><defs
   id="defs41" /><sodipodi:namedview
   pagecolor="#ffffff"
   bordercolor="#666666"
   borderopacity="1"
   objecttolerance="10"
   gridtolerance="10"
   guidetolerance="10"
   inkscape:pageopacity="0"
   inkscape:pageshadow="2"
   inkscape:window-width="1236"
   inkscape:window-height="704"
   id="namedview39"
   showgrid="false"
   inkscape:zoom="7.6341469"
   inkscape:cx="27.211746"
   inkscape:cy="10.188997"
   inkscape:window-x="602"
   inkscape:window-y="140"
   inkscape:window-maximized="0"
   inkscape:current-layer="Capa_1" />

<g
   id="g9"
   transform="translate(0,-314.74899)">
</g>
<g
   id="g11"
   transform="translate(0,-314.74899)">
</g>
<g
   id="g13"
   transform="translate(0,-314.74899)">
</g>
<g
   id="g15"
   transform="translate(0,-314.74899)">
</g>
<g
   id="g17"
   transform="translate(0,-314.74899)">
</g>
<g
   id="g19"
   transform="translate(0,-314.74899)">
</g>
<g
   id="g21"
   transform="translate(0,-314.74899)">
</g>
<g
   id="g23"
   transform="translate(0,-314.74899)">
</g>
<g
   id="g25"
   transform="translate(0,-314.74899)">
</g>
<g
   id="g27"
   transform="translate(0,-314.74899)">
</g>
<g
   id="g29"
   transform="translate(0,-314.74899)">
</g>
<g
   id="g31"
   transform="translate(0,-314.74899)">
</g>
<g
   id="g33"
   transform="translate(0,-314.74899)">
</g>
<g
   id="g35"
   transform="translate(0,-314.74899)">
</g>
<g
   id="g37"
   transform="translate(0,-314.74899)">
</g>
<path
   d="m 16.95564,6.233238 -9.2669531,0 c -0.1032239,0 -0.1957206,0.03465 -0.2809595,0.08206 -0.00847,0.0044 -0.016522,0.01221 -0.024992,0.0176 -0.058443,0.0374 -0.1077448,0.0814 -0.1499353,0.1367739 -0.013662,0.01749 -0.03619,0.02398 -0.04829,0.04455 L 0.49381178,17.565877 c -0.1431594,0.236698 -0.10000091,0.540958 0.1036749,0.72941 0.1289826,0.116886 3.20583252,2.917329 7.08377202,2.917329 3.4469033,0 6.2563373,-2.208765 6.9301223,-2.781567 0.276983,-0.04532 0.49168,-0.273669 0.49168,-0.563277 0,-0.247412 -0.157276,-0.45816 -0.377203,-0.54132 l -6.0119369,-9.9298441 8.2420569,0 0,15.0181861 0,1.164371 0,1.161323 0,1.164019 0,1.164701 -2.432398,0 c -0.321072,0 -0.582181,0.260073 -0.582181,0.582186 0,0.322112 0.259553,0.581844 0.582181,0.581844 l 6.027471,0 c 0.321073,0 0.582182,-0.259732 0.582182,-0.581844 0,-0.322113 -0.260072,-0.582186 -0.582182,-0.582186 l -2.431047,0 0,-1.164701 0,-1.164019 0,-1.161323 0,-1.164371 0,-15.0181861 8.243407,0 -6.155793,10.1709521 c -0.0095,0.01364 -0.01167,0.02651 -0.01824,0.04224 -0.01262,0.0253 -0.02189,0.05247 -0.03141,0.08206 -0.0147,0.04422 -0.02325,0.08525 -0.02532,0.129338 -0.0021,0.01793 -0.0095,0.03091 -0.0095,0.04664 0,0.01364 0.0064,0.02321 0.0075,0.03476 0.0033,0.04719 0.01267,0.09152 0.02634,0.135751 0.0085,0.0242 0.01349,0.04939 0.02195,0.0726 0.01884,0.03993 0.04707,0.07799 0.07767,0.113795 0.01487,0.01881 0.02553,0.04081 0.04558,0.05874 0.0033,0.0022 0.0042,0.0066 0.0075,0.01144 0.128463,0.116875 3.205478,2.917318 7.08411,2.917318 3.877594,0 6.953956,-2.800443 7.082421,-2.917318 0.0022,-0.0033 0.0041,-0.0077 0.0085,-0.01144 0.01884,-0.01793 0.0283,-0.03971 0.04525,-0.05874 0.02836,-0.03575 0.05885,-0.07381 0.07666,-0.113795 0.01279,-0.02321 0.01825,-0.0484 0.02465,-0.07359 0.01366,-0.04532 0.02291,-0.08976 0.02499,-0.136092 0.0012,-0.01144 0.0098,-0.02178 0.0098,-0.03443 0,-0.01694 -0.0096,-0.0297 -0.01148,-0.04664 -0.0033,-0.04422 -0.01152,-0.08734 -0.02431,-0.128315 -0.0083,-0.02959 -0.02102,-0.05775 -0.03175,-0.08404 -0.0063,-0.01474 -0.0085,-0.02728 -0.0169,-0.03982 L 27.890919,6.5140017 c -0.01245,-0.01958 -0.03347,-0.02574 -0.04627,-0.04323 -0.04322,-0.05632 -0.0938,-0.1027399 -0.155,-0.1401509 -0.0073,-0.0044 -0.01349,-0.011 -0.02196,-0.01518 -0.08524,-0.04741 -0.177855,-0.08206 -0.283323,-0.08206 l -9.264588,0 z m -9.2723562,1.7033153 5.6590482,9.3479997 -11.3167453,0 z m 19.7127882,0 5.657698,9.3479997 -11.316407,0 z M 2.7631074,18.447571 l 9.8464316,0 c -1.15911,0.734986 -2.940171,1.600322 -4.9262552,1.600322 -1.9772668,0 -3.7579539,-0.865336 -4.9201764,-1.600322 z m 19.7100876,0 9.84677,0 c -1.156864,0.734986 -2.939365,1.600322 -4.923893,1.600322 -1.978131,0 -3.761691,-0.865336 -4.922877,-1.600322 z"
   id="path5"
   inkscape:connector-curvature="0"
   sodipodi:nodetypes="csccccccscsccccccccsssssscccccccccccsccccccsccccccsccccccccsccccccccccccscccsc"
   style="fill:#c2c2c2;fill-opacity:1" /></svg>