<?xml version="1.0" encoding="UTF-8" standalone="no"?>
<!-- Generator: Adobe Illustrator 16.0.0, SVG Export Plug-In . SVG Version: 6.00 Build 0)  -->

<svg
   xmlns:dc="http://purl.org/dc/elements/1.1/"
   xmlns:cc="http://creativecommons.org/ns#"
   xmlns:rdf="http://www.w3.org/1999/02/22-rdf-syntax-ns#"
   xmlns:svg="http://www.w3.org/2000/svg"
   xmlns="http://www.w3.org/2000/svg"
   xmlns:sodipodi="http://sodipodi.sourceforge.net/DTD/sodipodi-0.dtd"
   xmlns:inkscape="http://www.inkscape.org/namespaces/inkscape"
   version="1.1"
   id="Capa_1"
   x="0px"
   y="0px"
   width="33"
   height="33"
   viewBox="0 0 33 33.000001"
   xml:space="preserve"
   inkscape:version="0.91 r13725"
   sodipodi:docname="Scale-active.svg"><metadata
   id="metadata43"><rdf:RDF><cc:Work
       rdf:about=""><dc:format>image/svg+xml</dc:format><dc:type
         rdf:resource="http://purl.org/dc/dcmitype/StillImage" /><dc:title></dc:title></cc:Work></rdf:RDF></metadata><defs
   id="defs41" /><sodipodi:namedview
   pagecolor="#ffffff"
   bordercolor="#666666"
   borderopacity="1"
   objecttolerance="10"
   gridtolerance="10"
   guidetolerance="10"
   inkscape:pageopacity="0"
   inkscape:pageshadow="2"
   inkscape:window-width="1236"
   inkscape:window-height="704"
   id="namedview39"
   showgrid="false"
   inkscape:zoom="7.6341469"
   inkscape:cx="27.211746"
   inkscape:cy="10.188997"
   inkscape:window-x="602"
   inkscape:window-y="140"
   inkscape:window-maximized="0"
   inkscape:current-layer="Capa_1" />

<g
   id="g9"
   transform="translate(0,-316.74899)">
</g>
<g
   id="g11"
   transform="translate(0,-316.74899)">
</g>
<g
   id="g13"
   transform="translate(0,-316.74899)">
</g>
<g
   id="g15"
   transform="translate(0,-316.74899)">
</g>
<g
   id="g17"
   transform="translate(0,-316.74899)">
</g>
<g
   id="g19"
   transform="translate(0,-316.74899)">
</g>
<g
   id="g21"
   transform="translate(0,-316.74899)">
</g>
<g
   id="g23"
   transform="translate(0,-316.74899)">
</g>
<g
   id="g25"
   transform="translate(0,-316.74899)">
</g>
<g
   id="g27"
   transform="translate(0,-316.74899)">
</g>
<g
   id="g29"
   transform="translate(0,-316.74899)">
</g>
<g
   id="g31"
   transform="translate(0,-316.74899)">
</g>
<g
   id="g33"
   transform="translate(0,-316.74899)">
</g>
<g
   id="g35"
   transform="translate(0,-316.74899)">
</g>
<g
   id="g37"
   transform="translate(0,-316.74899)">
</g>
<path
   d="m 16.106438,5.5782664 -8.4245106,0 c -0.09384,0 -0.177928,0.0315 -0.255418,0.0746 -0.0077,0.004 -0.01502,0.0111 -0.02272,0.016 -0.05313,0.034 -0.09795,0.074 -0.136305,0.12434 -0.01242,0.0159 -0.0329,0.0218 -0.0439,0.0405 L 1.1411254,15.880676 c -0.130145,0.21518 -0.09091,0.49178 0.09425,0.6631 0.117257,0.10626 2.914396,2.65212 6.439799,2.65212 3.1335516,0 5.6875846,-2.00797 6.3001176,-2.5287 0.251803,-0.0412 0.446982,-0.24879 0.446982,-0.51207 0,-0.22492 -0.142978,-0.41651 -0.342912,-0.49211 l -5.4654026,-9.0271396 7.4927866,0 0,13.6529096 0,1.05852 0,1.05575 0,1.0582 0,1.05882 -2.211273,0 c -0.291884,0 -0.529256,0.23643 -0.529256,0.52926 0,0.29283 0.235957,0.52895 0.529256,0.52895 l 5.479524,0 c 0.291885,0 0.529257,-0.23612 0.529257,-0.52895 0,-0.29283 -0.236429,-0.52926 -0.529257,-0.52926 l -2.210045,0 0,-1.05882 0,-1.0582 0,-1.05575 0,-1.05852 0,-13.6529096 7.494014,0 -5.596181,9.2463296 c -0.0086,0.0124 -0.01061,0.0241 -0.01658,0.0384 -0.01147,0.023 -0.0199,0.0477 -0.02855,0.0746 -0.01336,0.0402 -0.02114,0.0775 -0.02302,0.11758 -0.0019,0.0163 -0.0086,0.0281 -0.0086,0.0424 0,0.0124 0.0058,0.0211 0.0068,0.0316 0.003,0.0429 0.01152,0.0832 0.02395,0.12341 0.0077,0.022 0.01226,0.0449 0.01995,0.066 0.01713,0.0363 0.04279,0.0709 0.07061,0.10345 0.01352,0.0171 0.02321,0.0371 0.04144,0.0534 0.003,0.002 0.0038,0.006 0.0068,0.0104 0.116785,0.10625 2.914074,2.65211 6.440106,2.65211 3.525089,0 6.321785,-2.54586 6.438571,-2.65211 0.002,-0.003 0.0037,-0.007 0.0077,-0.0104 0.01713,-0.0163 0.02573,-0.0361 0.04114,-0.0534 0.02578,-0.0325 0.0535,-0.0671 0.06969,-0.10345 0.01163,-0.0211 0.01659,-0.044 0.02241,-0.0669 0.01242,-0.0412 0.02083,-0.0816 0.02272,-0.12372 0.0011,-0.0104 0.0089,-0.0198 0.0089,-0.0313 0,-0.0154 -0.0087,-0.027 -0.01044,-0.0424 -0.003,-0.0402 -0.01047,-0.0794 -0.0221,-0.11665 -0.0075,-0.0269 -0.01911,-0.0525 -0.02886,-0.0764 -0.0057,-0.0134 -0.0077,-0.0248 -0.01536,-0.0362 L 26.047611,5.8335064 c -0.01132,-0.0178 -0.03043,-0.0234 -0.04206,-0.0393 -0.03929,-0.0512 -0.08527,-0.0934 -0.140909,-0.12741 -0.0066,-0.004 -0.01226,-0.01 -0.01996,-0.0138 -0.07749,-0.0431 -0.161687,-0.0746 -0.257567,-0.0746 l -8.422361,0 z m -8.4294226,1.54847 5.1445946,8.4981896 -10.2879606,0 z m 17.9207346,0 5.143366,8.4981896 -10.287652,0 z m -22.3936266,9.5554796 8.9513106,0 c -1.053738,0.66817 -2.6728856,1.45484 -4.4784186,1.45484 -1.797517,0 -3.416325,-0.78667 -4.472892,-1.45484 z m 17.9182786,0 8.951618,0 c -1.051695,0.66817 -2.672152,1.45484 -4.47627,1.45484 -1.798303,0 -3.419723,-0.78667 -4.475348,-1.45484 z"
   id="path5"
   inkscape:connector-curvature="0"
   sodipodi:nodetypes="csccccccscsccccccccsssssscccccccccccsccccccsccccccsccccccccsccccccccccccscccsc"
   style="fill:#346cab;fill-opacity:1" /></svg>