<?xml version="1.0" encoding="utf-8"?>
<!-- Generator: Adobe Illustrator 16.0.0, SVG Export Plug-In . SVG Version: 6.00 Build 0)  -->
<!DOCTYPE svg PUBLIC "-//W3C//DTD SVG 1.0//EN" "http://www.w3.org/TR/2001/REC-SVG-20010904/DTD/svg10.dtd">
<svg version="1.0" id="icon-send_1_" xmlns="http://www.w3.org/2000/svg" xmlns:xlink="http://www.w3.org/1999/xlink" x="0px"
	 y="0px" width="18px" height="17px" viewBox="0 0 18 17" enable-background="new 0 0 18 17" xml:space="preserve">
<g id="icon-send">
	<g>
		<path fill-rule="evenodd" clip-rule="evenodd" fill="#AFAFAF" d="M17.877,0.117c-0.113-0.113-0.279-0.149-0.429-0.09L0.723,6.525
			C0.336,6.677,0.06,7.029,0.007,7.447C-0.048,7.864,0.126,8.28,0.463,8.526l3.673,2.71L17.189,0.825L5.647,12.354l5.024,3.704
			c0.318,0.235,0.729,0.309,1.111,0.19c0.379-0.117,0.68-0.408,0.817-0.784l5.373-14.914C18.029,0.399,17.99,0.229,17.877,0.117z
			 M3.296,12.313l0.713,3.95c0.053,0.295,0.247,0.541,0.517,0.662c0.268,0.117,0.581,0.092,0.826-0.07
			c0.993-0.65,2.292-1.511,2.256-1.561l-4.342-3.156L3.296,12.313z"/>
	</g>
</g>
</svg>
