<?xml version="1.0" encoding="UTF-8" standalone="no"?>
<!-- Generator: Adobe Illustrator 16.0.0, SVG Export Plug-In . SVG Version: 6.00 Build 0)  -->

<svg
   xmlns:dc="http://purl.org/dc/elements/1.1/"
   xmlns:cc="http://creativecommons.org/ns#"
   xmlns:rdf="http://www.w3.org/1999/02/22-rdf-syntax-ns#"
   xmlns:svg="http://www.w3.org/2000/svg"
   xmlns="http://www.w3.org/2000/svg"
   xmlns:sodipodi="http://sodipodi.sourceforge.net/DTD/sodipodi-0.dtd"
   xmlns:inkscape="http://www.inkscape.org/namespaces/inkscape"
   version="1.1"
   id="Capa_1"
   x="0px"
   y="0px"
   width="23"
   height="23"
   viewBox="0 0 23 23"
   xml:space="preserve"
   inkscape:version="0.91 r13725"
   sodipodi:docname="Skype-address.svg"><metadata
   id="metadata45"><rdf:RDF><cc:Work
       rdf:about=""><dc:format>image/svg+xml</dc:format><dc:type
         rdf:resource="http://purl.org/dc/dcmitype/StillImage" /><dc:title></dc:title></cc:Work></rdf:RDF></metadata><defs
   id="defs43" /><sodipodi:namedview
   pagecolor="#ffffff"
   bordercolor="#666666"
   borderopacity="1"
   objecttolerance="10"
   gridtolerance="10"
   guidetolerance="10"
   inkscape:pageopacity="0"
   inkscape:pageshadow="2"
   inkscape:window-width="1098"
   inkscape:window-height="670"
   id="namedview41"
   showgrid="false"
   inkscape:zoom="8.7256052"
   inkscape:cx="-3.0773123"
   inkscape:cy="10.376354"
   inkscape:window-x="756"
   inkscape:window-y="320"
   inkscape:window-maximized="0"
   inkscape:current-layer="Capa_1" />

<g
   id="g11"
   transform="translate(0,-589)">
</g>
<g
   id="g13"
   transform="translate(0,-589)">
</g>
<g
   id="g15"
   transform="translate(0,-589)">
</g>
<g
   id="g17"
   transform="translate(0,-589)">
</g>
<g
   id="g19"
   transform="translate(0,-589)">
</g>
<g
   id="g21"
   transform="translate(0,-589)">
</g>
<g
   id="g23"
   transform="translate(0,-589)">
</g>
<g
   id="g25"
   transform="translate(0,-589)">
</g>
<g
   id="g27"
   transform="translate(0,-589)">
</g>
<g
   id="g29"
   transform="translate(0,-589)">
</g>
<g
   id="g31"
   transform="translate(0,-589)">
</g>
<g
   id="g33"
   transform="translate(0,-589)">
</g>
<g
   id="g35"
   transform="translate(0,-589)">
</g>
<g
   id="g37"
   transform="translate(0,-589)">
</g>
<g
   id="g39"
   transform="translate(0,-589)">
</g>
<path
   d="m 6.996709,0.53832877 c 1.109149,0 2.150071,0.2899441 3.053198,0.79645443 0.493144,-0.073383 0.997592,-0.1118258 1.511146,-0.1118258 5.621368,0 10.178445,4.556989 10.178445,10.1784496 0,0.537819 -0.04203,1.065814 -0.122411,1.58103 0.597658,0.958613 0.943989,2.09001 0.943989,3.302775 0,3.453535 -2.799583,6.253117 -6.253118,6.253117 -1.276595,0 -2.463209,-0.383339 -3.452727,-1.040118 -0.423798,0.05378 -0.855714,0.0816 -1.294178,0.0816 -5.621504,0 -10.178491,-4.556946 -10.178491,-10.178451 0,-0.547729 0.04387,-1.085193 0.127166,-1.6094242 C 1.021518,8.9011038 0.74354699,7.8787948 0.74354699,6.7913545 0.74359199,3.3379123 3.543175,0.53833077 6.996709,0.53833077 m 0,0.89711503 c -1.430674,0 -2.775674,0.5571051 -3.787306,1.5687403 -1.011587,1.011586 -1.568696,2.3565875 -1.568696,3.7872611 0,0.8980586 0.226791,1.7866046 0.655792,2.5694286 l 0.147395,0.268999 -0.04813,0.302953 c -0.07697,0.4844912 -0.116041,0.9786202 -0.116041,1.4686252 0,1.253406 0.245271,2.468817 0.728995,3.612503 0.467397,1.105113 1.13678,2.097772 1.989443,2.95039 0.852663,0.852705 1.845366,1.522045 2.950478,1.989442 1.143687,0.483722 2.359099,0.728995 3.612503,0.728995 0.394462,0 0.791884,-0.02509 1.181187,-0.07446 l 0.331036,-0.04205 0.278015,0.184533 c 0.877648,0.582501 1.900046,0.890433 2.956623,0.890433 1.430675,0 2.775675,-0.557105 3.787307,-1.56874 1.011632,-1.01163 1.568741,-2.356631 1.568741,-3.787305 0,-1.002215 -0.279452,-1.980159 -0.808167,-2.828157 l -0.176596,-0.283228 0.05145,-0.329777 c 0.0741,-0.474799 0.111691,-0.960141 0.111691,-1.442652 0,-1.253362 -0.245271,-2.4687732 -0.728996,-3.6124592 C 19.645992,6.6838084 18.976654,5.6911054 18.123947,4.8384436 17.271283,3.9857764 16.27858,3.3164419 15.173514,2.8490015 c -1.143643,-0.4837274 -2.359054,-0.729 -3.612414,-0.729 -0.460131,0 -0.924119,0.034308 -1.37909,0.102046 L 9.8786498,2.2671555 9.6111308,2.1171109 C 8.8157928,1.6711551 7.9117248,1.4353949 6.9967118,1.4353949 Z"
   id="path236"
   inkscape:connector-curvature="0"
   style="fill:#a1c5e1;fill-opacity:1" /><path
   d="m 11.00529,9.9468218 2.121677,0.4792382 c 1.940954,0.443267 2.911498,1.509893 2.911498,3.19983 0,1.051289 -0.380781,1.886006 -1.142162,2.504347 -0.80256,0.670011 -1.944767,1.004768 -3.426666,1.004768 -1.471539,0 -2.644652,-0.319283 -3.519204,-0.958346 -0.75111,-0.535756 -1.126688,-1.154136 -1.126688,-1.855051 0,-0.309193 0.100164,-0.561644 0.300534,-0.757483 0.200371,-0.19566 0.454703,-0.293713 0.763221,-0.293713 0.359564,0 0.683108,0.175385 0.971038,0.525617 0.462462,0.566977 0.745099,0.886484 0.847953,0.958389 0.441874,0.350548 1.027466,0.525623 1.757269,0.525623 0.62677,0 1.13032,-0.154577 1.510742,-0.463814 0.349472,-0.278239 0.52414,-0.61304 0.52414,-1.004719 0,-0.587481 -0.361582,-0.973863 -1.084164,-1.159482 L 9.549451,11.925546 C 7.732165,11.461782 6.823745,10.446874 6.823745,8.8801958 c 0,-1.14391 0.469685,-2.0197199 1.409279,-2.6279163 0.80534,-0.5151719 1.817062,-0.7729132 3.035479,-0.7729132 1.053169,0 2.023398,0.2473344 2.911543,0.7420032 0.939324,0.5255788 1.409278,1.1439153 1.409278,1.8549703 0,0.309187 -0.113665,0.554143 -0.340724,0.734329 -0.227239,0.180365 -0.500904,0.270526 -0.820726,0.270526 -0.309774,0 -0.599004,-0.144257 -0.867331,-0.432854 -0.413122,-0.442956 -0.681404,-0.705765 -0.805251,-0.788388 -0.423573,-0.288335 -0.975792,-0.432816 -1.657196,-0.432816 -0.578325,0 -1.027466,0.121246 -1.347377,0.363289 -0.320136,0.242224 -0.480091,0.559129 -0.480091,0.950721 8.9e-5,0.546295 0.578235,0.948206 1.734662,1.205675 z"
   id="path238"
   inkscape:connector-curvature="0"
   style="fill:#a1c5e1;fill-opacity:1" /></svg>