<?xml version="1.0" encoding="utf-8"?>
<!-- Generator: Adobe Illustrator 16.0.0, SVG Export Plug-In . SVG Version: 6.00 Build 0)  -->
<!DOCTYPE svg PUBLIC "-//W3C//DTD SVG 1.0//EN" "http://www.w3.org/TR/2001/REC-SVG-20010904/DTD/svg10.dtd">
<svg version="1.0" id="twitter_1_" xmlns="http://www.w3.org/2000/svg" xmlns:xlink="http://www.w3.org/1999/xlink" x="0px" y="0px"
	 width="22px" height="17px" viewBox="0 0 22 17" enable-background="new 0 0 22 17" xml:space="preserve">
<g id="twitter">
	<g>
		<path fill-rule="evenodd" clip-rule="evenodd" fill="#346cab" d="M19.119,2.896c0.805-0.634,1.452-1.271,1.775-2.374
			c-0.805,0.309-1.618,0.788-2.746,0.941c-2.424-3.006-8.564-0.633-7.437,3.807c-4.208-0.317-6.787-2.22-8.886-4.439
			C0.687,2.734,1.659,5.743,3.109,6.539c-0.646,0-1.284-0.162-1.774-0.479c0.166,2.537,1.451,3.643,3.393,4.277
			c-0.48,0-1.127,0.162-1.776,0c0.649,1.748,1.942,2.852,4.042,3.007c-1.45,1.27-4.207,2.064-6.307,1.747
			c1.942,1.107,4.042,2.058,6.956,1.896c7.111-0.317,11.8-5.381,11.957-12.666c0.813-0.635,1.619-1.27,1.785-2.058
			C20.736,2.579,19.924,2.734,19.119,2.896z"/>
	</g>
</g>
</svg>
