<?xml version="1.0" encoding="utf-8"?>
<!-- Generator: Adobe Illustrator 16.0.0, SVG Export Plug-In . SVG Version: 6.00 Build 0)  -->
<!DOCTYPE svg PUBLIC "-//W3C//DTD SVG 1.0//EN" "http://www.w3.org/TR/2001/REC-SVG-20010904/DTD/svg10.dtd">
<svg version="1.0" id="vk_1_" xmlns="http://www.w3.org/2000/svg" xmlns:xlink="http://www.w3.org/1999/xlink" x="0px" y="0px"
	 width="26px" height="16px" viewBox="0 0 26 16" enable-background="new 0 0 26 16" xml:space="preserve">
<g id="vk">
	<g>
		<path fill-rule="evenodd" clip-rule="evenodd" fill="#AFAFAF" d="M21.313,8.99c-0.066-1.201,1.65-2.82,2.172-3.561
			c0.898-1.237,1.752-4.047,1.752-4.047l-5.454-0.035c0,0-1.939,5.192-4.202,6.43c-1.617-1.122,0.377-4.975-0.797-6.352
			c-0.82-0.958-5.844-0.69-6.03,0.535c0.553,0.162,1.088,0.334,1.308,0.831c0.554,1.226,0.39,4.87-0.511,4.985
			c-0.553,0.08-1.052-0.823-1.372-1.284C7.789,5.939,7.421,5.453,7.09,4.829C6.689,4.1,5.195,1.268,5.195,1.268L0.549,1.286
			c0,0,1.632,4.283,2.761,6.271c2.327,4.104,4.966,8.349,11.539,7.261c0.423-1.167,0.056-2.891,1.229-2.948
			c0.667-0.034,1.145,0.763,1.531,1.214c0.422,0.486,0.676,0.926,1.119,1.308c0.943,0.775,1.863,0.74,3.414,0.671
			c1.365-0.059,2.761,0.3,2.982-0.671c0.232-1.076-1.053-2.117-1.641-2.753C22.764,10.875,21.367,9.95,21.313,8.99z"/>
	</g>
</g>
</svg>
