<svg xmlns="http://www.w3.org/2000/svg" width="125" height="57" viewBox="0 0 125 57"><path fill-rule="evenodd" clip-rule="evenodd" fill="#346CAB" d="M124.785 34.113s-.459-.665-.663-2.29c-.252-2.038-1.852-3.779-2.845-4.5-.439-1.512-2.797-5.397-15.164-7.8-8.723-1.694-11.58-2.724-12.485-3.154l-.507-.463C92.41 15.242 75.12-.424 53.122.009 38.018.327 27.94 2.375 22.531 3.471c-2.096.424-3.618.731-4.376.731a8.547 8.547 0 0 0-.684-.039c-1.042 0-1.657.462-1.979.856-.691.837-.721 2.038-.574 3.03-.389.385-1.315 1.126-2.085 1.741-3.139 2.499-5.584 4.547-6.16 6.191-.087.241-.155.298-.155.298-.195 0-.322-.017-.449-.026a5.45 5.45 0 0 0-.594-.04c-1.979 0-2.565 1.896-2.837 3.319-.379 2.038-.574 4.404-.751 6.489-.195 2.356-.419 5.021-.858 5.705-.808 1.261-1.968 7.194.305 11.579 1.325 2.567 3.615 4.153 6.664 4.646a13.701 13.701 0 0 1-.107-1.039c-.007-.251-.037-.49-.037-.741 0-.096.02-.191.02-.288.165-6.926 5.906-12.512 12.961-12.512 7.153 0 12.972 5.741 12.972 12.8 0 .241-.028.461-.038.692-.02.337-.04.664-.09.982a9.847 9.847 0 0 1-.155.979c15.963.403 36.577.856 52.784 1.191a8.243 8.243 0 0 1-.262-.989 10.27 10.27 0 0 1-.187-.98 11.803 11.803 0 0 1-.155-1.876c0-7.059 5.818-12.8 12.972-12.8 7.152 0 12.971 5.741 12.971 12.8 0 .827-.087 1.625-.231 2.405-.07.335-.147.652-.235.98-.097.327-.204.654-.321.972 1.15.027 1.821.037 1.892.037-.051 0 1.247.173 2.961.173 5.392 0 8.598-1.605 9.269-4.663l.018-.2V34.382l-.215-.269zm-26.109 1.231c-6.061 0-10.973 4.846-10.973 10.828 0 .655.066 1.288.174 1.913a11 11 0 0 0 .566 1.982C90.03 54.124 94.008 57 98.676 57c4.513 0 8.383-2.681 10.066-6.51a8.27 8.27 0 0 0 .372-.982c.107-.314.194-.643.272-.97.167-.761.264-1.559.264-2.366 0-5.983-4.912-10.828-10.974-10.828zm-77.842 0c-6.053 0-10.965 4.836-10.973 10.809 0 0-.01.01-.01.02 0 .327.027.646.058.963.03.335.077.672.137 1C10.982 53.174 15.456 57 20.834 57c5.145 0 9.463-3.499 10.644-8.221a11.274 11.274 0 0 0 .302-1.961c.01-.212.027-.424.027-.646.001-5.983-4.91-10.828-10.973-10.828z"/></svg>