<svg xmlns="http://www.w3.org/2000/svg" width="136" height="92" viewBox="0 0 134 90"><path d="M36.651 44.891h-34a2 2 0 0 0-2 2v41a2 2 0 0 0 2 2h34a2 2 0 0 0 2-2v-41a2 2 0 0 0-2-2z" clip-rule="evenodd" fill="#346cab" fill-rule="evenodd" stroke="#346cab"/><path d="M84 24.349H50a2 2 0 0 0-2 2v61a2 2 0 0 0 2 2h34a2 2 0 0 0 2-2v-61a2 2 0 0 0-2-2z" clip-rule="evenodd" fill-rule="evenodd" stroke="#346cab" stroke-width="1.971" fill="none"/><path d="M131.062.589H97.526a1.973 1.973 0 0 0-1.972 1.973v84.826c0 1.089.883 1.973 1.972 1.973h33.536a1.973 1.973 0 0 0 1.973-1.973V2.562a1.973 1.973 0 0 0-1.973-1.973z" clip-rule="evenodd" fill-rule="evenodd" stroke="#346cab" fill="none" stroke-width="1.9490276"/></svg>