<svg xmlns="http://www.w3.org/2000/svg" width="125" height="49" viewBox="0 0 125 49"><path fill-rule="evenodd" clip-rule="evenodd" fill="#346CAB" d="M120.319 26.355L7.28 39.383c-.648.074-1.071.734-.879 1.372l2.254 7.493c.136.447.538.752.996.752h67.434c19.909 0 37.014-8.688 44.238-21.015.45-.766-.135-1.729-1.004-1.63zm3.992-13.03a2.052 2.052 0 0 0-1.614-.533l-28.64 3.137a1.028 1.028 0 0 1-.96-.441C91.271 12.854 82.947.889 82.947.889c-.41-.588-1.092-.897-1.794-.891L37.405 2.129a2.085 2.085 0 0 0-1.763 1.169 2.173 2.173 0 0 0 .127 2.142l3.642 5.587c.115.175.175.379.175.59v9.326c0 .543-.402 1.001-.931 1.057l-8.333.914c-.614.067-1.152-.427-1.152-1.06V18.56c0-.532.387-.984.904-1.055l3.538-.481c1.14-.155 1.944-1.229 1.79-2.395s-1.214-1.981-2.342-1.83L1.81 17.06a2.078 2.078 0 0 0-1.477.964 2.173 2.173 0 0 0-.237 1.774L4.53 34.537c.148.49.615.804 1.113.746L123.342 21.72c.432-.051.798-.364.906-.795.492-1.951.752-3.963.752-6.015a2.16 2.16 0 0 0-.689-1.585zM12.503 23.91c0 .543-.402 1.001-.929 1.059l-4.531.496c-.496.054-.96-.26-1.106-.745l-.773-2.565c-.189-.631.221-1.282.858-1.37l5.302-.723c.625-.085 1.179.414 1.179 1.058v2.79zm12.5-1.417c0 .539-.394.995-.919 1.057-1.938.234-6.262.733-6.262.733-.615.067-1.152-.427-1.152-1.06v-2.959c0-.533.388-.984.904-1.057l6.25-.853c.625-.085 1.179.413 1.179 1.057v3.082zm36.435-2.987l-16.533 1.812c-.614.067-1.152-.427-1.152-1.06v-9.931c0-.211-.061-.418-.175-.592l-1.281-1.961c-.45-.69.008-1.617.817-1.655l16.479-.803a1.05 1.05 0 0 1 1.082.913l1.685 12.066c.081.598-.338 1.147-.922 1.211zm25.528-2.8s-15.271 1.643-19.335 2.063c-.557.058-1.046-.345-1.125-.909L64.881 6.222c-.088-.622.369-1.185.981-1.215l13.787-.671c.354-.018.691.151.897.445l7.156 10.246c.464.665.056 1.592-.736 1.679z"/></svg>