<svg xmlns="http://www.w3.org/2000/svg" width="74" height="95" viewBox="0 0 74 95"><path fill-rule="evenodd" clip-rule="evenodd" fill="#346CAB" d="M72.973 16.502L62.726 6.248a3.537 3.537 0 0 0-5 0l-2.712 2.714a3.536 3.536 0 0 0 0 5.001l10.249 10.252a3.536 3.536 0 0 0 4.997 0l2.713-2.714a3.536 3.536 0 0 0 0-4.999zm-24.844-3.754a3.543 3.543 0 0 0-2.5-1.036h-5.737V9.661c0-5.328-4.332-9.662-9.66-9.662H15.313c-5.326 0-9.658 4.334-9.658 9.662v2.051h-.463A5.202 5.202 0 0 0 0 16.907v72.898A5.198 5.198 0 0 0 5.192 95h57.933a5.198 5.198 0 0 0 5.193-5.195V34.413c0-.937-.373-1.836-1.035-2.499L48.129 12.748zm-15.305-1.036H12.722V9.661a2.594 2.594 0 0 1 2.591-2.592h14.922a2.594 2.594 0 0 1 2.59 2.592v2.051z"/></svg>