<svg xmlns="http://www.w3.org/2000/svg" width="88" height="86" viewBox="0 0 88 86"><path fill-rule="evenodd" clip-rule="evenodd" fill="#346CAB" d="M36.215 17.174h-1.193c-1.399 0-2.524 1.042-2.524 2.316v9.82h6.25v-9.82c-.009-1.274-1.134-2.316-2.533-2.316zm16.755 0h-1.19c-1.401 0-2.535 1.042-2.535 2.316v9.82h6.25v-9.82c-.001-1.274-1.126-2.316-2.525-2.316zM43.997.01C19.732.01-.011 19.739-.011 43.985c0 11.707 4.552 22.726 12.815 31.022a44.168 44.168 0 0 0 17.509 10.788c.439.14.886.205 1.316.205a4.242 4.242 0 0 0 4.031-2.921 4.221 4.221 0 0 0-2.715-5.334 35.758 35.758 0 0 1-14.131-8.71C12.141 62.332 8.466 53.439 8.466 43.984c0-19.581 15.943-35.504 35.531-35.504 19.595 0 35.528 15.923 35.528 35.504 0 9.489-3.691 18.398-10.396 25.1-2.574 2.316-8.965 6.956-12.798 6.956-1.971 0-3.444-.62-4.637-1.952-3.037-3.374-3.7-10.216-3.675-14.973 7.359-.373 13.211-6.436 13.211-13.873V32.057H26.762v13.186c0 7.296 5.62 13.27 12.772 13.848-.041 5.676.754 14.98 5.836 20.64 2.798 3.128 6.589 4.781 10.961 4.781 8.204 0 17.532-8.28 18.568-9.223l.14-.125c8.361-8.313 12.964-19.39 12.964-31.179C88.003 19.738 68.26.01 43.997.01z"/></svg>