<svg xmlns="http://www.w3.org/2000/svg" width="115" height="65" viewBox="0 0 115 65"><path fill-rule="evenodd" clip-rule="evenodd" fill="#346CAB" d="M112.043 55.074v.327c-1.356 0-2.456 1.113-2.456 2.487 0 1.179-.949 2.137-2.113 2.137H96.525v-6.687h5.196c4.637 0 8.938-2.448 11.347-6.459 2.409-4.009 2.578-9 .445-13.167-3.636-7.102-14.286-19.122-31.146-19.122h-6.826V5.446s27.083-.244 27.896-.142c.101.011.2.018.301.018 2.341 0 4.246.036 4.246-2.334 0-2.369-1.905-2.988-4.246-2.988H42.365c-2.341 0-4.247.619-4.247 2.988 0 2.37 1.906 2.334 4.247 2.334.1 0 .201-.007.299-.018.817-.103 27.962.133 27.962.133v9.152h-12.85c-2.81 0-8.378 5.15-10.571 6.718H11.2l-4.434-7.249c-1.839-2.368-2.486-2.368-4.54-2.311-2.975.084-2.113 3.667-2.113 6.68L.76 24.12c0 3.903 3.126 7.067 6.983 7.067H44.87a13.457 13.457 0 0 0 4.371 7.14L63.207 50.19a13.186 13.186 0 0 0 8.538 3.147h4.523v6.687H65.881c-1.357 0-2.457 1.113-2.457 2.486 0 1.374 1.1 2.487 2.457 2.487h41.593c3.874 0 7.026-3.19 7.026-7.111 0-1.371-1.1-2.812-2.457-2.812zm-20.431 4.951h-10.43v-6.687h10.431v6.687z"/></svg>