<svg xmlns="http://www.w3.org/2000/svg" width="103" height="65" viewBox="0 0 103 65"><path fill-rule="evenodd" clip-rule="evenodd" fill="#346CAB" d="M94.439 31.261c1.884-.778 2.27-4.035-.224-4.676a17.561 17.561 0 0 0-5.756-.505c4.146-3.825 6.093-6.826 3.056-7.493-2.647-.577-4.811-1.596-6.751-2.661.521-6.547 1.05-16.085-8.032-15.923-3.166.056-3.172 4.988 0 4.933 4.01-.072 3.826 4.708 3.409 8.423-3.279-1.622-6.509-2.224-11.335.817-9.578 6.025-27.365 5.471-41.591-1.099-14.228-6.568-14.501-1.645-14.501-1.645s-15.34 21.763-4.921 13.42c3.798-3.04 9.427-2.655 15.583-.522-7.071-1.41-15.158.61-21.226 6.379-1.539 1.46-.497 3.488 1.048 4.035A18.2 18.2 0 0 0-.007 45.083c0 10.091 8.175 18.271 18.258 18.271 10.028 0 18.156-8.076 18.26-18.087 1.346.177 2.781-.602 2.678-2.343-.361-5.791-2.581-10.309-5.86-13.491.072-.138.136-.273.209-.411 6.484 3.618 12.784 8.143 17.489 11.777-.08.104-.16.207-.224.328-.546 1.099-1.092 2.189-1.635 3.29-.602 1.201-.337 2.661.882 3.367 1.098.651 2.764.32 3.365-.883l1.499-3.006c2.517 2.053 4.039 3.408 4.039 3.408s1.547-.971 3.984-2.559a17.925 17.925 0 0 0-.361 3.313c-.041 2.415 2.789 2.983 4.176 1.733C68.213 58.422 75.701 65 84.742 65 94.825 65 103 56.818 103 46.72c0-6.514-3.422-12.227-8.561-15.459zm-76.187 27.17c-7.35 0-13.337-5.992-13.337-13.348 0-7.363 5.987-13.348 13.337-13.348 2.462 0 4.754.682 6.734 1.844-2.501 3.657-5.284 7.148-8.265 10.478-2.116 2.357 1.354 5.854 3.48 3.488 3.053-3.408 5.922-6.972 8.52-10.717a13.276 13.276 0 0 1 2.869 8.255c0 7.355-5.979 13.348-13.338 13.348zm63.476-24.7c.089 2.022.177 4.052.304 6.072-1.338-1.54-2.756-3.015-4.189-4.483a13.147 13.147 0 0 1 3.885-1.589zm3.014 26.344c-7.358 0-13.338-5.992-13.338-13.348 0-3.074 1.049-5.897 2.797-8.15 3.431 3.506 6.773 7.066 9.024 11.543 1.37 2.719 4.876.649 4.506-1.894-.706-4.877-.946-9.786-1.139-14.702 6.476.905 11.487 6.472 11.487 13.203.001 7.356-5.987 13.348-13.337 13.348z"/></svg>