<svg xmlns="http://www.w3.org/2000/svg" width="115" height="71" viewBox="0 0 115 71"><path fill-rule="evenodd" clip-rule="evenodd" fill="#346CAB" d="M113.168 46.698c1.735.824 2.276-.729 1.201-2.169 0 0-5.156-9.361-19.494-7.426l4.361-4.031c.316-.293.529-.685.604-1.112a36.36 36.36 0 0 0 .404-3.187h-3.529c-3.008-5.069 2.321-8.568 2.321-8.568.413.469.742.974 1.006 1.491-.993-6.685-4.16-11.462-7.145-14.6C88.236 2.194 83.098.207 82.882.125a1.946 1.946 0 0 0-2.183.573 1.974 1.974 0 0 0-.19 2.26c2.009 3.444 3.02 5.97 3.464 7.817l-2.908-.531a1.856 1.856 0 0 0-2.156 1.503 1.865 1.865 0 0 0 1.493 2.169l3.61.661c-.054.136-.11.255-.17.359-.818 1.438-2.92 1.594-3.785 1.594-.146 0-.264-.004-.348-.01-7.545-2.129-12.994-2.981-13.225-3.017a20.06 20.06 0 0 0-2.932-.221c-4.668 0-8.795 1.791-11.936 5.18a18.541 18.541 0 0 0-2.705 3.798c-8.165-1.07-12.591-5.682-12.631-5.725a1.95 1.95 0 0 0-1.429-.626h-.018l-21.667.197a1.953 1.953 0 0 0-1.753 1.139l-1.176 2.553a1.97 1.97 0 0 0 .934 2.603l2.044.975h-2.346c-.863 0-1.562.703-1.562 1.57 0 .869.699 1.572 1.562 1.572h1.003l-6.31 7.542a1.58 1.58 0 0 0 .189 2.214 1.55 1.55 0 0 0 2.2-.19l8.005-9.565h1.596l3.474 8.059 13.532 5.648v2.724l-4.32 1.861c-2.999-4.35-7.994-7.206-13.643-7.206C7.445 37.604 0 45.096 0 54.303 0 63.509 7.445 71 16.595 71c9.151 0 16.595-7.49 16.595-16.697 0-.73-.052-1.449-.143-2.154l4.315-1.859 7.238 7.28a1.941 1.941 0 0 0 2.471.24l17.962-12.18c.074-.051.146-.106.215-.168 5.235-4.74 12.886-5.736 18.381-5.736.823 0 1.598.023 2.306.06-6.776 7.42-16.276 6.497-16.276 6.497l-8.004 6.003h20.277a16.99 16.99 0 0 0-.125 2.018C81.807 63.509 89.252 71 98.402 71s16.595-7.49 16.595-16.697c0-2.739-.662-5.323-1.829-7.605zM16.595 63.143c-4.845 0-8.785-3.967-8.785-8.84 0-4.875 3.94-8.84 8.785-8.84 2.408 0 4.592.98 6.181 2.563l-7.198 3.102 3.075 7.223 6.646-2.864c-.577 4.316-4.258 7.656-8.704 7.656zm17.963-27.171l-10.577-4.415-1.653-3.834 12.229 5.834v2.415zm63.844 27.171c-4.845 0-8.785-3.967-8.785-8.84 0-1.776.523-3.432 1.425-4.818l3.36 6.971 7.026-3.43-3.635-7.539c.2-.015.403-.023.608-.023 4.844 0 8.785 3.965 8.785 8.84.002 4.872-3.94 8.839-8.784 8.839z"/></svg>