<svg xmlns="http://www.w3.org/2000/svg" width="125" height="67" viewBox="0 0 125 67"><path fill-rule="evenodd" clip-rule="evenodd" fill="#346CAB" d="M91.486 41.402c-7.065 0-12.815 5.742-12.815 12.799S84.42 67 91.486 67c7.065 0 12.814-5.742 12.814-12.799s-5.748-12.799-12.814-12.799zm0 19.518c-3.709 0-6.728-3.014-6.728-6.72 0-3.704 3.019-6.719 6.728-6.719s6.728 3.015 6.728 6.719c0 3.706-3.019 6.72-6.728 6.72zM28.327 41.228c-7.067 0-12.815 5.74-12.815 12.798 0 7.059 5.748 12.799 12.815 12.799s12.816-5.74 12.816-12.799c0-7.058-5.749-12.798-12.816-12.798zm0 19.516c-3.709 0-6.728-3.014-6.728-6.719 0-3.704 3.018-6.72 6.728-6.72s6.729 3.016 6.729 6.72c-.001 3.705-3.02 6.719-6.729 6.719zm96.578-17.567l-.05-4.021c-.053-3.578.148-7.265-2.831-9.252-4.58-3.056-12.292-5.605-26.419-5.47-2.8.026-9.369-9.373-12.598-15.132C78.428 1.127 72.965 0 67.744 0H15.512c-5.14 0-7.262 5.091-7.667 7.783l-.016.121-.082.807H6.279a5.261 5.261 0 0 0-5.265 5.258v14.196c0 1.392.545 2.652 1.428 3.59-3.98 9.415-4.685 20.836 10.361 21.789.256-8.332 7.118-15.034 15.523-15.034 8.419 0 15.291 6.726 15.524 15.08h32.204c.322-8.226 7.119-14.816 15.432-14.816 8.303 0 15.095 6.578 15.431 14.79.974-.018 5.177-.069 10.941-.342 2.287-.108 5.658-2.671 6.78-5.664.516-1.374.289-2.912.267-4.381zM29.63 24.196c-7.653-.03-14.073-.055-18.172-.069l2.127-17.176c.067-.348.163-1.693 1.927-1.693H29.63v18.938zm26.359.099L33.63 24.21V5.258h22.359v19.037zm13.115 8.412h-5.561a1.307 1.307 0 1 1 0-2.613h5.561a1.308 1.308 0 0 1 0 2.613zm-9.115-8.397V5.258h7.755c3.812 0 7.244.497 10.67 6.611 2.423 4.324 7.123 9.305 8.886 12.542-8.187-.029-17.722-.065-27.311-.101z"/></svg>