<svg xmlns="http://www.w3.org/2000/svg" width="125" height="36" viewBox="0 0 125 36"><path fill-rule="evenodd" clip-rule="evenodd" fill="#346CAB" d="M122.613 31.426c1.289-4.259.948-7.854-1.018-10.687-3.756-5.377-12.087-6.072-13.675-6.15l-3.116-1.664-.2-.081c-3.464-.979-16.489-1.376-18.448-1.435-3.076-1.506-5.633-2.911-7.891-4.161C70.337 2.883 65.103 0 50.122 0 31.962 0 17.15 7.804 15.164 8.894c-1.079.079-2.038.157-2.948.229L9.73 5.772l2.825.3c1.13.116 1.649-.477 1.169-1.318-.479-.853-1.767-1.636-2.897-1.752l-9.238-.961C.461 1.922-.058 2.515.42 3.356c.481.852 1.777 1.636 2.897 1.755l1.427.146 3.148 4.229c-5.334.497-5.334.813-5.334 1.663 0 7.013-.908 8.639-1.089 8.945L.002 18.935v7.27l.869 1.107c-.041 1.061.32 2.031 1.028 2.845 2.309 2.604 7.612 2.673 8.2 2.673 1.787 0 5.484-.9 8.021-1.585-.179-.297-.36-.593-.499-.92-.141-.307-.24-.634-.35-.961-.31-.951-.52-1.95-.52-3.002 0-5.378 4.414-9.754 9.837-9.754 5.433 0 9.849 4.376 9.849 9.754 0 2.327-.859 4.437-2.227 6.112a9.352 9.352 0 0 1-.928 1.01c-.391.367-.8.712-1.25 1.009 11.317.04 43.269.2 65.082.675-.32-.317-.588-.675-.867-1.03-.25-.326-.471-.674-.68-1.029-.828-1.427-1.348-3.07-1.348-4.835 0-5.388 4.413-9.764 9.847-9.764 5.423 0 9.839 4.376 9.839 9.764a9.668 9.668 0 0 1-1.598 5.299c-.23.358-.509.675-.791 1.002a9.942 9.942 0 0 1-.969.979c2.01.062 3.736.092 5.224.092 7.543 0 9.021-.645 9.2-1.912.069-.388.21-1.349-2.358-2.308zM26.588 18.64c-4.293 0-7.799 3.467-7.799 7.724 0 .872.179 1.693.447 2.467.11.327.241.644.391.951.159.307.31.623.499.91a7.83 7.83 0 0 0 6.461 3.407c.092 0 .171-.021.261-.028a7.74 7.74 0 0 0 2.807-.596 8.128 8.128 0 0 0 1.678-1.009c1.838-1.417 3.055-3.615 3.055-6.103.001-4.257-3.494-7.723-7.8-7.723zm77.477 1.902c-4.293 0-7.791 3.466-7.791 7.732 0 1.864.69 3.558 1.808 4.894.31.375.66.723 1.051 1.04a7.52 7.52 0 0 0 1.646 1.049c1 .467 2.107.743 3.286.743 1.03 0 1.997-.208 2.896-.563a8.577 8.577 0 0 0 1.708-.951c.399-.299.76-.626 1.1-.981 1.289-1.376 2.097-3.209 2.097-5.23 0-4.267-3.495-7.733-7.801-7.733z"/></svg>