<svg xmlns="http://www.w3.org/2000/svg" width="100" height="100" viewBox="0 0 100 100"><path fill-rule="evenodd" clip-rule="evenodd" fill="#346CAB" d="M98.772 80.057L68.719 45.814c4.063-5.457 7.429-11.461 9.885-17.952 1.514-4.06-2.383-7.954-6.445-6.44-6.492 2.448-12.524 5.813-17.959 9.874L19.935 1.262c-1.945-1.711-4.881-1.612-6.727.215L7.65 7.025c-1.754 1.754-1.92 4.541-.406 6.516l13.03 16.703a97.437 97.437 0 0 0 8.081 9.153l9.183 9.18c-1.373 2.018-2.696 4.085-3.896 6.25-3.201 5.789-6.733 11.388-11.036 16.414-1.132 1.316-2.142 2.521-3.151 3.722L8.924 67.586a4.915 4.915 0 0 0-6.296.554l-1.157 1.151c-1.754 1.753-1.92 4.521-.431 6.49l8.364 10.907a192.51 192.51 0 0 1-4.659 5.075c-2.548 2.547.936 6.029 3.484 3.482a356.56 356.56 0 0 1 5.071-4.639l10.943 8.343c1.945 1.513 4.708 1.316 6.463-.438l1.157-1.15a4.934 4.934 0 0 0 .554-6.3L25.031 80.56c1.231-1.034 2.406-2.018 3.729-3.169 5.022-4.281 10.629-7.813 16.421-11.03 2.167-1.182 4.229-2.504 6.253-3.895l9.184 9.204a100.29 100.29 0 0 0 9.158 8.071L86.51 92.746c1.945 1.538 4.733 1.342 6.487-.412l5.558-5.549c1.83-1.825 1.947-4.778.217-6.728z"/></svg>