<svg xmlns="http://www.w3.org/2000/svg" width="90" height="89" viewBox="0 0 90 89"><path fill-rule="evenodd" clip-rule="evenodd" fill="#346CAB" d="M70.446 50.008c-1.618 0-3.206.195-4.737.574L63.924 44.5l1.785-6.083c1.531.379 3.119.574 4.737.574a19.422 19.422 0 0 0 13.813-5.71c7.616-7.602 7.616-19.97 0-27.571C80.57 2.027 75.664 0 70.446 0S60.322 2.027 56.633 5.71s-5.721 8.578-5.721 13.786c0 1.442.156 2.861.46 4.237L44.986 25.6 38.6 23.733a19.63 19.63 0 0 0 .46-4.237A19.347 19.347 0 0 0 33.338 5.71C29.649 2.027 24.744 0 19.526 0S9.402 2.027 5.713 5.71c-7.617 7.602-7.617 19.97 0 27.571a19.422 19.422 0 0 0 13.813 5.71 19.7 19.7 0 0 0 4.738-.574l1.785 6.083-1.785 6.083a19.7 19.7 0 0 0-4.738-.574 19.422 19.422 0 0 0-13.813 5.71c-7.617 7.602-7.617 19.97 0 27.571A19.425 19.425 0 0 0 19.525 89a19.426 19.426 0 0 0 13.813-5.71 19.352 19.352 0 0 0 5.721-13.786c0-1.442-.157-2.861-.46-4.237l6.386-1.867 6.386 1.867a19.63 19.63 0 0 0-.461 4.237 19.347 19.347 0 0 0 5.722 13.786A19.431 19.431 0 0 0 70.445 89a19.428 19.428 0 0 0 13.814-5.71c7.615-7.602 7.615-19.971 0-27.571a19.423 19.423 0 0 0-13.813-5.711zM28.647 79.661a13.643 13.643 0 0 1-8.381 3.462c-3.925.205-7.648-1.226-10.403-3.975-5.329-5.318-5.329-13.971 0-19.289a13.593 13.593 0 0 1 9.663-3.994c1.052 0 2.084.121 3.084.351L15.887 71.93c-.289.984.627 1.899 1.613 1.61l15.445-6.621c.161.844.246 1.708.246 2.585 0 3.891-1.621 7.532-4.544 10.157zm4.299-57.581l-15.357-6.533c-.987-.288-1.903.626-1.614 1.61l6.635 15.626c-1 .229-2.033.351-3.084.351-3.65 0-7.082-1.418-9.664-3.994-5.328-5.317-5.328-13.971 0-19.288a13.59 13.59 0 0 1 9.664-3.995 13.59 13.59 0 0 1 9.663 3.995 13.533 13.533 0 0 1 4.003 9.644c0 .877-.085 1.741-.246 2.584zm15.941 26.314a5.485 5.485 0 0 1-3.901 1.612c-1.474 0-2.859-.572-3.901-1.612s-1.616-2.423-1.616-3.894.574-2.854 1.616-3.894 2.427-1.612 3.901-1.612c1.473 0 2.86.572 3.901 1.612 1.043 1.04 1.616 2.423 1.616 3.894s-.573 2.854-1.616 3.894zM61.324 9.339a13.642 13.642 0 0 1 8.383-3.463c3.924-.205 7.647 1.227 10.402 3.976 5.328 5.317 5.328 13.971 0 19.288a13.59 13.59 0 0 1-9.663 3.995c-1.052 0-2.084-.122-3.085-.351l6.636-15.627c.289-.984-.627-1.898-1.614-1.61l-15.356 6.534a13.785 13.785 0 0 1-.246-2.585c-.001-3.891 1.62-7.532 4.543-10.157zm18.785 69.809a13.593 13.593 0 0 1-9.663 3.994 13.592 13.592 0 0 1-9.663-3.994 13.535 13.535 0 0 1-4.003-9.645c0-.877.085-1.741.245-2.585l15.482 6.585c.941.274 1.815-.598 1.539-1.537L67.36 56.215c1-.229 2.033-.351 3.084-.351 3.65 0 7.082 1.419 9.664 3.995 5.33 5.319 5.33 13.971.001 19.289z"/></svg>