<svg xmlns="http://www.w3.org/2000/svg" width="105" height="61" viewBox="0 0 105 61"><path fill-rule="evenodd" clip-rule="evenodd" fill="#346CAB" d="M54.574 11.633c-1.619-1.487-3.667-2.537-6.14-2.961V6.005c0-.061.117-.077.115-.136-.095-3.278-2.679-5.871-5.986-5.871H17.677V9.87c-3.889 2.019-6.304 5.999-6.304 10.578 0 .047.033.092.033.137a19.678 19.678 0 0 1 2.265-.137H58.45c0-1.098-.149-2.162-.428-3.173H105v-5.643H54.574zm36.635 10.931H13.67C6.185 22.564 0 28.703 0 36.169v.117c0 6.704 4.949 12.195 11.313 13.245v.097c0 2.083.622 4.034 1.602 5.713C14.892 58.726 18.625 61 22.833 61h59.216c4.208 0 7.821-2.274 9.798-5.657.98-1.681 1.484-3.632 1.484-5.713v-.097c6.364-1.051 11.313-6.543 11.313-13.247v-.117c.001-7.466-5.949-13.605-13.435-13.605zM23.133 55.095c-3.175 0-5.748-2.565-5.748-5.732 0-3.166 2.573-5.731 5.748-5.731 3.174 0 5.748 2.565 5.748 5.731s-2.573 5.732-5.748 5.732zm19.445 0c-3.175 0-5.749-2.565-5.749-5.732 0-3.166 2.574-5.731 5.749-5.731 3.174 0 5.748 2.565 5.748 5.731-.001 3.166-2.575 5.732-5.748 5.732zm19.443 0c-3.175 0-5.748-2.565-5.748-5.732 0-3.166 2.573-5.731 5.748-5.731 3.174 0 5.748 2.565 5.748 5.731.001 3.166-2.574 5.732-5.748 5.732zm19.444 0c-3.174 0-5.748-2.565-5.748-5.732 0-3.166 2.574-5.731 5.748-5.731 3.175 0 5.748 2.565 5.748 5.731s-2.573 5.732-5.748 5.732z"/></svg>