<svg version="1" xmlns="http://www.w3.org/2000/svg" width="71" height="36" viewBox="0 0 71 36"><path fill-rule="evenodd" clip-rule="evenodd" fill="#777" d="M69.1.637a2.11 2.11 0 0 0-.25-.058c-.889-.107-1.482.712-1.929 1.641-6.796 14.259-29.472 26.188-47.425 23.969-.083-.006-6.733-.614-12.311-3.373l7.693-1.834c.902-.213 1.535-1.198 1.419-2.197-.11-1.001-.936-1.634-1.837-1.424l-12.123 2.89a1.71 1.71 0 0 0-.468.199l-.004-.002c-.001.004-.005.003-.006.007a1.9 1.9 0 0 0-.573.572c-.09.131-.167.273-.223.426-.022.058-.049.106-.064.168-.011.033-.026.056-.035.086-.047.185-.063.37-.062.554-.001.017.006.034.008.056.009.201.055.391.119.573.012.024.007.055.02.079L5.942 34.61c.377.89 1.35 1.21 2.179.71.826-.498 1.191-1.627.815-2.517l-2.638-6.278c5.877 2.735 12.314 3.326 12.624 3.349 19.677 2.438 42.864-8.735 51.225-27.25.388-.853-.299-1.753-1.047-1.987z"/></svg>