<svg xmlns="http://www.w3.org/2000/svg" viewBox="0 0 25 25" width="25" height="25"><path d="M12.494.695c-6.627 0-12 5.373-12 12s5.373 12 12 12 12-5.373 12-12-5.373-12-12-12zm-.188 19.535c-1.148 0-1.926-.845-1.926-1.97 0-1.15.8-1.97 1.926-1.97 1.169 0 1.928.82 1.948 1.97 0 1.125-.779 1.97-1.948 1.97zm2.62-8.054c-.801.886-1.125 1.732-1.103 2.705v.39h-2.878l-.022-.563c-.065-1.105.303-2.23 1.276-3.4.694-.823 1.257-1.515 1.257-2.251 0-.76-.499-1.256-1.583-1.3-.713 0-1.58.26-2.143.65l-.737-2.361c.779-.455 2.079-.888 3.616-.888 2.858 0 4.158 1.58 4.158 3.38 0 1.645-1.018 2.728-1.841 3.638z" fill="#a2a2a2"/></svg>