<svg version="1" xmlns="http://www.w3.org/2000/svg" width="32" height="26" viewBox="0 0 32 26"><path fill-rule="evenodd" clip-rule="evenodd" fill="#D9450A" d="M11.948 11.159H2.726C1.223 11.159 0 12.396 0 13.916v9.327C0 24.763 1.223 26 2.726 26h9.223c1.502 0 2.726-1.237 2.726-2.757v-9.327c-.001-1.52-1.224-2.757-2.727-2.757zm1.404 12.084c0 .782-.63 1.42-1.404 1.42H2.726a1.415 1.415 0 0 1-1.404-1.42v-9.327c0-.783.63-1.42 1.404-1.42h9.223c.773 0 1.404.637 1.404 1.42v9.327zm18.414-12.108l-3.74-8.526a2.72 2.72 0 0 0-1.511-1.455 2.676 2.676 0 0 0-2.085.053l-8.431 3.782a2.722 2.722 0 0 0-1.438 1.528 2.762 2.762 0 0 0 .052 2.109l3.739 8.526a2.723 2.723 0 0 0 2.493 1.64c.376 0 .751-.079 1.104-.237l8.43-3.782c1.375-.617 1.996-2.25 1.387-3.638zm-1.182 1.628a1.4 1.4 0 0 1-.741.787l-8.43 3.782a1.4 1.4 0 0 1-1.852-.722l-3.739-8.526a1.426 1.426 0 0 1 .714-1.874l8.43-3.782a1.397 1.397 0 0 1 1.853.723l3.738 8.526c.152.346.162.731.027 1.086zm-6.93-3.64a.88.88 0 0 0-1.035.078.89.89 0 0 0 .57 1.57.892.892 0 0 0 .863-.718.901.901 0 0 0-.398-.93zm-19.261 5.15a.879.879 0 0 0-1.023.068.903.903 0 0 0-.275.975.89.89 0 0 0 .833.605.894.894 0 0 0 .465-1.648zm0 3.549a.882.882 0 0 0-1.023.068.903.903 0 0 0-.275.975c.12.357.459.605.833.605a.894.894 0 0 0 .465-1.648zm0 3.549a.88.88 0 0 0-1.023.068.903.903 0 0 0-.275.975c.12.357.46.604.833.604a.892.892 0 0 0 .465-1.647zm6.817-7.098a.884.884 0 0 0-1.046.087.91.91 0 0 0-.248.973.89.89 0 0 0 .829.589.894.894 0 0 0 .465-1.649zm-.465 5.198a.894.894 0 0 0 .465-1.648.882.882 0 0 0-1.046.087.904.904 0 0 0-.252.956c.119.357.46.605.833.605zm.465 1.9a.882.882 0 0 0-1.035.077.905.905 0 0 0-.259.979.888.888 0 0 0 .829.591.894.894 0 0 0 .865-.717.902.902 0 0 0-.4-.93z"/></svg>