<?xml version="1.0" encoding="utf-8"?>
<!-- Generator: Adobe Illustrator 16.0.0, SVG Export Plug-In . SVG Version: 6.00 Build 0)  -->
<!DOCTYPE svg PUBLIC "-//W3C//DTD SVG 1.0//EN" "http://www.w3.org/TR/2001/REC-SVG-20010904/DTD/svg10.dtd">
<svg version="1.0" id="_x32__1_" xmlns="http://www.w3.org/2000/svg" xmlns:xlink="http://www.w3.org/1999/xlink" x="0px" y="0px"
	 width="21px" height="23px" viewBox="0 0 21 23" enable-background="new 0 0 21 23" xml:space="preserve">
<g id="_x32_">
	<g>
		<path fill-rule="evenodd" clip-rule="evenodd" fill="#D9450A" d="M16.079,4.293c0.542,1.184,0.645,3.187-0.45,4.158
			C13.777,1.438,9.197,0,9.197,0c0.542,3.617-1.964,7.572-4.379,10.528C4.732,9.086,4.642,8.09,3.883,6.71
			c-0.17,2.62-2.176,4.756-2.719,7.382C0.428,17.646,1.715,20.25,6.602,23c-1.535-3.189-0.717-5.018,0.462-6.739
			c1.292-1.886,1.625-3.753,1.625-3.753s1.016,1.318,0.609,3.381c1.794-1.994,2.133-5.172,1.862-6.39
			c4.057,2.831,5.789,8.959,3.453,13.501C27.039,15.979,17.705,5.477,16.079,4.293z"/>
	</g>
</g>
</svg>
