<svg xmlns="http://www.w3.org/2000/svg" width="23" height="23" viewBox="0 0 23 23"><g fill="#fc1635"><path d="M2.294 1.393v15.532c0 .253.133.495.35.615l8.375 5.02c.121.073.242.11.374.11a.749.749 0 0 0 .387-.11l8.52-5.333a.708.708 0 0 0 .338-.616V1.393a.726.726 0 0 0-.725-.724H3.018a.726.726 0 0 0-.724.724zm1.448.725H19.19v14.095l-7.808 4.888-7.639-4.586V2.118z"/><path d="M10.79 6.353a2.72 2.72 0 0 0-2.715-2.715c-1.497 0-2.703 1.231-2.703 2.715A2.727 2.727 0 0 0 8.087 9.07a2.71 2.71 0 0 0 2.703-2.716zm-3.97 0c0-.7.567-1.267 1.267-1.267s1.255.58 1.255 1.267c0 .688-.567 1.268-1.255 1.268A1.275 1.275 0 0 1 6.82 6.353zm4.948 7.772a2.72 2.72 0 0 0 2.715 2.716 2.72 2.72 0 0 0 2.715-2.716c0-1.496-1.23-2.703-2.715-2.703-1.484 0-2.715 1.219-2.715 2.703zm3.97 0a1.267 1.267 0 1 1-2.534 0c0-.7.579-1.255 1.279-1.255s1.255.567 1.255 1.255zm-.072-9.751a.727.727 0 0 0-1.014.133l-7.555 9.944a.727.727 0 0 0 .133 1.014.72.72 0 0 0 1.014-.145l7.566-9.932a.719.719 0 0 0-.144-1.014z"/></g></svg>