<svg xmlns="http://www.w3.org/2000/svg" viewBox="0 0 33.22 33.22"><path d="M8.806 7.283h20.113v3.415H8.806zm0 7.932h13.8v3.413h-13.8zm-.14 7.471h16.565v3.413H8.666zM5.412 11.331V5.666H4.324l-1.509.699.218.993 1.08-.514h.018v4.487zm1.343 7.657H4.653v-.018l.513-.427c.81-.716 1.478-1.459 1.478-2.392 0-1.01-.684-1.743-1.948-1.743-.745 0-1.401.256-1.812.571l.368.925c.29-.214.71-.454 1.187-.454.642 0 .907.36.907.811-.009.651-.598 1.274-1.82 2.367l-.71.64v.79h3.94v-1.07zM5.64 24.556v-.017c.697-.237 1.037-.717 1.037-1.318 0-.776-.671-1.408-1.874-1.408-.74 0-1.41.207-1.751.424l.27.96c.227-.14.715-.339 1.176-.339.568 0 .839.25.839.59 0 .481-.56.654-1.004.654H3.82v.95h.54c.575 0 1.134.253 1.134.819 0 .419-.35.75-1.038.75-.54 0-1.08-.218-1.316-.35l-.27 1.004c.332.198.95.39 1.682.39 1.437 0 2.319-.73 2.319-1.722 0-.752-.549-1.268-1.231-1.387z" fill="#a1c5e1"/></svg>