<?xml version="1.0" encoding="utf-8"?>
<!-- Generator: Adobe Illustrator 16.0.0, SVG Export Plug-In . SVG Version: 6.00 Build 0)  -->
<!DOCTYPE svg PUBLIC "-//W3C//DTD SVG 1.0//EN" "http://www.w3.org/TR/2001/REC-SVG-20010904/DTD/svg10.dtd">
<svg version="1.0" id="_x31__1_" xmlns="http://www.w3.org/2000/svg" xmlns:xlink="http://www.w3.org/1999/xlink" x="0px" y="0px"
	 width="26px" height="25px" viewBox="0 0 26 25" enable-background="new 0 0 26 25" xml:space="preserve">
<g id="_x31_">
	<g>
		<path fill-rule="evenodd" clip-rule="evenodd" fill="#779AC6" d="M25.84,13.629l-1.838-2.956
			c-0.145-0.234-0.194-0.518-0.137-0.788l0.729-3.415c0.114-0.532-0.19-1.064-0.701-1.231l-3.281-1.067
			c-0.261-0.084-0.478-0.269-0.604-0.514l-1.605-3.092c-0.25-0.481-0.82-0.691-1.318-0.486L13.895,1.4
			c-0.254,0.105-0.537,0.105-0.789,0L9.916,0.08C9.418-0.126,8.849,0.084,8.598,0.566L6.992,3.657
			c-0.127,0.245-0.344,0.43-0.604,0.514L3.106,5.238C2.595,5.404,2.292,5.938,2.405,6.47l0.729,3.415
			c0.058,0.271,0.009,0.554-0.137,0.788l-1.837,2.956c-0.287,0.461-0.181,1.066,0.243,1.4l2.724,2.141
			c0.216,0.17,0.357,0.418,0.395,0.693l0.467,3.462c0.072,0.539,0.538,0.935,1.074,0.913l3.443-0.135
			c0.272-0.011,0.539,0.088,0.741,0.273l2.552,2.348c0.398,0.366,1.005,0.366,1.402,0l2.552-2.348
			c0.202-0.187,0.469-0.284,0.741-0.273l3.443,0.135c0.537,0.021,1.002-0.374,1.074-0.913l0.467-3.462
			c0.037-0.275,0.179-0.523,0.395-0.693l2.723-2.141C26.021,14.695,26.126,14.09,25.84,13.629z M10.609,16.722l-3.041-2.153
			l1.25,2.937L7.985,17.87l-1.917-4.504l0.873-0.382l3.098,2.212l-1.28-3.008l0.833-0.364l1.917,4.504L10.609,16.722z
			 M12.457,15.913l-1.917-4.504l3.294-1.441l0.323,0.762l-2.396,1.049l0.425,0.998l2.23-0.976l0.322,0.759l-2.229,0.976l0.521,1.226
			l2.481-1.085l0.322,0.759L12.457,15.913z M19.965,12.628l-2.318-2.98l0.551,3.753l-0.973,0.425l-2.977-4.039l0.918-0.401
			l1.986,2.8l-0.504-3.448l1.066-0.467l2.117,2.805L19.175,7.63l0.903-0.395l0.838,4.976L19.965,12.628z"/>
	</g>
</g>
</svg>
