<svg xmlns="http://www.w3.org/2000/svg" width="35" height="210" viewBox="0 0 35 210"><svg width="35" viewBox="0 0 35 35.000001" height="35"><path d="M17.822 28.16a.53.53 0 0 1-.377-.157l-8.804-8.936c-1.99-1.99-3.087-4.36-3.087-6.67 0-3.73 2.479-6.237 6.168-6.237 3.17 0 4.427 1.41 6.1 3.375 1.673-1.966 2.93-3.375 6.1-3.375 3.69 0 6.169 2.507 6.169 6.238 0 2.31-1.097 4.68-3.09 6.672L18.2 28.003a.53.53 0 0 1-.377.157zm-6.1-20.94c-3.103 0-5.109 2.032-5.109 5.178 0 2.027.988 4.13 2.78 5.923l8.43 8.556 8.427-8.553c1.795-1.795 2.782-3.899 2.782-5.926 0-3.146-2.006-5.178-5.11-5.178-2.74 0-3.736 1.171-5.387 3.112l-.31.364a.529.529 0 0 1-.804 0l-.31-.362c-1.65-1.942-2.648-3.114-5.39-3.114z" fill="#346cab"/></svg><svg width="35" viewBox="0 0 35 35.000001" height="35" y="35"><path d="M17.822 28.16a.53.53 0 0 1-.377-.157l-8.804-8.936c-1.99-1.99-3.087-4.36-3.087-6.67 0-3.73 2.479-6.237 6.168-6.237 3.17 0 4.427 1.41 6.1 3.375 1.673-1.966 2.93-3.375 6.1-3.375 3.69 0 6.169 2.507 6.169 6.238 0 2.31-1.097 4.68-3.09 6.672L18.2 28.003a.53.53 0 0 1-.377.157zm-6.1-20.94c-3.103 0-5.109 2.032-5.109 5.178 0 2.027.988 4.13 2.78 5.923l8.43 8.556 8.427-8.553c1.795-1.795 2.782-3.899 2.782-5.926 0-3.146-2.006-5.178-5.11-5.178-2.74 0-3.736 1.171-5.387 3.112l-.31.364a.529.529 0 0 1-.804 0l-.31-.362c-1.65-1.942-2.648-3.114-5.39-3.114z" fill="gray"/></svg><svg width="35" viewBox="0 0 35 35.000001" height="35" y="70"><g fill="#346cab"><path d="M22.174 16.8v-.821c.382-.12.685-.349.914-.69.23-.343.344-.74.344-1.189 0-.457-.127-.847-.383-1.17a1.877 1.877 0 0 0-.401-.371 5.923 5.923 0 0 0-.677-.41c-.315-.166-.526-.311-.63-.433a.696.696 0 0 1-.158-.468c0-.206.065-.378.196-.515a.654.654 0 0 1 .494-.206c.32 0 .58.212.777.635l.66-.432c-.154-.323-.316-.562-.484-.718a1.292 1.292 0 0 0-.653-.31v-.777h-.59v.777a1.775 1.775 0 0 0-.491.23 1.482 1.482 0 0 0-.588.793 1.748 1.748 0 0 0-.078.531c0 .402.11.747.328 1.035.138.194.426.404.862.635.212.113.386.218.522.315.136.096.24.183.31.26.137.158.205.369.205.63 0 .293-.082.533-.246.717a.798.798 0 0 1-.622.282.798.798 0 0 1-.612-.247c-.146-.172-.27-.459-.372-.86l-.744.184c.11.568.281.989.514 1.261.232.272.57.451 1.011.536v.796h.592z"/><path d="M30.744 12.863a9 9 0 1 0-18 0 9 9 0 0 0 18 0zm-16.875 0a7.875 7.875 0 1 1 15.75 0 7.875 7.875 0 0 1-15.75 0z"/></g><circle cy="21.901" cx="12.016" r="8.523" fill="rgba(255, 255, 255, 0)"/><g fill="#346cab"><path d="M12.21 26.206v-.821c.38-.12.684-.35.913-.69.23-.343.344-.74.344-1.19 0-.456-.127-.846-.382-1.17a1.877 1.877 0 0 0-.402-.37 5.923 5.923 0 0 0-.677-.41c-.315-.166-.526-.312-.63-.433a.696.696 0 0 1-.158-.468c0-.206.065-.378.196-.515a.654.654 0 0 1 .494-.206c.32 0 .58.211.777.634l.66-.432c-.154-.323-.316-.561-.484-.717a1.292 1.292 0 0 0-.653-.31v-.777h-.59v.777a1.775 1.775 0 0 0-.49.23 1.482 1.482 0 0 0-.59.793c-.051.164-.077.34-.077.53 0 .402.11.748.329 1.036.137.193.425.404.861.634.212.114.386.219.522.315.136.097.24.184.31.26.137.159.206.37.206.63 0 .294-.083.534-.247.718a.798.798 0 0 1-.622.281c-.255 0-.459-.082-.612-.246-.146-.172-.27-.46-.372-.86l-.744.184c.11.568.281.989.514 1.26.232.273.57.452 1.012.536v.797h.591z"/><path d="M20.78 22.268a9 9 0 1 0-18.001.001 9 9 0 0 0 18 0zm-16.875 0a7.875 7.875 0 1 1 15.75 0 7.875 7.875 0 0 1-15.75 0z"/></g></svg><svg width="35" viewBox="0 0 35 35.000001" height="35" y="105"><g fill="gray"><path d="M22.174 16.8v-.821c.382-.12.685-.349.914-.69.23-.343.344-.74.344-1.189 0-.457-.127-.847-.383-1.17a1.877 1.877 0 0 0-.401-.371 5.923 5.923 0 0 0-.677-.41c-.315-.166-.526-.311-.63-.433a.696.696 0 0 1-.158-.468c0-.206.065-.378.196-.515a.654.654 0 0 1 .494-.206c.32 0 .58.212.777.635l.66-.432c-.154-.323-.316-.562-.484-.718a1.292 1.292 0 0 0-.653-.31v-.777h-.59v.777a1.775 1.775 0 0 0-.491.23 1.482 1.482 0 0 0-.588.793 1.748 1.748 0 0 0-.078.531c0 .402.11.747.328 1.035.138.194.426.404.862.635.212.113.386.218.522.315.136.096.24.183.31.26.137.158.205.369.205.63 0 .293-.082.533-.246.717a.798.798 0 0 1-.622.282.798.798 0 0 1-.612-.247c-.146-.172-.27-.459-.372-.86l-.744.184c.11.568.281.989.514 1.261.232.272.57.451 1.011.536v.796h.592z"/><path d="M30.744 12.863a9 9 0 1 0-18 0 9 9 0 0 0 18 0zm-16.875 0a7.875 7.875 0 1 1 15.75 0 7.875 7.875 0 0 1-15.75 0z"/></g><circle cy="21.901" cx="12.016" r="8.523" fill="rgba(255, 255, 255, 0)"/><g fill="gray"><path d="M12.21 26.206v-.821c.38-.12.684-.35.913-.69.23-.343.344-.74.344-1.19 0-.456-.127-.846-.382-1.17a1.877 1.877 0 0 0-.402-.37 5.923 5.923 0 0 0-.677-.41c-.315-.166-.526-.312-.63-.433a.696.696 0 0 1-.158-.468c0-.206.065-.378.196-.515a.654.654 0 0 1 .494-.206c.32 0 .58.211.777.634l.66-.432c-.154-.323-.316-.561-.484-.717a1.292 1.292 0 0 0-.653-.31v-.777h-.59v.777a1.775 1.775 0 0 0-.49.23 1.482 1.482 0 0 0-.59.793c-.051.164-.077.34-.077.53 0 .402.11.748.329 1.036.137.193.425.404.861.634.212.114.386.219.522.315.136.097.24.184.31.26.137.159.206.37.206.63 0 .294-.083.534-.247.718a.798.798 0 0 1-.622.281c-.255 0-.459-.082-.612-.246-.146-.172-.27-.46-.372-.86l-.744.184c.11.568.281.989.514 1.26.232.273.57.452 1.012.536v.797h.591z"/><path d="M20.78 22.268a9 9 0 1 0-18.001.001 9 9 0 0 0 18 0zm-16.875 0a7.875 7.875 0 1 1 15.75 0 7.875 7.875 0 0 1-15.75 0z"/></g></svg><svg width="35" viewBox="0 0 35 35.000001" height="35" y="140"><path d="M16.956 6.233H7.689a.574.574 0 0 0-.281.082c-.009.005-.017.013-.025.018a.571.571 0 0 0-.15.137c-.014.017-.036.024-.048.044L.494 17.566a.582.582 0 0 0 .103.73c.13.116 3.206 2.917 7.084 2.917 3.447 0 6.257-2.21 6.93-2.782a.574.574 0 0 0 .492-.563.58.58 0 0 0-.377-.542l-6.012-9.93h8.242V27.07h-2.432a.582.582 0 1 0 0 1.164h6.027a.582.582 0 1 0 0-1.164H18.12V7.397h8.243l-6.155 10.17c-.01.014-.012.027-.019.043a.582.582 0 0 0-.056.211c-.002.018-.01.031-.01.047 0 .013.007.023.008.035a.595.595 0 0 0 .026.135c.008.025.013.05.022.073.019.04.047.078.078.114.014.019.025.04.045.058l.008.012c.128.117 3.205 2.917 7.084 2.917 3.877 0 6.954-2.8 7.082-2.917.002-.003.004-.008.009-.012.019-.017.028-.04.045-.058.028-.036.059-.074.077-.114a.305.305 0 0 0 .024-.074.554.554 0 0 0 .025-.136c.001-.011.01-.022.01-.034 0-.017-.01-.03-.011-.047a.574.574 0 0 0-.025-.128c-.008-.03-.02-.058-.031-.084-.007-.015-.009-.027-.017-.04L27.89 6.514c-.013-.02-.034-.026-.046-.043a.563.563 0 0 0-.155-.14l-.022-.016a.576.576 0 0 0-.284-.082H18.12zM7.683 7.937l5.66 9.348H2.025zm19.713 0l5.658 9.348H21.737zM2.763 18.447h9.847c-1.16.736-2.94 1.6-4.927 1.6-1.977 0-3.758-.864-4.92-1.6zm19.71 0h9.847c-1.157.736-2.94 1.6-4.924 1.6-1.978 0-3.762-.864-4.923-1.6z" fill="#346cab"/></svg><svg width="35" viewBox="0 0 35 35.000001" height="35" y="175"><path d="M16.956 6.233H7.689a.574.574 0 0 0-.281.082c-.009.005-.017.013-.025.018a.571.571 0 0 0-.15.137c-.014.017-.036.024-.048.044L.494 17.566a.582.582 0 0 0 .103.73c.13.116 3.206 2.917 7.084 2.917 3.447 0 6.257-2.21 6.93-2.782a.574.574 0 0 0 .492-.563.58.58 0 0 0-.377-.542l-6.012-9.93h8.242V27.07h-2.432a.582.582 0 1 0 0 1.164h6.027a.582.582 0 1 0 0-1.164H18.12V7.397h8.243l-6.155 10.17c-.01.014-.012.027-.019.043a.582.582 0 0 0-.056.211c-.002.018-.01.031-.01.047 0 .013.007.023.008.035a.595.595 0 0 0 .026.135c.008.025.013.05.022.073.019.04.047.078.078.114.014.019.025.04.045.058l.008.012c.128.117 3.205 2.917 7.084 2.917 3.877 0 6.954-2.8 7.082-2.917.002-.003.004-.008.009-.012.019-.017.028-.04.045-.058.028-.036.059-.074.077-.114a.305.305 0 0 0 .024-.074.554.554 0 0 0 .025-.136c.001-.011.01-.022.01-.034 0-.017-.01-.03-.011-.047a.574.574 0 0 0-.025-.128c-.008-.03-.02-.058-.031-.084-.007-.015-.009-.027-.017-.04L27.89 6.514c-.013-.02-.034-.026-.046-.043a.563.563 0 0 0-.155-.14l-.022-.016a.576.576 0 0 0-.284-.082H18.12zM7.683 7.937l5.66 9.348H2.025zm19.713 0l5.658 9.348H21.737zM2.763 18.447h9.847c-1.16.736-2.94 1.6-4.927 1.6-1.977 0-3.758-.864-4.92-1.6zm19.71 0h9.847c-1.157.736-2.94 1.6-4.924 1.6-1.978 0-3.762-.864-4.923-1.6z" fill="gray"/></svg></svg>