<svg version="1" xmlns="http://www.w3.org/2000/svg" width="15" height="15" viewBox="0 0 15 15"><path fill-rule="evenodd" clip-rule="evenodd" fill="#D9450A" d="M14.078 8.709c-.611-.619-1.406-.93-2.385-.93s-1.777.311-2.395.93c-.618.62-.927 1.449-.927 2.486s.309 1.866.927 2.485c.618.62 1.417.93 2.396.93s1.773-.31 2.385-.93c.611-.619.916-1.448.916-2.485s-.306-1.866-.917-2.486zm-2.385 4.648c-.599 0-1.023-.205-1.274-.616s-.377-.926-.377-1.546c0-.634.126-1.148.377-1.546s.676-.597 1.274-.597c.611 0 1.039.202 1.283.606.245.404.367.916.367 1.536.001 1.443-.55 2.163-1.65 2.163zM5.69 6.547c.618-.62.927-1.448.927-2.486 0-1.037-.309-1.865-.927-2.485-.619-.62-1.417-.93-2.395-.93-.965 0-1.756.31-2.375.93s-.927 1.448-.927 2.485c0 1.038.309 1.866.927 2.486s1.41.93 2.375.93c.979 0 1.777-.31 2.395-.93zm-3.669-.941c-.251-.41-.376-.925-.376-1.545 0-.633.125-1.151.377-1.556s.676-.606 1.274-.606c.611 0 1.04.205 1.284.616s.367.927.367 1.546c0 1.442-.55 2.163-1.651 2.163-.599 0-1.023-.206-1.275-.618zM11.57-.001L2.134 14.146l1.304.85L12.875.849l-1.305-.85z"/></svg>