<svg xmlns="http://www.w3.org/2000/svg" viewBox="0 0 36 46.666668" height="46.667" width="36"><path d="M.172 25a17.877 17.877 0 0 1 .594-7.047C2.893 10.64 9.564 5.263 17.478 5.168V.388c0-.266.33-.408.546-.247l9.76 7.228c.16.123.16.37 0 .482l-9.75 7.228c-.226.162-.546.019-.546-.246v-4.771c-5.204.084-9.646 3.32-11.557 7.891a12.792 12.792 0 0 0-.988 5.634c.142 2.75 1.167 5.284 2.786 7.333.865 1.09-.084 1.655-1.204 2.481-1.064.787-1.808 1.597-2.626.553A17.61 17.61 0 0 1 .172 25zm28.176-9.181a12.747 12.747 0 0 1 2.786 7.332 12.863 12.863 0 0 1-.99 5.634c-1.909 4.571-6.35 7.815-11.555 7.891v-4.77c0-.265-.33-.41-.546-.247l-9.76 7.228c-.16.123-.16.37 0 .483l9.751 7.228c.224.16.545.018.545-.247v-4.78c7.914-.087 14.595-5.464 16.713-12.786.641-2.2.865-4.582.594-7.047a17.53 17.53 0 0 0-3.719-8.954c-.828-1.043-1.524-.326-2.586.463-1.112.823-2.1 1.48-1.233 2.572z" fill="#346bab" stroke-width="30.693"/></svg>