<svg xmlns="http://www.w3.org/2000/svg" width="35" height="35" viewBox="0 0 35 35.000001"><path d="M16.956 6.233H7.689a.574.574 0 0 0-.281.082c-.009.005-.017.013-.025.018a.571.571 0 0 0-.15.137c-.014.017-.036.024-.048.044L.494 17.566a.582.582 0 0 0 .103.73c.13.116 3.206 2.917 7.084 2.917 3.447 0 6.257-2.21 6.93-2.782a.574.574 0 0 0 .492-.563.58.58 0 0 0-.377-.542l-6.012-9.93h8.242V27.07h-2.432a.582.582 0 1 0 0 1.164h6.027a.582.582 0 1 0 0-1.164H18.12V7.397h8.243l-6.155 10.17c-.01.014-.012.027-.019.043a.582.582 0 0 0-.056.211c-.002.018-.01.031-.01.047 0 .013.007.023.008.035a.595.595 0 0 0 .026.135c.008.025.013.05.022.073.019.04.047.078.078.114.014.019.025.04.045.058l.008.012c.128.117 3.205 2.917 7.084 2.917 3.877 0 6.954-2.8 7.082-2.917.002-.003.004-.008.009-.012.019-.017.028-.04.045-.058.028-.036.059-.074.077-.114a.305.305 0 0 0 .024-.074.554.554 0 0 0 .025-.136c.001-.011.01-.022.01-.034 0-.017-.01-.03-.011-.047a.574.574 0 0 0-.025-.128c-.008-.03-.02-.058-.031-.084-.007-.015-.009-.027-.017-.04L27.89 6.514c-.013-.02-.034-.026-.046-.043a.563.563 0 0 0-.155-.14l-.022-.016a.576.576 0 0 0-.284-.082H18.12zM7.683 7.937l5.66 9.348H2.025zm19.713 0l5.658 9.348H21.737zM2.763 18.447h9.847c-1.16.736-2.94 1.6-4.927 1.6-1.977 0-3.758-.864-4.92-1.6zm19.71 0h9.847c-1.157.736-2.94 1.6-4.924 1.6-1.978 0-3.762-.864-4.923-1.6z" fill="#346cab"/></svg>