<svg xmlns="http://www.w3.org/2000/svg" width="33" height="33" viewBox="0 0 33 33.000001"><path d="M16.106 5.578H7.682a.522.522 0 0 0-.255.075c-.008.004-.016.011-.023.016a.52.52 0 0 0-.137.124c-.012.016-.032.022-.043.04L1.14 15.882a.53.53 0 0 0 .094.663c.118.106 2.915 2.652 6.44 2.652 3.134 0 5.688-2.008 6.3-2.529a.522.522 0 0 0 .447-.512.528.528 0 0 0-.343-.492L8.614 6.636h7.493V24.52h-2.212a.53.53 0 1 0 0 1.057h5.48a.529.529 0 1 0 0-1.058h-2.21V6.636h7.494l-5.596 9.246c-.009.013-.01.024-.017.039a.528.528 0 0 0-.051.192c-.002.016-.009.028-.009.042 0 .013.006.021.007.032a.541.541 0 0 0 .024.123c.007.022.012.045.02.066a.48.48 0 0 0 .07.104c.014.017.024.037.042.053.003.002.004.006.007.01.116.107 2.914 2.653 6.44 2.653 3.525 0 6.321-2.546 6.438-2.653.002-.003.004-.007.008-.01.017-.016.026-.036.041-.053.026-.033.054-.067.07-.104.011-.02.016-.044.022-.067a.503.503 0 0 0 .023-.123c.001-.01.009-.02.009-.032 0-.015-.009-.027-.01-.042a.522.522 0 0 0-.023-.117c-.007-.027-.019-.052-.029-.076-.005-.014-.007-.025-.015-.036l-6.082-10.05c-.012-.017-.03-.023-.042-.039a.512.512 0 0 0-.141-.127l-.02-.014a.524.524 0 0 0-.258-.075h-8.422zM7.677 7.127l5.145 8.498H2.534zm17.92 0l5.144 8.498H20.453zM3.205 16.682h8.951c-1.053.668-2.672 1.455-4.478 1.455-1.798 0-3.416-.787-4.473-1.455zm17.918 0h8.952c-1.052.668-2.672 1.455-4.476 1.455-1.799 0-3.42-.787-4.476-1.455z" fill="#346cab"/></svg>