<svg version="1" xmlns="http://www.w3.org/2000/svg" width="18" height="17" viewBox="0 0 18 17"><path fill-rule="evenodd" clip-rule="evenodd" fill="#346cab" d="M17.877.117a.397.397 0 0 0-.429-.09L.723 6.525a1.144 1.144 0 0 0-.716.922 1.15 1.15 0 0 0 .456 1.079l3.673 2.71L17.189.825 5.647 12.354l5.024 3.704c.318.235.729.309 1.111.19.379-.117.68-.408.817-.784L17.972.55a.408.408 0 0 0-.095-.433zM3.296 12.313l.713 3.95a.898.898 0 0 0 .517.662.87.87 0 0 0 .826-.07c.993-.65 2.292-1.511 2.256-1.561l-4.342-3.156.03.175z"/></svg>