<svg xmlns="http://www.w3.org/2000/svg" width="23" height="23" viewBox="0 0 23 23"><path d="M6.997.538c1.109 0 2.15.29 3.053.797a10.26 10.26 0 0 1 1.511-.112c5.621 0 10.178 4.557 10.178 10.178 0 .538-.042 1.066-.122 1.581a6.253 6.253 0 0 1-8.762 8.516c-.424.054-.855.082-1.294.082-5.621 0-10.178-4.557-10.178-10.179 0-.547.043-1.085.127-1.61A6.253 6.253 0 0 1 6.997.538m0 .898a5.32 5.32 0 0 0-3.788 1.57A5.32 5.32 0 0 0 1.641 6.79c0 .899.226 1.787.655 2.57l.148.269-.048.303A9.39 9.39 0 0 0 2.28 11.4a9.25 9.25 0 0 0 2.718 6.563 9.25 9.25 0 0 0 6.563 2.719c.395 0 .792-.025 1.181-.075l.331-.042.278.185c.878.582 1.9.89 2.957.89a5.32 5.32 0 0 0 3.787-1.569 5.32 5.32 0 0 0 1.57-3.787 5.34 5.34 0 0 0-.81-2.828l-.176-.283.052-.33c.074-.475.111-.96.111-1.443a9.251 9.251 0 0 0-2.718-6.563A9.252 9.252 0 0 0 11.56 2.12c-.46 0-.924.034-1.379.102l-.303.045-.268-.15a5.357 5.357 0 0 0-2.614-.682z" fill="#a1c5e1"/><path d="M11.005 9.947l2.122.48c1.94.442 2.911 1.509 2.911 3.199 0 1.051-.38 1.886-1.142 2.504-.802.67-1.944 1.005-3.426 1.005-1.472 0-2.645-.32-3.52-.958-.75-.536-1.126-1.154-1.126-1.855 0-.31.1-.562.3-.758.2-.196.455-.294.764-.294.36 0 .683.176.97.526.463.567.746.887.848.958.442.351 1.028.526 1.758.526.627 0 1.13-.155 1.51-.464.35-.278.525-.613.525-1.004 0-.588-.362-.974-1.085-1.16l-2.865-.726c-1.817-.464-2.725-1.48-2.725-3.046 0-1.144.47-2.02 1.409-2.628.805-.515 1.817-.773 3.036-.773 1.053 0 2.023.248 2.911.742.94.526 1.41 1.144 1.41 1.855a.89.89 0 0 1-.341.735c-.228.18-.501.27-.821.27-.31 0-.6-.144-.867-.433-.414-.443-.682-.705-.806-.788-.423-.288-.976-.433-1.657-.433-.578 0-1.027.121-1.347.363-.32.243-.48.56-.48.951 0 .546.578.948 1.734 1.206z" fill="#a1c5e1"/></svg>