<svg version="1" xmlns="http://www.w3.org/2000/svg" width="22" height="17" viewBox="0 0 22 17"><path fill-rule="evenodd" clip-rule="evenodd" fill="#346cab" d="M19.119 2.896c.805-.634 1.452-1.271 1.775-2.374-.805.309-1.618.788-2.746.941C15.724-1.543 9.584.83 10.711 5.27 6.503 4.953 3.924 3.05 1.825.831.687 2.734 1.659 5.743 3.109 6.539c-.646 0-1.284-.162-1.774-.479.166 2.537 1.451 3.643 3.393 4.277-.48 0-1.127.162-1.776 0 .649 1.748 1.942 2.852 4.042 3.007-1.45 1.27-4.207 2.064-6.307 1.747 1.942 1.107 4.042 2.058 6.956 1.896 7.111-.317 11.8-5.381 11.957-12.666.813-.635 1.619-1.27 1.785-2.058-.649.316-1.461.471-2.266.633z"/></svg>