<svg version="1" xmlns="http://www.w3.org/2000/svg" width="26" height="16" viewBox="0 0 26 16"><path fill-rule="evenodd" clip-rule="evenodd" fill="#346cab" d="M21.313 8.99c-.066-1.201 1.65-2.82 2.172-3.561.898-1.237 1.752-4.047 1.752-4.047l-5.454-.035s-1.939 5.192-4.202 6.43c-1.617-1.122.377-4.975-.797-6.352-.82-.958-5.844-.69-6.03.535.553.162 1.088.334 1.308.831.554 1.226.39 4.87-.511 4.985-.553.08-1.052-.823-1.372-1.284-.39-.553-.758-1.039-1.089-1.663-.401-.729-1.895-3.561-1.895-3.561l-4.646.018S2.181 5.569 3.31 7.557c2.327 4.104 4.966 8.349 11.539 7.261.423-1.167.056-2.891 1.229-2.948.667-.034 1.145.763 1.531 1.214.422.486.676.926 1.119 1.308.943.775 1.863.74 3.414.671 1.365-.059 2.761.3 2.982-.671.232-1.076-1.053-2.117-1.641-2.753-.719-.764-2.116-1.689-2.17-2.649z"/></svg>